<svg xmlns="http://www.w3.org/2000/svg" xmlns:xlink="http://www.w3.org/1999/xlink" xmlns:lucid="lucid" width="1760" height="1360"><g transform="translate(0 0)" lucid:page-tab-id="0_0"><path d="M652.4 14.33c0-2.76 2.24-5 5-5H1155c2.76 0 5 2.24 5 5v50c0 2.76-2.24 5-5 5H657.4c-2.76 0-5-2.24-5-5z" fill="none"/><use xlink:href="#a" transform="matrix(1,0,0,1,652.4,9.333333333333336) translate(152.28395061728395 36.22222222222222)"/><use xlink:href="#b" transform="matrix(1,0,0,1,652.4,9.333333333333336) translate(238.5308641975309 36.22222222222222)"/><path d="M700 105c0-2.76 2.24-5 5-5h430c2.76 0 5 2.24 5 5v340c0 2.76-2.24 5-5 5H705c-2.76 0-5-2.24-5-5z" stroke="#000" stroke-width="2" fill="#fff"/><path d="M700 137.6h440M700 304.7h440" stroke="#000" stroke-width="2" fill="none"/><use xlink:href="#c" transform="matrix(1,0,0,1,708,108) translate(173 14.6)"/><use xlink:href="#d" transform="matrix(1,0,0,1,712,145.6) translate(0 25.6)"/><use xlink:href="#e" transform="matrix(1,0,0,1,712,145.6) translate(15.5 25.6)"/><use xlink:href="#d" transform="matrix(1,0,0,1,712,145.6) translate(0 47.2)"/><use xlink:href="#f" transform="matrix(1,0,0,1,712,145.6) translate(15.5 47.2)"/><use xlink:href="#d" transform="matrix(1,0,0,1,712,145.6) translate(0 68.80000000000001)"/><use xlink:href="#g" transform="matrix(1,0,0,1,712,145.6) translate(15.5 68.80000000000001)"/><use xlink:href="#d" transform="matrix(1,0,0,1,712,145.6) translate(0 90.40000000000002)"/><use xlink:href="#h" transform="matrix(1,0,0,1,712,145.6) translate(15.5 90.40000000000002)"/><use xlink:href="#d" transform="matrix(1,0,0,1,712,145.6) translate(0 112.00000000000001)"/><use xlink:href="#i" transform="matrix(1,0,0,1,712,145.6) translate(15.5 112.00000000000001)"/><use xlink:href="#d" transform="matrix(1,0,0,1,712,145.6) translate(0 133.6)"/><use xlink:href="#j" transform="matrix(1,0,0,1,712,145.6) translate(15.5 133.6)"/><use xlink:href="#d" transform="matrix(1,0,0,1,712,312.7) translate(0 25.39999999999999)"/><use xlink:href="#k" transform="matrix(1,0,0,1,712,312.7) translate(15.5 25.39999999999999)"/><use xlink:href="#d" transform="matrix(1,0,0,1,712,312.7) translate(0 46.99999999999999)"/><use xlink:href="#l" transform="matrix(1,0,0,1,712,312.7) translate(15.5 46.99999999999999)"/><use xlink:href="#m" transform="matrix(1,0,0,1,712,312.7) translate(0 68.6)"/><use xlink:href="#n" transform="matrix(1,0,0,1,712,312.7) translate(15.5 68.6)"/><use xlink:href="#d" transform="matrix(1,0,0,1,712,312.7) translate(0 90.20000000000002)"/><use xlink:href="#o" transform="matrix(1,0,0,1,712,312.7) translate(15.5 90.20000000000002)"/><use xlink:href="#p" transform="matrix(1,0,0,1,712,312.7) translate(0 111.80000000000001)"/><path d="M100 505c0-2.76 2.24-5 5-5h490c2.76 0 5 2.24 5 5v340c0 2.76-2.24 5-5 5H105c-2.76 0-5-2.24-5-5z" stroke="#000" stroke-width="2" fill="#fff"/><path d="M100 537.6h500M100 639.9h500" stroke="#000" stroke-width="2" fill="none"/><use xlink:href="#q" transform="matrix(1,0,0,1,108,508) translate(199.55 14.6)"/><use xlink:href="#d" transform="matrix(1,0,0,1,112,545.6) translate(0 25.5)"/><use xlink:href="#r" transform="matrix(1,0,0,1,112,545.6) translate(15.5 25.5)"/><use xlink:href="#d" transform="matrix(1,0,0,1,112,545.6) translate(0 47.1)"/><use xlink:href="#s" transform="matrix(1,0,0,1,112,545.6) translate(15.5 47.1)"/><use xlink:href="#d" transform="matrix(1,0,0,1,112,545.6) translate(0 68.7)"/><use xlink:href="#t" transform="matrix(1,0,0,1,112,545.6) translate(15.5 68.7)"/><use xlink:href="#d" transform="matrix(1,0,0,1,112,647.9) translate(0 25.500000000000007)"/><use xlink:href="#u" transform="matrix(1,0,0,1,112,647.9) translate(15.5 25.500000000000007)"/><use xlink:href="#d" transform="matrix(1,0,0,1,112,647.9) translate(0 47.10000000000001)"/><use xlink:href="#v" transform="matrix(1,0,0,1,112,647.9) translate(15.5 47.10000000000001)"/><use xlink:href="#d" transform="matrix(1,0,0,1,112,647.9) translate(0 68.70000000000002)"/><use xlink:href="#w" transform="matrix(1,0,0,1,112,647.9) translate(15.5 68.70000000000002)"/><use xlink:href="#d" transform="matrix(1,0,0,1,112,647.9) translate(0 90.30000000000003)"/><use xlink:href="#x" transform="matrix(1,0,0,1,112,647.9) translate(15.5 90.30000000000003)"/><use xlink:href="#d" transform="matrix(1,0,0,1,112,647.9) translate(0 111.90000000000002)"/><use xlink:href="#y" transform="matrix(1,0,0,1,112,647.9) translate(15.5 111.90000000000002)"/><use xlink:href="#d" transform="matrix(1,0,0,1,112,647.9) translate(0 133.5)"/><use xlink:href="#z" transform="matrix(1,0,0,1,112,647.9) translate(15.5 133.5)"/><use xlink:href="#d" transform="matrix(1,0,0,1,112,647.9) translate(0 155.1)"/><use xlink:href="#A" transform="matrix(1,0,0,1,112,647.9) translate(15.5 155.1)"/><use xlink:href="#d" transform="matrix(1,0,0,1,112,647.9) translate(0 176.70000000000002)"/><use xlink:href="#B" transform="matrix(1,0,0,1,112,647.9) translate(15.5 176.70000000000002)"/><path d="M1240 505c0-2.76 2.24-5 5-5h490c2.76 0 5 2.24 5 5v340c0 2.76-2.24 5-5 5h-490c-2.76 0-5-2.24-5-5z" stroke="#000" stroke-width="2" fill="#fff"/><path d="M1240 537.6h500m-500 102.3h500" stroke="#000" stroke-width="2" fill="none"/><g><use xlink:href="#C" transform="matrix(1,0,0,1,1248,508) translate(199.075 14.6)"/></g><g><use xlink:href="#d" transform="matrix(1,0,0,1,1252,545.6) translate(0 25.5)"/><use xlink:href="#r" transform="matrix(1,0,0,1,1252,545.6) translate(15.5 25.5)"/><use xlink:href="#d" transform="matrix(1,0,0,1,1252,545.6) translate(0 47.1)"/><use xlink:href="#s" transform="matrix(1,0,0,1,1252,545.6) translate(15.5 47.1)"/><use xlink:href="#d" transform="matrix(1,0,0,1,1252,545.6) translate(0 68.7)"/><use xlink:href="#t" transform="matrix(1,0,0,1,1252,545.6) translate(15.5 68.7)"/></g><g><use xlink:href="#d" transform="matrix(1,0,0,1,1252,647.9) translate(0 25.500000000000007)"/><use xlink:href="#D" transform="matrix(1,0,0,1,1252,647.9) translate(15.5 25.500000000000007)"/><use xlink:href="#d" transform="matrix(1,0,0,1,1252,647.9) translate(0 47.10000000000001)"/><use xlink:href="#v" transform="matrix(1,0,0,1,1252,647.9) translate(15.5 47.10000000000001)"/><use xlink:href="#d" transform="matrix(1,0,0,1,1252,647.9) translate(0 68.70000000000002)"/><use xlink:href="#w" transform="matrix(1,0,0,1,1252,647.9) translate(15.5 68.70000000000002)"/><use xlink:href="#d" transform="matrix(1,0,0,1,1252,647.9) translate(0 90.30000000000003)"/><use xlink:href="#x" transform="matrix(1,0,0,1,1252,647.9) translate(15.5 90.30000000000003)"/><use xlink:href="#d" transform="matrix(1,0,0,1,1252,647.9) translate(0 111.90000000000002)"/><use xlink:href="#y" transform="matrix(1,0,0,1,1252,647.9) translate(15.5 111.90000000000002)"/><use xlink:href="#d" transform="matrix(1,0,0,1,1252,647.9) translate(0 133.5)"/><use xlink:href="#z" transform="matrix(1,0,0,1,1252,647.9) translate(15.5 133.5)"/><use xlink:href="#d" transform="matrix(1,0,0,1,1252,647.9) translate(0 155.1)"/><use xlink:href="#E" transform="matrix(1,0,0,1,1252,647.9) translate(15.5 155.1)"/><use xlink:href="#d" transform="matrix(1,0,0,1,1252,647.9) translate(0 176.70000000000002)"/><use xlink:href="#B" transform="matrix(1,0,0,1,1252,647.9) translate(15.5 176.70000000000002)"/></g><path d="M730 925c0-2.76 2.24-5 5-5h370c2.76 0 5 2.24 5 5v383c0 2.76-2.24 5-5 5H735c-2.76 0-5-2.24-5-5z" stroke="#000" stroke-width="2" fill="#fff"/><path d="M730 957.6h380m-380 188.7h380" stroke="#000" stroke-width="2" fill="none"/><g><use xlink:href="#F" transform="matrix(1,0,0,1,738,928) translate(166.5 14.6)"/></g><g><use xlink:href="#d" transform="matrix(1,0,0,1,742,965.6) translate(0 25.300000000000004)"/><use xlink:href="#e" transform="matrix(1,0,0,1,742,965.6) translate(15.5 25.300000000000004)"/><use xlink:href="#d" transform="matrix(1,0,0,1,742,965.6) translate(0 46.900000000000006)"/><use xlink:href="#f" transform="matrix(1,0,0,1,742,965.6) translate(15.5 46.900000000000006)"/><use xlink:href="#d" transform="matrix(1,0,0,1,742,965.6) translate(0 68.50000000000001)"/><use xlink:href="#g" transform="matrix(1,0,0,1,742,965.6) translate(15.5 68.50000000000001)"/><use xlink:href="#d" transform="matrix(1,0,0,1,742,965.6) translate(0 90.10000000000002)"/><use xlink:href="#G" transform="matrix(1,0,0,1,742,965.6) translate(15.5 90.10000000000002)"/><use xlink:href="#d" transform="matrix(1,0,0,1,742,965.6) translate(0 111.70000000000002)"/><use xlink:href="#i" transform="matrix(1,0,0,1,742,965.6) translate(15.5 111.70000000000002)"/><use xlink:href="#d" transform="matrix(1,0,0,1,742,965.6) translate(0 133.3)"/><use xlink:href="#H" transform="matrix(1,0,0,1,742,965.6) translate(15.5 133.3)"/><use xlink:href="#d" transform="matrix(1,0,0,1,742,965.6) translate(0 154.9)"/><use xlink:href="#t" transform="matrix(1,0,0,1,742,965.6) translate(15.5 154.9)"/></g><g><use xlink:href="#d" transform="matrix(1,0,0,1,742,1154.3) translate(0 25.6)"/><use xlink:href="#I" transform="matrix(1,0,0,1,742,1154.3) translate(15.5 25.6)"/><use xlink:href="#d" transform="matrix(1,0,0,1,742,1154.3) translate(0 47.2)"/><use xlink:href="#J" transform="matrix(1,0,0,1,742,1154.3) translate(15.5 47.2)"/><use xlink:href="#d" transform="matrix(1,0,0,1,742,1154.3) translate(0 68.80000000000001)"/><use xlink:href="#K" transform="matrix(1,0,0,1,742,1154.3) translate(15.5 68.80000000000001)"/><use xlink:href="#d" transform="matrix(1,0,0,1,742,1154.3) translate(0 90.40000000000002)"/><use xlink:href="#L" transform="matrix(1,0,0,1,742,1154.3) translate(15.5 90.40000000000002)"/><use xlink:href="#d" transform="matrix(1,0,0,1,742,1154.3) translate(0 112.00000000000001)"/><use xlink:href="#M" transform="matrix(1,0,0,1,742,1154.3) translate(15.5 112.00000000000001)"/><use xlink:href="#d" transform="matrix(1,0,0,1,742,1154.3) translate(0 133.6)"/><use xlink:href="#N" transform="matrix(1,0,0,1,742,1154.3) translate(15.5 133.6)"/></g><path d="M787.4 670.08l-.3 1.9-2.13 2.9-3.4 1.12H602v-2h179.24l2.5-.82 1.46-2 .2-1.26v-83h2zm0-104.75h-2V469.5h2z"/><path d="M602.03 676H601v-2h1.03z"/><path d="M791.04 468.5h-9.28l4.64-14.26z" fill="#fff"/><path d="M792.4 469.5h-12l6-18.5zm-9.26-2h6.52l-3.26-10.03z"/><g><use xlink:href="#O" transform="matrix(1,0,0,1,770.9,565.3333333333334) translate(0 14.4)"/><use xlink:href="#P" transform="matrix(1,0,0,1,770.9,565.3333333333334) translate(19 14.4)"/></g><path d="M1043.4 669.92l.2 1.26 1.46 2 2.5.82H1238v2h-190.76l-3.4-1.1-2.13-2.92-.3-1.9v-89.8h2zm0-111.25h-2V469.5h2z"/><path d="M1239 676h-1.03v-2h1.03z"/><path d="M1047.04 468.5h-9.28l4.64-14.26z" fill="#fff"/><path d="M1048.4 469.5h-12l6-18.5zm-9.26-2h6.52l-3.26-10.03z"/><g><use xlink:href="#O" transform="matrix(1,0,0,1,1026.8999999999999,558.6666666666667) translate(0 14.4)"/><use xlink:href="#P" transform="matrix(1,0,0,1,1026.8999999999999,558.6666666666667) translate(19 14.4)"/></g><path d="M351 1111.42l.2 1.26 1.46 2 2.5.82H728v2H354.84l-3.4-1.1-2.13-2.92-.3-1.9v-90.5h2zm0-111.95h-2V881.75h2z"/><path d="M729 1117.5h-1.03v-2H729zM364.85 867.26L350 882.4l-14.85-15.14L350 852.4z"/><path d="M366.26 867.26L350 883.84l-16.26-16.58L350 851zm-29.7 0L350 881l13.44-13.73L350 853.83z"/><g><use xlink:href="#Q" transform="matrix(1,0,0,1,334.025,999.4666666666668) translate(0 14.4)"/></g><path d="M1491 1111.58l-.3 1.9-2.13 2.9-3.4 1.12H1112v-2h372.84l2.5-.82 1.46-2 .2-1.26v-97.02h2zm0-118.78h-2V881.75h2z"/><path d="M1112.03 1117.5H1111v-2h1.03zM1504.85 867.26L1490 882.4l-14.85-15.14L1490 852.4z"/><path d="M1506.26 867.26L1490 883.84l-16.26-16.58L1490 851zm-29.7 0L1490 881l13.44-13.73-13.44-13.44z"/><g><use xlink:href="#Q" transform="matrix(1,0,0,1,1474.025,992.8000000000001) translate(0 14.4)"/></g><path d="M921 918h-2V695.8h2zm0-243.8h-2V452h2z"/><path d="M921 919h-2v-1.03h2zM921 452.03h-2V451h2z"/><g><use xlink:href="#R" transform="matrix(1,0,0,1,899.525,674.2) translate(0 14.4)"/></g><defs><path d="M212-179c-10-28-35-45-73-45-59 0-87 40-87 99 0 60 29 101 89 101 43 0 62-24 78-52l27 14C228-24 195 4 139 4 59 4 22-46 18-125c-6-104 99-153 187-111 19 9 31 26 39 46" id="S"/><path d="M24 0v-261h32V0H24" id="T"/><path d="M141-36C126-15 110 5 73 4 37 3 15-17 15-53c-1-64 63-63 125-63 3-35-9-54-41-54-24 1-41 7-42 31l-33-3c5-37 33-52 76-52 45 0 72 20 72 64v82c-1 20 7 32 28 27v20c-31 9-61-2-59-35zM48-53c0 20 12 33 32 33 41-3 63-29 60-74-43 2-92-5-92 41" id="U"/><path d="M135-143c-3-34-86-38-87 0 15 53 115 12 119 90S17 21 10-45l28-5c4 36 97 45 98 0-10-56-113-15-118-90-4-57 82-63 122-42 12 7 21 19 24 35" id="V"/><g id="a"><use transform="matrix(0.08641975308641976,0,0,0.08641975308641976,0,0)" xlink:href="#S"/><use transform="matrix(0.08641975308641976,0,0,0.08641975308641976,22.38271604938272,0)" xlink:href="#T"/><use transform="matrix(0.08641975308641976,0,0,0.08641975308641976,29.20987654320988,0)" xlink:href="#U"/><use transform="matrix(0.08641975308641976,0,0,0.08641975308641976,46.49382716049383,0)" xlink:href="#V"/><use transform="matrix(0.08641975308641976,0,0,0.08641975308641976,62.04938271604939,0)" xlink:href="#V"/><path d="M-1.56 2.16H87.8v2.28H-1.56z"/></g><path d="M30-248c118-7 216 8 213 122C240-48 200 0 122 0H30v-248zM63-27c89 8 146-16 146-99s-60-101-146-95v194" id="W"/><path d="M24-231v-30h32v30H24zM24 0v-190h32V0H24" id="X"/><path d="M177-190C167-65 218 103 67 71c-23-6-38-20-44-43l32-5c15 47 100 32 89-28v-30C133-14 115 1 83 1 29 1 15-40 15-95c0-56 16-97 71-98 29-1 48 16 59 35 1-10 0-23 2-32h30zM94-22c36 0 50-32 50-73 0-42-14-75-50-75-39 0-46 34-46 75s6 73 46 73" id="Y"/><path d="M114-163C36-179 61-72 57 0H25l-1-190h30c1 12-1 29 2 39 6-27 23-49 58-41v29" id="Z"/><path d="M210-169c-67 3-38 105-44 169h-31v-121c0-29-5-50-35-48C34-165 62-65 56 0H25l-1-190h30c1 10-1 24 2 32 10-44 99-50 107 0 11-21 27-35 58-36 85-2 47 119 55 194h-31v-121c0-29-5-49-35-48" id="aa"/><g id="b"><use transform="matrix(0.08641975308641976,0,0,0.08641975308641976,0,0)" xlink:href="#W"/><use transform="matrix(0.08641975308641976,0,0,0.08641975308641976,22.38271604938272,0)" xlink:href="#X"/><use transform="matrix(0.08641975308641976,0,0,0.08641975308641976,29.20987654320988,0)" xlink:href="#U"/><use transform="matrix(0.08641975308641976,0,0,0.08641975308641976,46.49382716049383,0)" xlink:href="#Y"/><use transform="matrix(0.08641975308641976,0,0,0.08641975308641976,63.777777777777786,0)" xlink:href="#Z"/><use transform="matrix(0.08641975308641976,0,0,0.08641975308641976,74.06172839506173,0)" xlink:href="#U"/><use transform="matrix(0.08641975308641976,0,0,0.08641975308641976,91.34567901234568,0)" xlink:href="#aa"/><path d="M-1.56 2.16h120.3v2.28H-1.56z"/></g><path d="M18-100v-36l175-74v27L42-118l151 64v27" id="ab"/><path d="M205 0l-28-72H64L36 0H1l101-248h38L239 0h-34zm-38-99l-47-123c-12 45-31 82-46 123h93" id="ac"/><path d="M30 0v-248h187v28H63v79h144v27H63v87h162V0H30" id="ad"/><path d="M185-189c-5-48-123-54-124 2 14 75 158 14 163 119 3 78-121 87-175 55-17-10-28-26-33-46l33-7c5 56 141 63 141-1 0-78-155-14-162-118-5-82 145-84 179-34 5 7 8 16 11 25" id="ae"/><path d="M18-27v-27l151-64-151-65v-27l175 74v36" id="af"/><g id="c"><use transform="matrix(0.05,0,0,0.05,0,0)" xlink:href="#ab"/><use transform="matrix(0.05,0,0,0.05,10.5,0)" xlink:href="#ab"/><use transform="matrix(0.05,0,0,0.05,21,0)" xlink:href="#ac"/><use transform="matrix(0.05,0,0,0.05,33,0)" xlink:href="#ad"/><use transform="matrix(0.05,0,0,0.05,45,0)" xlink:href="#ae"/><use transform="matrix(0.05,0,0,0.05,57,0)" xlink:href="#af"/><use transform="matrix(0.05,0,0,0.05,67.5,0)" xlink:href="#af"/></g><path d="M118-107v75H92v-75H18v-26h74v-75h26v75h74v26h-74" id="ag"/><use transform="matrix(0.05,0,0,0.05,0,0)" xlink:href="#ag" id="d"/><path d="M190 0L58-211 59 0H30v-248h39L202-35l-2-213h31V0h-41" id="ah"/><path d="M115-194c53 0 69 39 70 98 0 66-23 100-70 100C84 3 66-7 56-30L54 0H23l1-261h32v101c10-23 28-34 59-34zm-8 174c40 0 45-34 45-75 0-40-5-75-45-74-42 0-51 32-51 76 0 43 10 73 51 73" id="ai"/><path d="M33-154v-36h34v36H33zM33 0v-36h34V0H33" id="aj"/><path d="M117-194c89-4 53 116 60 194h-32v-121c0-31-8-49-39-48C34-167 62-67 57 0H25l-1-190h30c1 10-1 24 2 32 11-22 29-35 61-36" id="ak"/><path d="M84 4C-5 8 30-112 23-190h32v120c0 31 7 50 39 49 72-2 45-101 50-169h31l1 190h-30c-1-10 1-25-2-33-11 22-28 36-60 37" id="al"/><path d="M115-194c55 1 70 41 70 98S169 2 115 4C84 4 66-9 55-30l1 105H24l-1-265h31l2 30c10-21 28-34 59-34zm-8 174c40 0 45-34 45-75s-6-73-45-74c-42 0-51 32-51 76 0 43 10 73 51 73" id="am"/><path d="M179-190L93 31C79 59 56 82 12 73V49c39 6 53-20 64-50L1-190h34L92-34l54-156h33" id="an"/><path d="M33 0v-38h34V0H33" id="ao"/><path d="M59-47c-2 24 18 29 38 22v24C64 9 27 4 27-40v-127H5v-23h24l9-43h21v43h35v23H59v120" id="ap"/><path d="M134-131c28 9 52 24 51 62-1 50-34 73-85 73S17-19 16-69c0-36 21-54 49-61-75-25-45-126 34-121 46 3 78 18 79 63 0 33-17 51-44 57zm-34-11c31 1 46-15 46-44 0-28-17-43-47-42-29 0-46 13-45 42 1 28 16 44 46 44zm1 122c35 0 51-18 51-52 0-30-18-46-53-46-33 0-51 17-51 47 0 34 19 51 53 51" id="aq"/><g id="e"><use transform="matrix(0.05,0,0,0.05,0,0)" xlink:href="#ah"/><use transform="matrix(0.05,0,0,0.05,12.950000000000001,0)" xlink:href="#ai"/><use transform="matrix(0.05,0,0,0.05,22.950000000000003,0)" xlink:href="#aj"/><use transform="matrix(0.05,0,0,0.05,27.950000000000003,0)" xlink:href="#ak"/><use transform="matrix(0.05,0,0,0.05,37.95,0)" xlink:href="#al"/><use transform="matrix(0.05,0,0,0.05,47.95,0)" xlink:href="#aa"/><use transform="matrix(0.05,0,0,0.05,62.900000000000006,0)" xlink:href="#am"/><use transform="matrix(0.05,0,0,0.05,72.9,0)" xlink:href="#an"/><use transform="matrix(0.05,0,0,0.05,80.55000000000001,0)" xlink:href="#ao"/><use transform="matrix(0.05,0,0,0.05,85.55000000000001,0)" xlink:href="#al"/><use transform="matrix(0.05,0,0,0.05,95.55000000000001,0)" xlink:href="#X"/><use transform="matrix(0.05,0,0,0.05,99.50000000000001,0)" xlink:href="#ak"/><use transform="matrix(0.05,0,0,0.05,109.5,0)" xlink:href="#ap"/><use transform="matrix(0.05,0,0,0.05,114.5,0)" xlink:href="#aq"/></g><path d="M143 0L79-87 56-68V0H24v-261h32v163l83-92h37l-77 82L181 0h-38" id="ar"/><g id="f"><use transform="matrix(0.05,0,0,0.05,0,0)" xlink:href="#ah"/><use transform="matrix(0.05,0,0,0.05,12.950000000000001,0)" xlink:href="#ar"/><use transform="matrix(0.05,0,0,0.05,21.950000000000003,0)" xlink:href="#aj"/><use transform="matrix(0.05,0,0,0.05,26.950000000000003,0)" xlink:href="#ak"/><use transform="matrix(0.05,0,0,0.05,36.95,0)" xlink:href="#al"/><use transform="matrix(0.05,0,0,0.05,46.95,0)" xlink:href="#aa"/><use transform="matrix(0.05,0,0,0.05,61.900000000000006,0)" xlink:href="#am"/><use transform="matrix(0.05,0,0,0.05,71.9,0)" xlink:href="#an"/><use transform="matrix(0.05,0,0,0.05,79.55000000000001,0)" xlink:href="#ao"/><use transform="matrix(0.05,0,0,0.05,84.55000000000001,0)" xlink:href="#al"/><use transform="matrix(0.05,0,0,0.05,94.55000000000001,0)" xlink:href="#X"/><use transform="matrix(0.05,0,0,0.05,98.50000000000001,0)" xlink:href="#ak"/><use transform="matrix(0.05,0,0,0.05,108.5,0)" xlink:href="#ap"/><use transform="matrix(0.05,0,0,0.05,113.5,0)" xlink:href="#aq"/></g><g id="g"><use transform="matrix(0.05,0,0,0.05,0,0)" xlink:href="#ah"/><use transform="matrix(0.05,0,0,0.05,12.950000000000001,0)" xlink:href="#Z"/><use transform="matrix(0.05,0,0,0.05,18.900000000000002,0)" xlink:href="#aj"/><use transform="matrix(0.05,0,0,0.05,23.900000000000002,0)" xlink:href="#ak"/><use transform="matrix(0.05,0,0,0.05,33.900000000000006,0)" xlink:href="#al"/><use transform="matrix(0.05,0,0,0.05,43.900000000000006,0)" xlink:href="#aa"/><use transform="matrix(0.05,0,0,0.05,58.85,0)" xlink:href="#am"/><use transform="matrix(0.05,0,0,0.05,68.85000000000001,0)" xlink:href="#an"/><use transform="matrix(0.05,0,0,0.05,76.50000000000001,0)" xlink:href="#ao"/><use transform="matrix(0.05,0,0,0.05,81.50000000000001,0)" xlink:href="#al"/><use transform="matrix(0.05,0,0,0.05,91.50000000000001,0)" xlink:href="#X"/><use transform="matrix(0.05,0,0,0.05,95.45000000000002,0)" xlink:href="#ak"/><use transform="matrix(0.05,0,0,0.05,105.45,0)" xlink:href="#ap"/><use transform="matrix(0.05,0,0,0.05,110.45,0)" xlink:href="#aq"/></g><path d="M100-194c63 0 86 42 84 106H49c0 40 14 67 53 68 26 1 43-12 49-29l28 8c-11 28-37 45-77 45C44 4 14-33 15-96c1-61 26-98 85-98zm52 81c6-60-76-77-97-28-3 7-6 17-6 28h103" id="as"/><path d="M141 0L90-78 38 0H4l68-98-65-92h35l48 74 47-74h35l-64 92 68 98h-35" id="at"/><path d="M-5 72V49h209v23H-5" id="au"/><path d="M101-234c-31-9-42 10-38 44h38v23H63V0H32v-167H5v-23h27c-7-52 17-82 69-68v24" id="av"/><g id="h"><use transform="matrix(0.05,0,0,0.05,0,0)" xlink:href="#ap"/><use transform="matrix(0.05,0,0,0.05,5,0)" xlink:href="#as"/><use transform="matrix(0.05,0,0,0.05,15,0)" xlink:href="#at"/><use transform="matrix(0.05,0,0,0.05,24,0)" xlink:href="#ap"/><use transform="matrix(0.05,0,0,0.05,29,0)" xlink:href="#au"/><use transform="matrix(0.05,0,0,0.05,39,0)" xlink:href="#av"/><use transform="matrix(0.05,0,0,0.05,44,0)" xlink:href="#X"/><use transform="matrix(0.05,0,0,0.05,47.95,0)" xlink:href="#T"/><use transform="matrix(0.05,0,0,0.05,51.900000000000006,0)" xlink:href="#as"/><use transform="matrix(0.05,0,0,0.05,61.900000000000006,0)" xlink:href="#ak"/><use transform="matrix(0.05,0,0,0.05,71.9,0)" xlink:href="#U"/><use transform="matrix(0.05,0,0,0.05,81.9,0)" xlink:href="#aa"/><use transform="matrix(0.05,0,0,0.05,96.85000000000001,0)" xlink:href="#as"/><use transform="matrix(0.05,0,0,0.05,106.85000000000001,0)" xlink:href="#aj"/><use transform="matrix(0.05,0,0,0.05,111.85000000000001,0)" xlink:href="#V"/><use transform="matrix(0.05,0,0,0.05,120.85000000000001,0)" xlink:href="#ap"/><use transform="matrix(0.05,0,0,0.05,125.85000000000001,0)" xlink:href="#Z"/><use transform="matrix(0.05,0,0,0.05,131.8,0)" xlink:href="#X"/><use transform="matrix(0.05,0,0,0.05,135.75,0)" xlink:href="#ak"/><use transform="matrix(0.05,0,0,0.05,145.75,0)" xlink:href="#Y"/></g><g id="i"><use transform="matrix(0.05,0,0,0.05,0,0)" xlink:href="#ar"/><use transform="matrix(0.05,0,0,0.05,9,0)" xlink:href="#as"/><use transform="matrix(0.05,0,0,0.05,19,0)" xlink:href="#an"/><use transform="matrix(0.05,0,0,0.05,28,0)" xlink:href="#au"/><use transform="matrix(0.05,0,0,0.05,38,0)" xlink:href="#av"/><use transform="matrix(0.05,0,0,0.05,43,0)" xlink:href="#X"/><use transform="matrix(0.05,0,0,0.05,46.95,0)" xlink:href="#T"/><use transform="matrix(0.05,0,0,0.05,50.900000000000006,0)" xlink:href="#as"/><use transform="matrix(0.05,0,0,0.05,60.900000000000006,0)" xlink:href="#ak"/><use transform="matrix(0.05,0,0,0.05,70.9,0)" xlink:href="#U"/><use transform="matrix(0.05,0,0,0.05,80.9,0)" xlink:href="#aa"/><use transform="matrix(0.05,0,0,0.05,95.85000000000001,0)" xlink:href="#as"/><use transform="matrix(0.05,0,0,0.05,105.85000000000001,0)" xlink:href="#aj"/><use transform="matrix(0.05,0,0,0.05,110.85000000000001,0)" xlink:href="#V"/><use transform="matrix(0.05,0,0,0.05,119.85000000000001,0)" xlink:href="#ap"/><use transform="matrix(0.05,0,0,0.05,124.85000000000001,0)" xlink:href="#Z"/><use transform="matrix(0.05,0,0,0.05,130.8,0)" xlink:href="#X"/><use transform="matrix(0.05,0,0,0.05,134.75,0)" xlink:href="#ak"/><use transform="matrix(0.05,0,0,0.05,144.75,0)" xlink:href="#Y"/></g><path d="M140-251c81 0 123 46 123 126C263-46 219 4 140 4 59 4 17-45 17-125s42-126 123-126zm0 227c63 0 89-41 89-101s-29-99-89-99c-61 0-89 39-89 99S79-25 140-24" id="aw"/><path d="M63-220v92h138v28H63V0H30v-248h175v28H63" id="ax"/><g id="j"><use transform="matrix(0.05,0,0,0.05,0,0)" xlink:href="#aw"/><use transform="matrix(0.05,0,0,0.05,14,0)" xlink:href="#al"/><use transform="matrix(0.05,0,0,0.05,24,0)" xlink:href="#ap"/><use transform="matrix(0.05,0,0,0.05,29,0)" xlink:href="#ax"/><use transform="matrix(0.05,0,0,0.05,39.95,0)" xlink:href="#X"/><use transform="matrix(0.05,0,0,0.05,43.900000000000006,0)" xlink:href="#T"/><use transform="matrix(0.05,0,0,0.05,47.85000000000001,0)" xlink:href="#as"/><use transform="matrix(0.05,0,0,0.05,57.85,0)" xlink:href="#ah"/><use transform="matrix(0.05,0,0,0.05,70.80000000000001,0)" xlink:href="#U"/><use transform="matrix(0.05,0,0,0.05,80.80000000000001,0)" xlink:href="#aa"/><use transform="matrix(0.05,0,0,0.05,95.75000000000001,0)" xlink:href="#as"/><use transform="matrix(0.05,0,0,0.05,105.75,0)" xlink:href="#aj"/><use transform="matrix(0.05,0,0,0.05,110.75,0)" xlink:href="#V"/><use transform="matrix(0.05,0,0,0.05,119.75,0)" xlink:href="#ap"/><use transform="matrix(0.05,0,0,0.05,124.75,0)" xlink:href="#Z"/><use transform="matrix(0.05,0,0,0.05,130.70000000000002,0)" xlink:href="#X"/><use transform="matrix(0.05,0,0,0.05,134.65,0)" xlink:href="#ak"/><use transform="matrix(0.05,0,0,0.05,144.65,0)" xlink:href="#Y"/></g><path d="M87 75C49 33 22-17 22-94c0-76 28-126 65-167h31c-38 41-64 92-64 168S80 34 118 75H87" id="ay"/><path d="M68-38c1 34 0 65-14 84H32c9-13 17-26 17-46H33v-38h35" id="az"/><path d="M33-261c38 41 65 92 65 168S71 34 33 75H2C39 34 66-17 66-93S39-220 2-261h31" id="aA"/><g id="k"><use transform="matrix(0.05,0,0,0.05,0,0)" xlink:href="#ac"/><use transform="matrix(0.05,0,0,0.05,12,0)" xlink:href="#ad"/><use transform="matrix(0.05,0,0,0.05,24,0)" xlink:href="#ae"/><use transform="matrix(0.05,0,0,0.05,36,0)" xlink:href="#ay"/><use transform="matrix(0.05,0,0,0.05,41.95,0)" xlink:href="#ak"/><use transform="matrix(0.05,0,0,0.05,51.95,0)" xlink:href="#al"/><use transform="matrix(0.05,0,0,0.05,61.95,0)" xlink:href="#aa"/><use transform="matrix(0.05,0,0,0.05,76.9,0)" xlink:href="#am"/><use transform="matrix(0.05,0,0,0.05,86.9,0)" xlink:href="#an"/><use transform="matrix(0.05,0,0,0.05,94.55000000000001,0)" xlink:href="#ao"/><use transform="matrix(0.05,0,0,0.05,99.55000000000001,0)" xlink:href="#al"/><use transform="matrix(0.05,0,0,0.05,109.55000000000001,0)" xlink:href="#X"/><use transform="matrix(0.05,0,0,0.05,113.5,0)" xlink:href="#ak"/><use transform="matrix(0.05,0,0,0.05,123.5,0)" xlink:href="#ap"/><use transform="matrix(0.05,0,0,0.05,128.5,0)" xlink:href="#aq"/><use transform="matrix(0.05,0,0,0.05,138.5,0)" xlink:href="#az"/><use transform="matrix(0.05,0,0,0.05,143.5,0)" xlink:href="#ak"/><use transform="matrix(0.05,0,0,0.05,153.5,0)" xlink:href="#al"/><use transform="matrix(0.05,0,0,0.05,163.5,0)" xlink:href="#aa"/><use transform="matrix(0.05,0,0,0.05,178.45,0)" xlink:href="#am"/><use transform="matrix(0.05,0,0,0.05,188.45,0)" xlink:href="#an"/><use transform="matrix(0.05,0,0,0.05,196.1,0)" xlink:href="#ao"/><use transform="matrix(0.05,0,0,0.05,201.1,0)" xlink:href="#al"/><use transform="matrix(0.05,0,0,0.05,211.10000000000002,0)" xlink:href="#X"/><use transform="matrix(0.05,0,0,0.05,215.04999999999995,0)" xlink:href="#ak"/><use transform="matrix(0.05,0,0,0.05,225.04999999999995,0)" xlink:href="#ap"/><use transform="matrix(0.05,0,0,0.05,230.04999999999995,0)" xlink:href="#aq"/><use transform="matrix(0.05,0,0,0.05,240.04999999999995,0)" xlink:href="#az"/><use transform="matrix(0.05,0,0,0.05,245.04999999999995,0)" xlink:href="#V"/><use transform="matrix(0.05,0,0,0.05,254.04999999999995,0)" xlink:href="#ap"/><use transform="matrix(0.05,0,0,0.05,259.04999999999995,0)" xlink:href="#Z"/><use transform="matrix(0.05,0,0,0.05,264.99999999999994,0)" xlink:href="#X"/><use transform="matrix(0.05,0,0,0.05,268.94999999999993,0)" xlink:href="#ak"/><use transform="matrix(0.05,0,0,0.05,278.94999999999993,0)" xlink:href="#Y"/><use transform="matrix(0.05,0,0,0.05,288.94999999999993,0)" xlink:href="#az"/><use transform="matrix(0.05,0,0,0.05,293.94999999999993,0)" xlink:href="#V"/><use transform="matrix(0.05,0,0,0.05,302.94999999999993,0)" xlink:href="#ap"/><use transform="matrix(0.05,0,0,0.05,307.94999999999993,0)" xlink:href="#Z"/><use transform="matrix(0.05,0,0,0.05,313.8999999999999,0)" xlink:href="#X"/><use transform="matrix(0.05,0,0,0.05,317.8499999999999,0)" xlink:href="#ak"/><use transform="matrix(0.05,0,0,0.05,327.8499999999999,0)" xlink:href="#Y"/><use transform="matrix(0.05,0,0,0.05,337.8499999999999,0)" xlink:href="#az"/><use transform="matrix(0.05,0,0,0.05,342.8499999999999,0)" xlink:href="#V"/><use transform="matrix(0.05,0,0,0.05,351.8499999999999,0)" xlink:href="#ap"/><use transform="matrix(0.05,0,0,0.05,356.8499999999999,0)" xlink:href="#Z"/><use transform="matrix(0.05,0,0,0.05,362.7999999999999,0)" xlink:href="#X"/><use transform="matrix(0.05,0,0,0.05,366.7499999999999,0)" xlink:href="#ak"/><use transform="matrix(0.05,0,0,0.05,376.7499999999999,0)" xlink:href="#Y"/><use transform="matrix(0.05,0,0,0.05,386.7499999999999,0)" xlink:href="#aA"/></g><path d="M106-169C34-169 62-67 57 0H25v-261h32l-1 103c12-21 28-36 61-36 89 0 53 116 60 194h-32v-121c2-32-8-49-39-48" id="aB"/><g id="l"><use transform="matrix(0.05,0,0,0.05,0,0)" xlink:href="#V"/><use transform="matrix(0.05,0,0,0.05,9,0)" xlink:href="#aB"/><use transform="matrix(0.05,0,0,0.05,19,0)" xlink:href="#X"/><use transform="matrix(0.05,0,0,0.05,22.95,0)" xlink:href="#av"/><use transform="matrix(0.05,0,0,0.05,27.950000000000003,0)" xlink:href="#ap"/><use transform="matrix(0.05,0,0,0.05,32.95,0)" xlink:href="#ay"/><use transform="matrix(0.05,0,0,0.05,38.900000000000006,0)" xlink:href="#ak"/><use transform="matrix(0.05,0,0,0.05,48.900000000000006,0)" xlink:href="#al"/><use transform="matrix(0.05,0,0,0.05,58.900000000000006,0)" xlink:href="#aa"/><use transform="matrix(0.05,0,0,0.05,73.85000000000001,0)" xlink:href="#am"/><use transform="matrix(0.05,0,0,0.05,83.85000000000001,0)" xlink:href="#an"/><use transform="matrix(0.05,0,0,0.05,91.50000000000001,0)" xlink:href="#ao"/><use transform="matrix(0.05,0,0,0.05,96.50000000000001,0)" xlink:href="#al"/><use transform="matrix(0.05,0,0,0.05,106.5,0)" xlink:href="#X"/><use transform="matrix(0.05,0,0,0.05,110.45,0)" xlink:href="#ak"/><use transform="matrix(0.05,0,0,0.05,120.45,0)" xlink:href="#ap"/><use transform="matrix(0.05,0,0,0.05,125.45,0)" xlink:href="#aq"/><use transform="matrix(0.05,0,0,0.05,135.45000000000002,0)" xlink:href="#az"/><use transform="matrix(0.05,0,0,0.05,140.45000000000002,0)" xlink:href="#ak"/><use transform="matrix(0.05,0,0,0.05,150.45000000000002,0)" xlink:href="#al"/><use transform="matrix(0.05,0,0,0.05,160.45000000000002,0)" xlink:href="#aa"/><use transform="matrix(0.05,0,0,0.05,175.4,0)" xlink:href="#am"/><use transform="matrix(0.05,0,0,0.05,185.4,0)" xlink:href="#an"/><use transform="matrix(0.05,0,0,0.05,193.05,0)" xlink:href="#ao"/><use transform="matrix(0.05,0,0,0.05,198.05,0)" xlink:href="#al"/><use transform="matrix(0.05,0,0,0.05,208.05,0)" xlink:href="#X"/><use transform="matrix(0.05,0,0,0.05,212,0)" xlink:href="#ak"/><use transform="matrix(0.05,0,0,0.05,222,0)" xlink:href="#ap"/><use transform="matrix(0.05,0,0,0.05,227,0)" xlink:href="#aq"/><use transform="matrix(0.05,0,0,0.05,237,0)" xlink:href="#aA"/></g><use transform="matrix(0.05,0,0,0.05,0,0)" xlink:href="#ag" id="m"/><path d="M100-194c62-1 85 37 85 99 1 63-27 99-86 99S16-35 15-95c0-66 28-99 85-99zM99-20c44 1 53-31 53-75 0-43-8-75-51-75s-53 32-53 75 10 74 51 75" id="aC"/><g id="n"><use transform="matrix(0.05,0,0,0.05,0,0)" xlink:href="#T"/><use transform="matrix(0.05,0,0,0.05,3.95,0)" xlink:href="#as"/><use transform="matrix(0.05,0,0,0.05,13.949999999999998,0)" xlink:href="#av"/><use transform="matrix(0.05,0,0,0.05,18.95,0)" xlink:href="#ap"/><use transform="matrix(0.05,0,0,0.05,23.95,0)" xlink:href="#ae"/><use transform="matrix(0.05,0,0,0.05,35.95,0)" xlink:href="#aB"/><use transform="matrix(0.05,0,0,0.05,45.95,0)" xlink:href="#X"/><use transform="matrix(0.05,0,0,0.05,49.900000000000006,0)" xlink:href="#av"/><use transform="matrix(0.05,0,0,0.05,54.900000000000006,0)" xlink:href="#ap"/><use transform="matrix(0.05,0,0,0.05,59.900000000000006,0)" xlink:href="#au"/><use transform="matrix(0.05,0,0,0.05,69.9,0)" xlink:href="#at"/><use transform="matrix(0.05,0,0,0.05,78.9,0)" xlink:href="#aC"/><use transform="matrix(0.05,0,0,0.05,88.9,0)" xlink:href="#Z"/><use transform="matrix(0.05,0,0,0.05,94.85000000000001,0)" xlink:href="#ay"/><use transform="matrix(0.05,0,0,0.05,100.80000000000001,0)" xlink:href="#ak"/><use transform="matrix(0.05,0,0,0.05,110.80000000000001,0)" xlink:href="#al"/><use transform="matrix(0.05,0,0,0.05,120.80000000000001,0)" xlink:href="#aa"/><use transform="matrix(0.05,0,0,0.05,135.75,0)" xlink:href="#am"/><use transform="matrix(0.05,0,0,0.05,145.75,0)" xlink:href="#an"/><use transform="matrix(0.05,0,0,0.05,153.4,0)" xlink:href="#ao"/><use transform="matrix(0.05,0,0,0.05,158.4,0)" xlink:href="#al"/><use transform="matrix(0.05,0,0,0.05,168.4,0)" xlink:href="#X"/><use transform="matrix(0.05,0,0,0.05,172.35,0)" xlink:href="#ak"/><use transform="matrix(0.05,0,0,0.05,182.35,0)" xlink:href="#ap"/><use transform="matrix(0.05,0,0,0.05,187.35,0)" xlink:href="#aq"/><use transform="matrix(0.05,0,0,0.05,197.35,0)" xlink:href="#aA"/><path d="M-.9 1.25h205.1v1.32H-.9z"/></g><path d="M85-194c31 0 48 13 60 33l-1-100h32l1 261h-30c-2-10 0-23-3-31C134-8 116 4 85 4 32 4 16-35 15-94c0-66 23-100 70-100zm9 24c-40 0-46 34-46 75 0 40 6 74 45 74 42 0 51-32 51-76 0-42-9-74-50-73" id="aD"/><g id="o"><use transform="matrix(0.05,0,0,0.05,0,0)" xlink:href="#U"/><use transform="matrix(0.05,0,0,0.05,10,0)" xlink:href="#aD"/><use transform="matrix(0.05,0,0,0.05,20,0)" xlink:href="#aD"/><use transform="matrix(0.05,0,0,0.05,30,0)" xlink:href="#au"/><use transform="matrix(0.05,0,0,0.05,40,0)" xlink:href="#Z"/><use transform="matrix(0.05,0,0,0.05,45.95,0)" xlink:href="#aC"/><use transform="matrix(0.05,0,0,0.05,55.95,0)" xlink:href="#al"/><use transform="matrix(0.05,0,0,0.05,65.95,0)" xlink:href="#ak"/><use transform="matrix(0.05,0,0,0.05,75.95,0)" xlink:href="#aD"/><use transform="matrix(0.05,0,0,0.05,85.95,0)" xlink:href="#au"/><use transform="matrix(0.05,0,0,0.05,95.95,0)" xlink:href="#ar"/><use transform="matrix(0.05,0,0,0.05,104.95,0)" xlink:href="#as"/><use transform="matrix(0.05,0,0,0.05,114.95,0)" xlink:href="#an"/><use transform="matrix(0.05,0,0,0.05,123.95,0)" xlink:href="#ay"/><use transform="matrix(0.05,0,0,0.05,129.9,0)" xlink:href="#ak"/><use transform="matrix(0.05,0,0,0.05,139.9,0)" xlink:href="#al"/><use transform="matrix(0.05,0,0,0.05,149.9,0)" xlink:href="#aa"/><use transform="matrix(0.05,0,0,0.05,164.85,0)" xlink:href="#am"/><use transform="matrix(0.05,0,0,0.05,174.85,0)" xlink:href="#an"/><use transform="matrix(0.05,0,0,0.05,182.5,0)" xlink:href="#ao"/><use transform="matrix(0.05,0,0,0.05,187.5,0)" xlink:href="#U"/><use transform="matrix(0.05,0,0,0.05,197.5,0)" xlink:href="#Z"/><use transform="matrix(0.05,0,0,0.05,203.45,0)" xlink:href="#Z"/><use transform="matrix(0.05,0,0,0.05,209.39999999999998,0)" xlink:href="#U"/><use transform="matrix(0.05,0,0,0.05,219.39999999999998,0)" xlink:href="#an"/><use transform="matrix(0.05,0,0,0.05,227.04999999999995,0)" xlink:href="#az"/><use transform="matrix(0.05,0,0,0.05,232.04999999999995,0)" xlink:href="#ak"/><use transform="matrix(0.05,0,0,0.05,242.04999999999995,0)" xlink:href="#al"/><use transform="matrix(0.05,0,0,0.05,252.04999999999995,0)" xlink:href="#aa"/><use transform="matrix(0.05,0,0,0.05,267,0)" xlink:href="#am"/><use transform="matrix(0.05,0,0,0.05,277,0)" xlink:href="#an"/><use transform="matrix(0.05,0,0,0.05,284.65,0)" xlink:href="#ao"/><use transform="matrix(0.05,0,0,0.05,289.65,0)" xlink:href="#U"/><use transform="matrix(0.05,0,0,0.05,299.65,0)" xlink:href="#Z"/><use transform="matrix(0.05,0,0,0.05,305.59999999999997,0)" xlink:href="#Z"/><use transform="matrix(0.05,0,0,0.05,311.54999999999995,0)" xlink:href="#U"/><use transform="matrix(0.05,0,0,0.05,321.54999999999995,0)" xlink:href="#an"/><use transform="matrix(0.05,0,0,0.05,330.54999999999995,0)" xlink:href="#aA"/></g><path d="M96-169c-40 0-48 33-48 73s9 75 48 75c24 0 41-14 43-38l32 2c-6 37-31 61-74 61-59 0-76-41-82-99-10-93 101-131 147-64 4 7 5 14 7 22l-32 3c-4-21-16-35-41-35" id="aE"/><g id="q"><use transform="matrix(0.05,0,0,0.05,0,0)" xlink:href="#ad"/><use transform="matrix(0.05,0,0,0.05,12,0)" xlink:href="#ak"/><use transform="matrix(0.05,0,0,0.05,22,0)" xlink:href="#aE"/><use transform="matrix(0.05,0,0,0.05,31,0)" xlink:href="#Z"/><use transform="matrix(0.05,0,0,0.05,36.95,0)" xlink:href="#an"/><use transform="matrix(0.05,0,0,0.05,45.95,0)" xlink:href="#am"/><use transform="matrix(0.05,0,0,0.05,55.95,0)" xlink:href="#ap"/><use transform="matrix(0.05,0,0,0.05,60.95,0)" xlink:href="#X"/><use transform="matrix(0.05,0,0,0.05,64.9,0)" xlink:href="#aC"/><use transform="matrix(0.05,0,0,0.05,74.9,0)" xlink:href="#ak"/></g><g id="r"><use transform="matrix(0.05,0,0,0.05,0,0)" xlink:href="#V"/><use transform="matrix(0.05,0,0,0.05,9,0)" xlink:href="#au"/><use transform="matrix(0.05,0,0,0.05,19,0)" xlink:href="#ai"/><use transform="matrix(0.05,0,0,0.05,29,0)" xlink:href="#aC"/><use transform="matrix(0.05,0,0,0.05,39,0)" xlink:href="#at"/><use transform="matrix(0.05,0,0,0.05,48,0)" xlink:href="#aj"/><use transform="matrix(0.05,0,0,0.05,53,0)" xlink:href="#ak"/><use transform="matrix(0.05,0,0,0.05,63,0)" xlink:href="#al"/><use transform="matrix(0.05,0,0,0.05,73,0)" xlink:href="#aa"/><use transform="matrix(0.05,0,0,0.05,87.95,0)" xlink:href="#am"/><use transform="matrix(0.05,0,0,0.05,97.95,0)" xlink:href="#an"/><use transform="matrix(0.05,0,0,0.05,105.60000000000001,0)" xlink:href="#ao"/><use transform="matrix(0.05,0,0,0.05,110.60000000000001,0)" xlink:href="#U"/><use transform="matrix(0.05,0,0,0.05,120.60000000000001,0)" xlink:href="#Z"/><use transform="matrix(0.05,0,0,0.05,126.55000000000001,0)" xlink:href="#Z"/><use transform="matrix(0.05,0,0,0.05,132.5,0)" xlink:href="#U"/><use transform="matrix(0.05,0,0,0.05,142.5,0)" xlink:href="#an"/></g><g id="s"><use transform="matrix(0.05,0,0,0.05,0,0)" xlink:href="#aa"/><use transform="matrix(0.05,0,0,0.05,14.950000000000001,0)" xlink:href="#X"/><use transform="matrix(0.05,0,0,0.05,18.900000000000002,0)" xlink:href="#at"/><use transform="matrix(0.05,0,0,0.05,27.900000000000002,0)" xlink:href="#aE"/><use transform="matrix(0.05,0,0,0.05,36.900000000000006,0)" xlink:href="#aC"/><use transform="matrix(0.05,0,0,0.05,46.900000000000006,0)" xlink:href="#T"/><use transform="matrix(0.05,0,0,0.05,50.85000000000001,0)" xlink:href="#al"/><use transform="matrix(0.05,0,0,0.05,60.85,0)" xlink:href="#aa"/><use transform="matrix(0.05,0,0,0.05,75.80000000000001,0)" xlink:href="#ak"/><use transform="matrix(0.05,0,0,0.05,85.80000000000001,0)" xlink:href="#au"/><use transform="matrix(0.05,0,0,0.05,95.80000000000001,0)" xlink:href="#aE"/><use transform="matrix(0.05,0,0,0.05,104.80000000000001,0)" xlink:href="#aC"/><use transform="matrix(0.05,0,0,0.05,114.80000000000001,0)" xlink:href="#ak"/><use transform="matrix(0.05,0,0,0.05,124.80000000000001,0)" xlink:href="#V"/><use transform="matrix(0.05,0,0,0.05,133.8,0)" xlink:href="#ap"/><use transform="matrix(0.05,0,0,0.05,138.8,0)" xlink:href="#aj"/><use transform="matrix(0.05,0,0,0.05,143.8,0)" xlink:href="#ak"/><use transform="matrix(0.05,0,0,0.05,153.8,0)" xlink:href="#al"/><use transform="matrix(0.05,0,0,0.05,163.8,0)" xlink:href="#aa"/><use transform="matrix(0.05,0,0,0.05,178.75,0)" xlink:href="#am"/><use transform="matrix(0.05,0,0,0.05,188.75,0)" xlink:href="#an"/><use transform="matrix(0.05,0,0,0.05,196.4,0)" xlink:href="#ao"/><use transform="matrix(0.05,0,0,0.05,201.4,0)" xlink:href="#U"/><use transform="matrix(0.05,0,0,0.05,211.4,0)" xlink:href="#Z"/><use transform="matrix(0.05,0,0,0.05,217.35000000000002,0)" xlink:href="#Z"/><use transform="matrix(0.05,0,0,0.05,223.29999999999995,0)" xlink:href="#U"/><use transform="matrix(0.05,0,0,0.05,233.29999999999995,0)" xlink:href="#an"/></g><g id="t"><use transform="matrix(0.05,0,0,0.05,0,0)" xlink:href="#as"/><use transform="matrix(0.05,0,0,0.05,10,0)" xlink:href="#at"/><use transform="matrix(0.05,0,0,0.05,19,0)" xlink:href="#am"/><use transform="matrix(0.05,0,0,0.05,29,0)" xlink:href="#U"/><use transform="matrix(0.05,0,0,0.05,39,0)" xlink:href="#ak"/><use transform="matrix(0.05,0,0,0.05,49,0)" xlink:href="#aD"/><use transform="matrix(0.05,0,0,0.05,59,0)" xlink:href="#as"/><use transform="matrix(0.05,0,0,0.05,69,0)" xlink:href="#aD"/><use transform="matrix(0.05,0,0,0.05,79,0)" xlink:href="#au"/><use transform="matrix(0.05,0,0,0.05,89,0)" xlink:href="#ar"/><use transform="matrix(0.05,0,0,0.05,98,0)" xlink:href="#as"/><use transform="matrix(0.05,0,0,0.05,108,0)" xlink:href="#an"/><use transform="matrix(0.05,0,0,0.05,117,0)" xlink:href="#aj"/><use transform="matrix(0.05,0,0,0.05,122,0)" xlink:href="#ak"/><use transform="matrix(0.05,0,0,0.05,132,0)" xlink:href="#al"/><use transform="matrix(0.05,0,0,0.05,142,0)" xlink:href="#aa"/><use transform="matrix(0.05,0,0,0.05,156.95,0)" xlink:href="#am"/><use transform="matrix(0.05,0,0,0.05,166.95,0)" xlink:href="#an"/><use transform="matrix(0.05,0,0,0.05,174.6,0)" xlink:href="#ao"/><use transform="matrix(0.05,0,0,0.05,179.6,0)" xlink:href="#U"/><use transform="matrix(0.05,0,0,0.05,189.6,0)" xlink:href="#Z"/><use transform="matrix(0.05,0,0,0.05,195.54999999999998,0)" xlink:href="#Z"/><use transform="matrix(0.05,0,0,0.05,201.49999999999997,0)" xlink:href="#U"/><use transform="matrix(0.05,0,0,0.05,211.49999999999997,0)" xlink:href="#an"/></g><g id="u"><use transform="matrix(0.05,0,0,0.05,0,0)" xlink:href="#ad"/><use transform="matrix(0.05,0,0,0.05,12,0)" xlink:href="#ak"/><use transform="matrix(0.05,0,0,0.05,22,0)" xlink:href="#aE"/><use transform="matrix(0.05,0,0,0.05,31,0)" xlink:href="#Z"/><use transform="matrix(0.05,0,0,0.05,36.95,0)" xlink:href="#an"/><use transform="matrix(0.05,0,0,0.05,45.95,0)" xlink:href="#am"/><use transform="matrix(0.05,0,0,0.05,55.95,0)" xlink:href="#ap"/><use transform="matrix(0.05,0,0,0.05,60.95,0)" xlink:href="#X"/><use transform="matrix(0.05,0,0,0.05,64.9,0)" xlink:href="#aC"/><use transform="matrix(0.05,0,0,0.05,74.9,0)" xlink:href="#ak"/><use transform="matrix(0.05,0,0,0.05,84.9,0)" xlink:href="#ay"/><use transform="matrix(0.05,0,0,0.05,90.85000000000001,0)" xlink:href="#ak"/><use transform="matrix(0.05,0,0,0.05,100.85000000000001,0)" xlink:href="#al"/><use transform="matrix(0.05,0,0,0.05,110.85000000000001,0)" xlink:href="#aa"/><use transform="matrix(0.05,0,0,0.05,125.80000000000001,0)" xlink:href="#am"/><use transform="matrix(0.05,0,0,0.05,135.8,0)" xlink:href="#an"/><use transform="matrix(0.05,0,0,0.05,143.45000000000002,0)" xlink:href="#ao"/><use transform="matrix(0.05,0,0,0.05,148.45000000000002,0)" xlink:href="#al"/><use transform="matrix(0.05,0,0,0.05,158.45000000000002,0)" xlink:href="#X"/><use transform="matrix(0.05,0,0,0.05,162.4,0)" xlink:href="#ak"/><use transform="matrix(0.05,0,0,0.05,172.4,0)" xlink:href="#ap"/><use transform="matrix(0.05,0,0,0.05,177.4,0)" xlink:href="#aq"/><use transform="matrix(0.05,0,0,0.05,187.4,0)" xlink:href="#az"/><use transform="matrix(0.05,0,0,0.05,192.4,0)" xlink:href="#ak"/><use transform="matrix(0.05,0,0,0.05,202.4,0)" xlink:href="#al"/><use transform="matrix(0.05,0,0,0.05,212.4,0)" xlink:href="#aa"/><use transform="matrix(0.05,0,0,0.05,227.35000000000002,0)" xlink:href="#am"/><use transform="matrix(0.05,0,0,0.05,237.35000000000002,0)" xlink:href="#an"/><use transform="matrix(0.05,0,0,0.05,245,0)" xlink:href="#ao"/><use transform="matrix(0.05,0,0,0.05,250,0)" xlink:href="#al"/><use transform="matrix(0.05,0,0,0.05,260,0)" xlink:href="#X"/><use transform="matrix(0.05,0,0,0.05,263.95,0)" xlink:href="#ak"/><use transform="matrix(0.05,0,0,0.05,273.95,0)" xlink:href="#ap"/><use transform="matrix(0.05,0,0,0.05,278.95,0)" xlink:href="#aq"/><use transform="matrix(0.05,0,0,0.05,288.95,0)" xlink:href="#az"/><use transform="matrix(0.05,0,0,0.05,293.95,0)" xlink:href="#V"/><use transform="matrix(0.05,0,0,0.05,302.95,0)" xlink:href="#ap"/><use transform="matrix(0.05,0,0,0.05,307.95,0)" xlink:href="#Z"/><use transform="matrix(0.05,0,0,0.05,313.9,0)" xlink:href="#X"/><use transform="matrix(0.05,0,0,0.05,317.84999999999997,0)" xlink:href="#ak"/><use transform="matrix(0.05,0,0,0.05,327.84999999999997,0)" xlink:href="#Y"/><use transform="matrix(0.05,0,0,0.05,337.84999999999997,0)" xlink:href="#az"/><use transform="matrix(0.05,0,0,0.05,342.84999999999997,0)" xlink:href="#V"/><use transform="matrix(0.05,0,0,0.05,351.84999999999997,0)" xlink:href="#ap"/><use transform="matrix(0.05,0,0,0.05,356.84999999999997,0)" xlink:href="#Z"/><use transform="matrix(0.05,0,0,0.05,362.79999999999995,0)" xlink:href="#X"/><use transform="matrix(0.05,0,0,0.05,366.74999999999994,0)" xlink:href="#ak"/><use transform="matrix(0.05,0,0,0.05,376.74999999999994,0)" xlink:href="#Y"/><use transform="matrix(0.05,0,0,0.05,386.74999999999994,0)" xlink:href="#az"/><use transform="matrix(0.05,0,0,0.05,391.74999999999994,0)" xlink:href="#V"/><use transform="matrix(0.05,0,0,0.05,400.74999999999994,0)" xlink:href="#ap"/><use transform="matrix(0.05,0,0,0.05,405.74999999999994,0)" xlink:href="#Z"/><use transform="matrix(0.05,0,0,0.05,411.69999999999993,0)" xlink:href="#X"/><use transform="matrix(0.05,0,0,0.05,415.6499999999999,0)" xlink:href="#ak"/><use transform="matrix(0.05,0,0,0.05,425.6499999999999,0)" xlink:href="#Y"/><use transform="matrix(0.05,0,0,0.05,435.6499999999999,0)" xlink:href="#aA"/></g><g id="v"><use transform="matrix(0.05,0,0,0.05,0,0)" xlink:href="#ai"/><use transform="matrix(0.05,0,0,0.05,10,0)" xlink:href="#an"/><use transform="matrix(0.05,0,0,0.05,19,0)" xlink:href="#ap"/><use transform="matrix(0.05,0,0,0.05,24,0)" xlink:href="#as"/><use transform="matrix(0.05,0,0,0.05,34,0)" xlink:href="#au"/><use transform="matrix(0.05,0,0,0.05,44,0)" xlink:href="#V"/><use transform="matrix(0.05,0,0,0.05,53,0)" xlink:href="#al"/><use transform="matrix(0.05,0,0,0.05,63,0)" xlink:href="#ai"/><use transform="matrix(0.05,0,0,0.05,73,0)" xlink:href="#V"/><use transform="matrix(0.05,0,0,0.05,82,0)" xlink:href="#ap"/><use transform="matrix(0.05,0,0,0.05,87,0)" xlink:href="#X"/><use transform="matrix(0.05,0,0,0.05,90.95,0)" xlink:href="#ap"/><use transform="matrix(0.05,0,0,0.05,95.95,0)" xlink:href="#al"/><use transform="matrix(0.05,0,0,0.05,105.95,0)" xlink:href="#ap"/><use transform="matrix(0.05,0,0,0.05,110.95,0)" xlink:href="#X"/><use transform="matrix(0.05,0,0,0.05,114.9,0)" xlink:href="#aC"/><use transform="matrix(0.05,0,0,0.05,124.9,0)" xlink:href="#ak"/><use transform="matrix(0.05,0,0,0.05,134.9,0)" xlink:href="#ay"/><use transform="matrix(0.05,0,0,0.05,140.85,0)" xlink:href="#X"/><use transform="matrix(0.05,0,0,0.05,144.79999999999998,0)" xlink:href="#ak"/><use transform="matrix(0.05,0,0,0.05,154.79999999999998,0)" xlink:href="#ap"/><use transform="matrix(0.05,0,0,0.05,159.79999999999998,0)" xlink:href="#aA"/></g><g id="w"><use transform="matrix(0.05,0,0,0.05,0,0)" xlink:href="#X"/><use transform="matrix(0.05,0,0,0.05,3.95,0)" xlink:href="#ak"/><use transform="matrix(0.05,0,0,0.05,13.949999999999998,0)" xlink:href="#am"/><use transform="matrix(0.05,0,0,0.05,23.95,0)" xlink:href="#al"/><use transform="matrix(0.05,0,0,0.05,33.95,0)" xlink:href="#ap"/><use transform="matrix(0.05,0,0,0.05,38.95,0)" xlink:href="#au"/><use transform="matrix(0.05,0,0,0.05,48.95,0)" xlink:href="#ap"/><use transform="matrix(0.05,0,0,0.05,53.95,0)" xlink:href="#as"/><use transform="matrix(0.05,0,0,0.05,63.95,0)" xlink:href="#at"/><use transform="matrix(0.05,0,0,0.05,72.95,0)" xlink:href="#ap"/><use transform="matrix(0.05,0,0,0.05,77.95,0)" xlink:href="#ay"/><use transform="matrix(0.05,0,0,0.05,83.9,0)" xlink:href="#V"/><use transform="matrix(0.05,0,0,0.05,92.9,0)" xlink:href="#ap"/><use transform="matrix(0.05,0,0,0.05,97.9,0)" xlink:href="#Z"/><use transform="matrix(0.05,0,0,0.05,103.85000000000001,0)" xlink:href="#X"/><use transform="matrix(0.05,0,0,0.05,107.80000000000001,0)" xlink:href="#ak"/><use transform="matrix(0.05,0,0,0.05,117.80000000000001,0)" xlink:href="#Y"/><use transform="matrix(0.05,0,0,0.05,127.80000000000001,0)" xlink:href="#aA"/></g><path d="M206 0h-36l-40-164L89 0H53L-1-190h32L70-26l43-164h34l41 164 42-164h31" id="aF"/><g id="x"><use transform="matrix(0.05,0,0,0.05,0,0)" xlink:href="#V"/><use transform="matrix(0.05,0,0,0.05,9,0)" xlink:href="#aB"/><use transform="matrix(0.05,0,0,0.05,19,0)" xlink:href="#X"/><use transform="matrix(0.05,0,0,0.05,22.95,0)" xlink:href="#av"/><use transform="matrix(0.05,0,0,0.05,27.950000000000003,0)" xlink:href="#ap"/><use transform="matrix(0.05,0,0,0.05,32.95,0)" xlink:href="#Z"/><use transform="matrix(0.05,0,0,0.05,38.900000000000006,0)" xlink:href="#aC"/><use transform="matrix(0.05,0,0,0.05,48.900000000000006,0)" xlink:href="#aF"/><use transform="matrix(0.05,0,0,0.05,61.85,0)" xlink:href="#V"/><use transform="matrix(0.05,0,0,0.05,70.85000000000001,0)" xlink:href="#ay"/><use transform="matrix(0.05,0,0,0.05,76.80000000000001,0)" xlink:href="#ak"/><use transform="matrix(0.05,0,0,0.05,86.80000000000001,0)" xlink:href="#al"/><use transform="matrix(0.05,0,0,0.05,96.80000000000001,0)" xlink:href="#aa"/><use transform="matrix(0.05,0,0,0.05,111.75,0)" xlink:href="#am"/><use transform="matrix(0.05,0,0,0.05,121.75,0)" xlink:href="#an"/><use transform="matrix(0.05,0,0,0.05,129.40000000000003,0)" xlink:href="#ao"/><use transform="matrix(0.05,0,0,0.05,134.40000000000003,0)" xlink:href="#U"/><use transform="matrix(0.05,0,0,0.05,144.40000000000003,0)" xlink:href="#Z"/><use transform="matrix(0.05,0,0,0.05,150.35000000000002,0)" xlink:href="#Z"/><use transform="matrix(0.05,0,0,0.05,156.3,0)" xlink:href="#U"/><use transform="matrix(0.05,0,0,0.05,166.3,0)" xlink:href="#an"/><use transform="matrix(0.05,0,0,0.05,175.3,0)" xlink:href="#aA"/></g><g id="y"><use transform="matrix(0.05,0,0,0.05,0,0)" xlink:href="#aa"/><use transform="matrix(0.05,0,0,0.05,14.950000000000001,0)" xlink:href="#X"/><use transform="matrix(0.05,0,0,0.05,18.900000000000002,0)" xlink:href="#at"/><use transform="matrix(0.05,0,0,0.05,27.900000000000002,0)" xlink:href="#au"/><use transform="matrix(0.05,0,0,0.05,37.900000000000006,0)" xlink:href="#aE"/><use transform="matrix(0.05,0,0,0.05,46.900000000000006,0)" xlink:href="#aC"/><use transform="matrix(0.05,0,0,0.05,56.900000000000006,0)" xlink:href="#T"/><use transform="matrix(0.05,0,0,0.05,60.85,0)" xlink:href="#al"/><use transform="matrix(0.05,0,0,0.05,70.85000000000001,0)" xlink:href="#aa"/><use transform="matrix(0.05,0,0,0.05,85.80000000000001,0)" xlink:href="#ak"/><use transform="matrix(0.05,0,0,0.05,95.80000000000001,0)" xlink:href="#V"/><use transform="matrix(0.05,0,0,0.05,104.80000000000001,0)" xlink:href="#ay"/><use transform="matrix(0.05,0,0,0.05,110.75,0)" xlink:href="#ak"/><use transform="matrix(0.05,0,0,0.05,120.75,0)" xlink:href="#al"/><use transform="matrix(0.05,0,0,0.05,130.75,0)" xlink:href="#aa"/><use transform="matrix(0.05,0,0,0.05,145.7,0)" xlink:href="#am"/><use transform="matrix(0.05,0,0,0.05,155.7,0)" xlink:href="#an"/><use transform="matrix(0.05,0,0,0.05,163.35,0)" xlink:href="#ao"/><use transform="matrix(0.05,0,0,0.05,168.35,0)" xlink:href="#U"/><use transform="matrix(0.05,0,0,0.05,178.35,0)" xlink:href="#Z"/><use transform="matrix(0.05,0,0,0.05,184.29999999999998,0)" xlink:href="#Z"/><use transform="matrix(0.05,0,0,0.05,190.24999999999997,0)" xlink:href="#U"/><use transform="matrix(0.05,0,0,0.05,200.24999999999997,0)" xlink:href="#an"/><use transform="matrix(0.05,0,0,0.05,207.89999999999998,0)" xlink:href="#az"/><use transform="matrix(0.05,0,0,0.05,212.89999999999998,0)" xlink:href="#ak"/><use transform="matrix(0.05,0,0,0.05,222.89999999999998,0)" xlink:href="#al"/><use transform="matrix(0.05,0,0,0.05,232.89999999999998,0)" xlink:href="#aa"/><use transform="matrix(0.05,0,0,0.05,247.84999999999997,0)" xlink:href="#am"/><use transform="matrix(0.05,0,0,0.05,257.84999999999997,0)" xlink:href="#an"/><use transform="matrix(0.05,0,0,0.05,265.49999999999994,0)" xlink:href="#ao"/><use transform="matrix(0.05,0,0,0.05,270.49999999999994,0)" xlink:href="#U"/><use transform="matrix(0.05,0,0,0.05,280.49999999999994,0)" xlink:href="#Z"/><use transform="matrix(0.05,0,0,0.05,286.44999999999993,0)" xlink:href="#Z"/><use transform="matrix(0.05,0,0,0.05,292.3999999999999,0)" xlink:href="#U"/><use transform="matrix(0.05,0,0,0.05,302.3999999999999,0)" xlink:href="#an"/><use transform="matrix(0.05,0,0,0.05,311.3999999999999,0)" xlink:href="#aA"/></g><g id="z"><use transform="matrix(0.05,0,0,0.05,0,0)" xlink:href="#V"/><use transform="matrix(0.05,0,0,0.05,9,0)" xlink:href="#ap"/><use transform="matrix(0.05,0,0,0.05,14,0)" xlink:href="#aC"/><use transform="matrix(0.05,0,0,0.05,24,0)" xlink:href="#Z"/><use transform="matrix(0.05,0,0,0.05,29.950000000000003,0)" xlink:href="#as"/><use transform="matrix(0.05,0,0,0.05,39.95,0)" xlink:href="#aw"/><use transform="matrix(0.05,0,0,0.05,53.95,0)" xlink:href="#al"/><use transform="matrix(0.05,0,0,0.05,63.95,0)" xlink:href="#ap"/><use transform="matrix(0.05,0,0,0.05,68.95,0)" xlink:href="#am"/><use transform="matrix(0.05,0,0,0.05,78.95,0)" xlink:href="#al"/><use transform="matrix(0.05,0,0,0.05,88.95,0)" xlink:href="#ap"/><use transform="matrix(0.05,0,0,0.05,93.95,0)" xlink:href="#ay"/><use transform="matrix(0.05,0,0,0.05,99.9,0)" xlink:href="#V"/><use transform="matrix(0.05,0,0,0.05,108.9,0)" xlink:href="#ap"/><use transform="matrix(0.05,0,0,0.05,113.9,0)" xlink:href="#Z"/><use transform="matrix(0.05,0,0,0.05,119.85000000000001,0)" xlink:href="#X"/><use transform="matrix(0.05,0,0,0.05,123.80000000000001,0)" xlink:href="#ak"/><use transform="matrix(0.05,0,0,0.05,133.8,0)" xlink:href="#Y"/><use transform="matrix(0.05,0,0,0.05,143.8,0)" xlink:href="#az"/><use transform="matrix(0.05,0,0,0.05,148.8,0)" xlink:href="#ak"/><use transform="matrix(0.05,0,0,0.05,158.8,0)" xlink:href="#al"/><use transform="matrix(0.05,0,0,0.05,168.8,0)" xlink:href="#aa"/><use transform="matrix(0.05,0,0,0.05,183.75,0)" xlink:href="#am"/><use transform="matrix(0.05,0,0,0.05,193.75,0)" xlink:href="#ao"/><use transform="matrix(0.05,0,0,0.05,198.75,0)" xlink:href="#U"/><use transform="matrix(0.05,0,0,0.05,208.75,0)" xlink:href="#Z"/><use transform="matrix(0.05,0,0,0.05,214.69999999999996,0)" xlink:href="#Z"/><use transform="matrix(0.05,0,0,0.05,220.64999999999998,0)" xlink:href="#U"/><use transform="matrix(0.05,0,0,0.05,230.64999999999998,0)" xlink:href="#an"/><use transform="matrix(0.05,0,0,0.05,239.64999999999998,0)" xlink:href="#aA"/></g><g id="A"><use transform="matrix(0.05,0,0,0.05,0,0)" xlink:href="#as"/><use transform="matrix(0.05,0,0,0.05,10,0)" xlink:href="#ak"/><use transform="matrix(0.05,0,0,0.05,20,0)" xlink:href="#aE"/><use transform="matrix(0.05,0,0,0.05,29,0)" xlink:href="#Z"/><use transform="matrix(0.05,0,0,0.05,34.95,0)" xlink:href="#an"/><use transform="matrix(0.05,0,0,0.05,43.95,0)" xlink:href="#am"/><use transform="matrix(0.05,0,0,0.05,53.95,0)" xlink:href="#ap"/><use transform="matrix(0.05,0,0,0.05,58.95,0)" xlink:href="#ay"/><use transform="matrix(0.05,0,0,0.05,64.9,0)" xlink:href="#ak"/><use transform="matrix(0.05,0,0,0.05,74.9,0)" xlink:href="#al"/><use transform="matrix(0.05,0,0,0.05,84.9,0)" xlink:href="#aa"/><use transform="matrix(0.05,0,0,0.05,99.85000000000001,0)" xlink:href="#am"/><use transform="matrix(0.05,0,0,0.05,109.85000000000001,0)" xlink:href="#an"/><use transform="matrix(0.05,0,0,0.05,117.5,0)" xlink:href="#ao"/><use transform="matrix(0.05,0,0,0.05,122.5,0)" xlink:href="#U"/><use transform="matrix(0.05,0,0,0.05,132.5,0)" xlink:href="#Z"/><use transform="matrix(0.05,0,0,0.05,138.45,0)" xlink:href="#Z"/><use transform="matrix(0.05,0,0,0.05,144.39999999999998,0)" xlink:href="#U"/><use transform="matrix(0.05,0,0,0.05,154.39999999999998,0)" xlink:href="#an"/><use transform="matrix(0.05,0,0,0.05,162.04999999999998,0)" xlink:href="#az"/><use transform="matrix(0.05,0,0,0.05,167.04999999999998,0)" xlink:href="#ak"/><use transform="matrix(0.05,0,0,0.05,177.04999999999998,0)" xlink:href="#al"/><use transform="matrix(0.05,0,0,0.05,187.04999999999998,0)" xlink:href="#aa"/><use transform="matrix(0.05,0,0,0.05,201.99999999999997,0)" xlink:href="#am"/><use transform="matrix(0.05,0,0,0.05,211.99999999999997,0)" xlink:href="#an"/><use transform="matrix(0.05,0,0,0.05,219.64999999999998,0)" xlink:href="#ao"/><use transform="matrix(0.05,0,0,0.05,224.64999999999998,0)" xlink:href="#U"/><use transform="matrix(0.05,0,0,0.05,234.64999999999998,0)" xlink:href="#Z"/><use transform="matrix(0.05,0,0,0.05,240.59999999999997,0)" xlink:href="#Z"/><use transform="matrix(0.05,0,0,0.05,246.54999999999995,0)" xlink:href="#U"/><use transform="matrix(0.05,0,0,0.05,256.54999999999995,0)" xlink:href="#an"/><use transform="matrix(0.05,0,0,0.05,265.54999999999995,0)" xlink:href="#aA"/></g><path d="M108 0H70L1-190h34L89-25l56-165h34" id="aG"/><g id="B"><use transform="matrix(0.05,0,0,0.05,0,0)" xlink:href="#aE"/><use transform="matrix(0.05,0,0,0.05,9,0)" xlink:href="#Z"/><use transform="matrix(0.05,0,0,0.05,14.949999999999998,0)" xlink:href="#as"/><use transform="matrix(0.05,0,0,0.05,24.95,0)" xlink:href="#U"/><use transform="matrix(0.05,0,0,0.05,34.95,0)" xlink:href="#ap"/><use transform="matrix(0.05,0,0,0.05,39.95,0)" xlink:href="#as"/><use transform="matrix(0.05,0,0,0.05,49.95,0)" xlink:href="#au"/><use transform="matrix(0.05,0,0,0.05,59.95,0)" xlink:href="#as"/><use transform="matrix(0.05,0,0,0.05,69.95,0)" xlink:href="#aG"/><use transform="matrix(0.05,0,0,0.05,78.95,0)" xlink:href="#as"/><use transform="matrix(0.05,0,0,0.05,88.95,0)" xlink:href="#Z"/><use transform="matrix(0.05,0,0,0.05,94.9,0)" xlink:href="#an"/><use transform="matrix(0.05,0,0,0.05,103.9,0)" xlink:href="#ap"/><use transform="matrix(0.05,0,0,0.05,108.9,0)" xlink:href="#aB"/><use transform="matrix(0.05,0,0,0.05,118.9,0)" xlink:href="#X"/><use transform="matrix(0.05,0,0,0.05,122.85000000000001,0)" xlink:href="#ak"/><use transform="matrix(0.05,0,0,0.05,132.85000000000002,0)" xlink:href="#Y"/><use transform="matrix(0.05,0,0,0.05,142.85000000000002,0)" xlink:href="#ay"/><use transform="matrix(0.05,0,0,0.05,148.8,0)" xlink:href="#aA"/></g><g id="C"><use transform="matrix(0.05,0,0,0.05,0,0)" xlink:href="#W"/><use transform="matrix(0.05,0,0,0.05,12.950000000000001,0)" xlink:href="#as"/><use transform="matrix(0.05,0,0,0.05,22.950000000000003,0)" xlink:href="#aE"/><use transform="matrix(0.05,0,0,0.05,31.950000000000003,0)" xlink:href="#Z"/><use transform="matrix(0.05,0,0,0.05,37.900000000000006,0)" xlink:href="#an"/><use transform="matrix(0.05,0,0,0.05,46.900000000000006,0)" xlink:href="#am"/><use transform="matrix(0.05,0,0,0.05,56.900000000000006,0)" xlink:href="#ap"/><use transform="matrix(0.05,0,0,0.05,61.900000000000006,0)" xlink:href="#X"/><use transform="matrix(0.05,0,0,0.05,65.85000000000001,0)" xlink:href="#aC"/><use transform="matrix(0.05,0,0,0.05,75.85000000000001,0)" xlink:href="#ak"/></g><g id="D"><use transform="matrix(0.05,0,0,0.05,0,0)" xlink:href="#W"/><use transform="matrix(0.05,0,0,0.05,12.950000000000001,0)" xlink:href="#as"/><use transform="matrix(0.05,0,0,0.05,22.950000000000003,0)" xlink:href="#aE"/><use transform="matrix(0.05,0,0,0.05,31.950000000000003,0)" xlink:href="#Z"/><use transform="matrix(0.05,0,0,0.05,37.900000000000006,0)" xlink:href="#an"/><use transform="matrix(0.05,0,0,0.05,46.900000000000006,0)" xlink:href="#am"/><use transform="matrix(0.05,0,0,0.05,56.900000000000006,0)" xlink:href="#ap"/><use transform="matrix(0.05,0,0,0.05,61.900000000000006,0)" xlink:href="#X"/><use transform="matrix(0.05,0,0,0.05,65.85000000000001,0)" xlink:href="#aC"/><use transform="matrix(0.05,0,0,0.05,75.85000000000001,0)" xlink:href="#ak"/><use transform="matrix(0.05,0,0,0.05,85.85000000000001,0)" xlink:href="#ay"/><use transform="matrix(0.05,0,0,0.05,91.80000000000001,0)" xlink:href="#ak"/><use transform="matrix(0.05,0,0,0.05,101.80000000000001,0)" xlink:href="#al"/><use transform="matrix(0.05,0,0,0.05,111.80000000000001,0)" xlink:href="#aa"/><use transform="matrix(0.05,0,0,0.05,126.75,0)" xlink:href="#am"/><use transform="matrix(0.05,0,0,0.05,136.75,0)" xlink:href="#an"/><use transform="matrix(0.05,0,0,0.05,144.4,0)" xlink:href="#ao"/><use transform="matrix(0.05,0,0,0.05,149.4,0)" xlink:href="#al"/><use transform="matrix(0.05,0,0,0.05,159.4,0)" xlink:href="#X"/><use transform="matrix(0.05,0,0,0.05,163.35,0)" xlink:href="#ak"/><use transform="matrix(0.05,0,0,0.05,173.35,0)" xlink:href="#ap"/><use transform="matrix(0.05,0,0,0.05,178.35,0)" xlink:href="#aq"/><use transform="matrix(0.05,0,0,0.05,188.35,0)" xlink:href="#az"/><use transform="matrix(0.05,0,0,0.05,193.35,0)" xlink:href="#ak"/><use transform="matrix(0.05,0,0,0.05,203.35,0)" xlink:href="#al"/><use transform="matrix(0.05,0,0,0.05,213.35000000000002,0)" xlink:href="#aa"/><use transform="matrix(0.05,0,0,0.05,228.29999999999995,0)" xlink:href="#am"/><use transform="matrix(0.05,0,0,0.05,238.29999999999995,0)" xlink:href="#an"/><use transform="matrix(0.05,0,0,0.05,245.94999999999996,0)" xlink:href="#ao"/><use transform="matrix(0.05,0,0,0.05,250.94999999999996,0)" xlink:href="#al"/><use transform="matrix(0.05,0,0,0.05,260.95,0)" xlink:href="#X"/><use transform="matrix(0.05,0,0,0.05,264.9,0)" xlink:href="#ak"/><use transform="matrix(0.05,0,0,0.05,274.9,0)" xlink:href="#ap"/><use transform="matrix(0.05,0,0,0.05,279.9,0)" xlink:href="#aq"/><use transform="matrix(0.05,0,0,0.05,289.9,0)" xlink:href="#az"/><use transform="matrix(0.05,0,0,0.05,294.9,0)" xlink:href="#V"/><use transform="matrix(0.05,0,0,0.05,303.9,0)" xlink:href="#ap"/><use transform="matrix(0.05,0,0,0.05,308.9,0)" xlink:href="#Z"/><use transform="matrix(0.05,0,0,0.05,314.84999999999997,0)" xlink:href="#X"/><use transform="matrix(0.05,0,0,0.05,318.79999999999995,0)" xlink:href="#ak"/><use transform="matrix(0.05,0,0,0.05,328.79999999999995,0)" xlink:href="#Y"/><use transform="matrix(0.05,0,0,0.05,338.79999999999995,0)" xlink:href="#az"/><use transform="matrix(0.05,0,0,0.05,343.79999999999995,0)" xlink:href="#V"/><use transform="matrix(0.05,0,0,0.05,352.79999999999995,0)" xlink:href="#ap"/><use transform="matrix(0.05,0,0,0.05,357.79999999999995,0)" xlink:href="#Z"/><use transform="matrix(0.05,0,0,0.05,363.74999999999994,0)" xlink:href="#X"/><use transform="matrix(0.05,0,0,0.05,367.69999999999993,0)" xlink:href="#ak"/><use transform="matrix(0.05,0,0,0.05,377.69999999999993,0)" xlink:href="#Y"/><use transform="matrix(0.05,0,0,0.05,387.69999999999993,0)" xlink:href="#az"/><use transform="matrix(0.05,0,0,0.05,392.69999999999993,0)" xlink:href="#V"/><use transform="matrix(0.05,0,0,0.05,401.69999999999993,0)" xlink:href="#ap"/><use transform="matrix(0.05,0,0,0.05,406.69999999999993,0)" xlink:href="#Z"/><use transform="matrix(0.05,0,0,0.05,412.6499999999999,0)" xlink:href="#X"/><use transform="matrix(0.05,0,0,0.05,416.5999999999999,0)" xlink:href="#ak"/><use transform="matrix(0.05,0,0,0.05,426.5999999999999,0)" xlink:href="#Y"/><use transform="matrix(0.05,0,0,0.05,436.5999999999999,0)" xlink:href="#aA"/></g><g id="E"><use transform="matrix(0.05,0,0,0.05,0,0)" xlink:href="#aD"/><use transform="matrix(0.05,0,0,0.05,10,0)" xlink:href="#as"/><use transform="matrix(0.05,0,0,0.05,20,0)" xlink:href="#aE"/><use transform="matrix(0.05,0,0,0.05,29,0)" xlink:href="#Z"/><use transform="matrix(0.05,0,0,0.05,34.95,0)" xlink:href="#an"/><use transform="matrix(0.05,0,0,0.05,43.95,0)" xlink:href="#am"/><use transform="matrix(0.05,0,0,0.05,53.95,0)" xlink:href="#ap"/><use transform="matrix(0.05,0,0,0.05,58.95,0)" xlink:href="#ay"/><use transform="matrix(0.05,0,0,0.05,64.9,0)" xlink:href="#ak"/><use transform="matrix(0.05,0,0,0.05,74.9,0)" xlink:href="#al"/><use transform="matrix(0.05,0,0,0.05,84.9,0)" xlink:href="#aa"/><use transform="matrix(0.05,0,0,0.05,99.85000000000001,0)" xlink:href="#am"/><use transform="matrix(0.05,0,0,0.05,109.85000000000001,0)" xlink:href="#an"/><use transform="matrix(0.05,0,0,0.05,117.5,0)" xlink:href="#ao"/><use transform="matrix(0.05,0,0,0.05,122.5,0)" xlink:href="#U"/><use transform="matrix(0.05,0,0,0.05,132.5,0)" xlink:href="#Z"/><use transform="matrix(0.05,0,0,0.05,138.45,0)" xlink:href="#Z"/><use transform="matrix(0.05,0,0,0.05,144.39999999999998,0)" xlink:href="#U"/><use transform="matrix(0.05,0,0,0.05,154.39999999999998,0)" xlink:href="#an"/><use transform="matrix(0.05,0,0,0.05,162.04999999999998,0)" xlink:href="#az"/><use transform="matrix(0.05,0,0,0.05,167.04999999999998,0)" xlink:href="#ak"/><use transform="matrix(0.05,0,0,0.05,177.04999999999998,0)" xlink:href="#al"/><use transform="matrix(0.05,0,0,0.05,187.04999999999998,0)" xlink:href="#aa"/><use transform="matrix(0.05,0,0,0.05,201.99999999999997,0)" xlink:href="#am"/><use transform="matrix(0.05,0,0,0.05,211.99999999999997,0)" xlink:href="#an"/><use transform="matrix(0.05,0,0,0.05,219.64999999999998,0)" xlink:href="#ao"/><use transform="matrix(0.05,0,0,0.05,224.64999999999998,0)" xlink:href="#U"/><use transform="matrix(0.05,0,0,0.05,234.64999999999998,0)" xlink:href="#Z"/><use transform="matrix(0.05,0,0,0.05,240.59999999999997,0)" xlink:href="#Z"/><use transform="matrix(0.05,0,0,0.05,246.54999999999995,0)" xlink:href="#U"/><use transform="matrix(0.05,0,0,0.05,256.54999999999995,0)" xlink:href="#an"/><use transform="matrix(0.05,0,0,0.05,265.54999999999995,0)" xlink:href="#aA"/></g><path d="M194 0L95-120 63-95V0H30v-248h33v124l119-124h40L117-140 236 0h-42" id="aH"/><g id="F"><use transform="matrix(0.05,0,0,0.05,0,0)" xlink:href="#aH"/><use transform="matrix(0.05,0,0,0.05,12,0)" xlink:href="#as"/><use transform="matrix(0.05,0,0,0.05,22,0)" xlink:href="#an"/></g><g id="G"><use transform="matrix(0.05,0,0,0.05,0,0)" xlink:href="#Z"/><use transform="matrix(0.05,0,0,0.05,5.95,0)" xlink:href="#aC"/><use transform="matrix(0.05,0,0,0.05,15.949999999999998,0)" xlink:href="#ap"/><use transform="matrix(0.05,0,0,0.05,20.95,0)" xlink:href="#aE"/><use transform="matrix(0.05,0,0,0.05,29.950000000000003,0)" xlink:href="#aC"/><use transform="matrix(0.05,0,0,0.05,39.95,0)" xlink:href="#ak"/><use transform="matrix(0.05,0,0,0.05,49.95,0)" xlink:href="#V"/><use transform="matrix(0.05,0,0,0.05,58.95,0)" xlink:href="#ap"/><use transform="matrix(0.05,0,0,0.05,63.95,0)" xlink:href="#aj"/><use transform="matrix(0.05,0,0,0.05,68.95,0)" xlink:href="#ak"/><use transform="matrix(0.05,0,0,0.05,78.95,0)" xlink:href="#al"/><use transform="matrix(0.05,0,0,0.05,88.95,0)" xlink:href="#aa"/><use transform="matrix(0.05,0,0,0.05,103.9,0)" xlink:href="#am"/><use transform="matrix(0.05,0,0,0.05,113.9,0)" xlink:href="#an"/><use transform="matrix(0.05,0,0,0.05,121.55000000000001,0)" xlink:href="#ao"/><use transform="matrix(0.05,0,0,0.05,126.55000000000001,0)" xlink:href="#U"/><use transform="matrix(0.05,0,0,0.05,136.55,0)" xlink:href="#Z"/><use transform="matrix(0.05,0,0,0.05,142.5,0)" xlink:href="#Z"/><use transform="matrix(0.05,0,0,0.05,148.45,0)" xlink:href="#U"/><use transform="matrix(0.05,0,0,0.05,158.45,0)" xlink:href="#an"/></g><g id="H"><use transform="matrix(0.05,0,0,0.05,0,0)" xlink:href="#ar"/><use transform="matrix(0.05,0,0,0.05,9,0)" xlink:href="#as"/><use transform="matrix(0.05,0,0,0.05,19,0)" xlink:href="#an"/><use transform="matrix(0.05,0,0,0.05,28,0)" xlink:href="#au"/><use transform="matrix(0.05,0,0,0.05,38,0)" xlink:href="#U"/><use transform="matrix(0.05,0,0,0.05,48,0)" xlink:href="#Z"/><use transform="matrix(0.05,0,0,0.05,53.95,0)" xlink:href="#Z"/><use transform="matrix(0.05,0,0,0.05,59.900000000000006,0)" xlink:href="#U"/><use transform="matrix(0.05,0,0,0.05,69.9,0)" xlink:href="#an"/><use transform="matrix(0.05,0,0,0.05,78.9,0)" xlink:href="#aj"/><use transform="matrix(0.05,0,0,0.05,83.9,0)" xlink:href="#ak"/><use transform="matrix(0.05,0,0,0.05,93.9,0)" xlink:href="#al"/><use transform="matrix(0.05,0,0,0.05,103.9,0)" xlink:href="#aa"/><use transform="matrix(0.05,0,0,0.05,118.85000000000001,0)" xlink:href="#am"/><use transform="matrix(0.05,0,0,0.05,128.85000000000002,0)" xlink:href="#an"/><use transform="matrix(0.05,0,0,0.05,136.50000000000003,0)" xlink:href="#ao"/><use transform="matrix(0.05,0,0,0.05,141.50000000000003,0)" xlink:href="#U"/><use transform="matrix(0.05,0,0,0.05,151.50000000000003,0)" xlink:href="#Z"/><use transform="matrix(0.05,0,0,0.05,157.45000000000002,0)" xlink:href="#Z"/><use transform="matrix(0.05,0,0,0.05,163.4,0)" xlink:href="#U"/><use transform="matrix(0.05,0,0,0.05,173.4,0)" xlink:href="#an"/></g><g id="I"><use transform="matrix(0.05,0,0,0.05,0,0)" xlink:href="#aH"/><use transform="matrix(0.05,0,0,0.05,12,0)" xlink:href="#as"/><use transform="matrix(0.05,0,0,0.05,22,0)" xlink:href="#an"/><use transform="matrix(0.05,0,0,0.05,31,0)" xlink:href="#ay"/><use transform="matrix(0.05,0,0,0.05,36.95,0)" xlink:href="#ak"/><use transform="matrix(0.05,0,0,0.05,46.95,0)" xlink:href="#al"/><use transform="matrix(0.05,0,0,0.05,56.95,0)" xlink:href="#aa"/><use transform="matrix(0.05,0,0,0.05,71.9,0)" xlink:href="#am"/><use transform="matrix(0.05,0,0,0.05,81.9,0)" xlink:href="#an"/><use transform="matrix(0.05,0,0,0.05,89.55000000000001,0)" xlink:href="#ao"/><use transform="matrix(0.05,0,0,0.05,94.55000000000001,0)" xlink:href="#al"/><use transform="matrix(0.05,0,0,0.05,104.55000000000001,0)" xlink:href="#X"/><use transform="matrix(0.05,0,0,0.05,108.5,0)" xlink:href="#ak"/><use transform="matrix(0.05,0,0,0.05,118.5,0)" xlink:href="#ap"/><use transform="matrix(0.05,0,0,0.05,123.5,0)" xlink:href="#aq"/><use transform="matrix(0.05,0,0,0.05,133.5,0)" xlink:href="#az"/><use transform="matrix(0.05,0,0,0.05,138.5,0)" xlink:href="#ak"/><use transform="matrix(0.05,0,0,0.05,148.5,0)" xlink:href="#al"/><use transform="matrix(0.05,0,0,0.05,158.5,0)" xlink:href="#aa"/><use transform="matrix(0.05,0,0,0.05,173.45,0)" xlink:href="#am"/><use transform="matrix(0.05,0,0,0.05,183.45,0)" xlink:href="#an"/><use transform="matrix(0.05,0,0,0.05,191.1,0)" xlink:href="#ao"/><use transform="matrix(0.05,0,0,0.05,196.1,0)" xlink:href="#al"/><use transform="matrix(0.05,0,0,0.05,206.10000000000002,0)" xlink:href="#X"/><use transform="matrix(0.05,0,0,0.05,210.04999999999995,0)" xlink:href="#ak"/><use transform="matrix(0.05,0,0,0.05,220.04999999999995,0)" xlink:href="#ap"/><use transform="matrix(0.05,0,0,0.05,225.04999999999995,0)" xlink:href="#aq"/><use transform="matrix(0.05,0,0,0.05,235.04999999999995,0)" xlink:href="#az"/><use transform="matrix(0.05,0,0,0.05,240.04999999999995,0)" xlink:href="#V"/><use transform="matrix(0.05,0,0,0.05,249.04999999999995,0)" xlink:href="#ap"/><use transform="matrix(0.05,0,0,0.05,254.04999999999995,0)" xlink:href="#Z"/><use transform="matrix(0.05,0,0,0.05,260,0)" xlink:href="#X"/><use transform="matrix(0.05,0,0,0.05,263.95,0)" xlink:href="#ak"/><use transform="matrix(0.05,0,0,0.05,273.95,0)" xlink:href="#Y"/><use transform="matrix(0.05,0,0,0.05,283.95,0)" xlink:href="#aA"/></g><g id="J"><use transform="matrix(0.05,0,0,0.05,0,0)" xlink:href="#X"/><use transform="matrix(0.05,0,0,0.05,3.95,0)" xlink:href="#ak"/><use transform="matrix(0.05,0,0,0.05,13.949999999999998,0)" xlink:href="#am"/><use transform="matrix(0.05,0,0,0.05,23.95,0)" xlink:href="#al"/><use transform="matrix(0.05,0,0,0.05,33.95,0)" xlink:href="#ap"/><use transform="matrix(0.05,0,0,0.05,38.95,0)" xlink:href="#au"/><use transform="matrix(0.05,0,0,0.05,48.95,0)" xlink:href="#ap"/><use transform="matrix(0.05,0,0,0.05,53.95,0)" xlink:href="#as"/><use transform="matrix(0.05,0,0,0.05,63.95,0)" xlink:href="#at"/><use transform="matrix(0.05,0,0,0.05,72.95,0)" xlink:href="#ap"/><use transform="matrix(0.05,0,0,0.05,77.95,0)" xlink:href="#au"/><use transform="matrix(0.05,0,0,0.05,87.95,0)" xlink:href="#ar"/><use transform="matrix(0.05,0,0,0.05,96.95,0)" xlink:href="#as"/><use transform="matrix(0.05,0,0,0.05,106.95,0)" xlink:href="#an"/><use transform="matrix(0.05,0,0,0.05,115.95,0)" xlink:href="#ay"/><use transform="matrix(0.05,0,0,0.05,121.9,0)" xlink:href="#aA"/></g><g id="K"><use transform="matrix(0.05,0,0,0.05,0,0)" xlink:href="#Z"/><use transform="matrix(0.05,0,0,0.05,5.95,0)" xlink:href="#aC"/><use transform="matrix(0.05,0,0,0.05,15.949999999999998,0)" xlink:href="#ap"/><use transform="matrix(0.05,0,0,0.05,20.95,0)" xlink:href="#ar"/><use transform="matrix(0.05,0,0,0.05,29.950000000000003,0)" xlink:href="#as"/><use transform="matrix(0.05,0,0,0.05,39.95,0)" xlink:href="#an"/><use transform="matrix(0.05,0,0,0.05,48.95,0)" xlink:href="#ay"/><use transform="matrix(0.05,0,0,0.05,54.900000000000006,0)" xlink:href="#ak"/><use transform="matrix(0.05,0,0,0.05,64.9,0)" xlink:href="#al"/><use transform="matrix(0.05,0,0,0.05,74.9,0)" xlink:href="#aa"/><use transform="matrix(0.05,0,0,0.05,89.85000000000001,0)" xlink:href="#am"/><use transform="matrix(0.05,0,0,0.05,99.85000000000001,0)" xlink:href="#an"/><use transform="matrix(0.05,0,0,0.05,107.5,0)" xlink:href="#ao"/><use transform="matrix(0.05,0,0,0.05,112.5,0)" xlink:href="#U"/><use transform="matrix(0.05,0,0,0.05,122.5,0)" xlink:href="#Z"/><use transform="matrix(0.05,0,0,0.05,128.45000000000002,0)" xlink:href="#Z"/><use transform="matrix(0.05,0,0,0.05,134.4,0)" xlink:href="#U"/><use transform="matrix(0.05,0,0,0.05,144.4,0)" xlink:href="#an"/><use transform="matrix(0.05,0,0,0.05,153.4,0)" xlink:href="#aA"/></g><g id="L"><use transform="matrix(0.05,0,0,0.05,0,0)" xlink:href="#Z"/><use transform="matrix(0.05,0,0,0.05,5.95,0)" xlink:href="#aC"/><use transform="matrix(0.05,0,0,0.05,15.949999999999998,0)" xlink:href="#al"/><use transform="matrix(0.05,0,0,0.05,25.950000000000003,0)" xlink:href="#ak"/><use transform="matrix(0.05,0,0,0.05,35.95,0)" xlink:href="#aD"/><use transform="matrix(0.05,0,0,0.05,45.95,0)" xlink:href="#au"/><use transform="matrix(0.05,0,0,0.05,55.95,0)" xlink:href="#aE"/><use transform="matrix(0.05,0,0,0.05,64.95,0)" xlink:href="#aC"/><use transform="matrix(0.05,0,0,0.05,74.95,0)" xlink:href="#ak"/><use transform="matrix(0.05,0,0,0.05,84.95,0)" xlink:href="#V"/><use transform="matrix(0.05,0,0,0.05,93.95,0)" xlink:href="#ap"/><use transform="matrix(0.05,0,0,0.05,98.95,0)" xlink:href="#U"/><use transform="matrix(0.05,0,0,0.05,108.95,0)" xlink:href="#ak"/><use transform="matrix(0.05,0,0,0.05,118.95,0)" xlink:href="#ap"/><use transform="matrix(0.05,0,0,0.05,123.95,0)" xlink:href="#ay"/><use transform="matrix(0.05,0,0,0.05,129.9,0)" xlink:href="#ak"/><use transform="matrix(0.05,0,0,0.05,139.9,0)" xlink:href="#al"/><use transform="matrix(0.05,0,0,0.05,149.9,0)" xlink:href="#aa"/><use transform="matrix(0.05,0,0,0.05,164.85,0)" xlink:href="#am"/><use transform="matrix(0.05,0,0,0.05,174.85,0)" xlink:href="#an"/><use transform="matrix(0.05,0,0,0.05,182.5,0)" xlink:href="#ao"/><use transform="matrix(0.05,0,0,0.05,187.5,0)" xlink:href="#al"/><use transform="matrix(0.05,0,0,0.05,197.5,0)" xlink:href="#X"/><use transform="matrix(0.05,0,0,0.05,201.45,0)" xlink:href="#ak"/><use transform="matrix(0.05,0,0,0.05,211.44999999999996,0)" xlink:href="#ap"/><use transform="matrix(0.05,0,0,0.05,216.44999999999996,0)" xlink:href="#aq"/><use transform="matrix(0.05,0,0,0.05,226.44999999999996,0)" xlink:href="#aA"/></g><g id="M"><use transform="matrix(0.05,0,0,0.05,0,0)" xlink:href="#ar"/><use transform="matrix(0.05,0,0,0.05,9,0)" xlink:href="#as"/><use transform="matrix(0.05,0,0,0.05,19,0)" xlink:href="#an"/><use transform="matrix(0.05,0,0,0.05,28,0)" xlink:href="#au"/><use transform="matrix(0.05,0,0,0.05,38,0)" xlink:href="#as"/><use transform="matrix(0.05,0,0,0.05,48,0)" xlink:href="#at"/><use transform="matrix(0.05,0,0,0.05,57,0)" xlink:href="#am"/><use transform="matrix(0.05,0,0,0.05,67,0)" xlink:href="#U"/><use transform="matrix(0.05,0,0,0.05,77,0)" xlink:href="#ak"/><use transform="matrix(0.05,0,0,0.05,87,0)" xlink:href="#V"/><use transform="matrix(0.05,0,0,0.05,96,0)" xlink:href="#X"/><use transform="matrix(0.05,0,0,0.05,99.95,0)" xlink:href="#aC"/><use transform="matrix(0.05,0,0,0.05,109.95,0)" xlink:href="#ak"/><use transform="matrix(0.05,0,0,0.05,119.95,0)" xlink:href="#ay"/><use transform="matrix(0.05,0,0,0.05,125.9,0)" xlink:href="#ak"/><use transform="matrix(0.05,0,0,0.05,135.9,0)" xlink:href="#al"/><use transform="matrix(0.05,0,0,0.05,145.9,0)" xlink:href="#aa"/><use transform="matrix(0.05,0,0,0.05,160.85,0)" xlink:href="#am"/><use transform="matrix(0.05,0,0,0.05,170.85,0)" xlink:href="#an"/><use transform="matrix(0.05,0,0,0.05,178.5,0)" xlink:href="#ao"/><use transform="matrix(0.05,0,0,0.05,183.5,0)" xlink:href="#U"/><use transform="matrix(0.05,0,0,0.05,193.5,0)" xlink:href="#Z"/><use transform="matrix(0.05,0,0,0.05,199.45,0)" xlink:href="#Z"/><use transform="matrix(0.05,0,0,0.05,205.39999999999998,0)" xlink:href="#U"/><use transform="matrix(0.05,0,0,0.05,215.39999999999998,0)" xlink:href="#an"/><use transform="matrix(0.05,0,0,0.05,224.39999999999998,0)" xlink:href="#aA"/></g><g id="N"><use transform="matrix(0.05,0,0,0.05,0,0)" xlink:href="#aE"/><use transform="matrix(0.05,0,0,0.05,9,0)" xlink:href="#Z"/><use transform="matrix(0.05,0,0,0.05,14.949999999999998,0)" xlink:href="#as"/><use transform="matrix(0.05,0,0,0.05,24.95,0)" xlink:href="#U"/><use transform="matrix(0.05,0,0,0.05,34.95,0)" xlink:href="#ap"/><use transform="matrix(0.05,0,0,0.05,39.95,0)" xlink:href="#as"/><use transform="matrix(0.05,0,0,0.05,49.95,0)" xlink:href="#au"/><use transform="matrix(0.05,0,0,0.05,59.95,0)" xlink:href="#as"/><use transform="matrix(0.05,0,0,0.05,69.95,0)" xlink:href="#at"/><use transform="matrix(0.05,0,0,0.05,78.95,0)" xlink:href="#am"/><use transform="matrix(0.05,0,0,0.05,88.95,0)" xlink:href="#U"/><use transform="matrix(0.05,0,0,0.05,98.95,0)" xlink:href="#ak"/><use transform="matrix(0.05,0,0,0.05,108.95,0)" xlink:href="#aD"/><use transform="matrix(0.05,0,0,0.05,118.95,0)" xlink:href="#as"/><use transform="matrix(0.05,0,0,0.05,128.95,0)" xlink:href="#aD"/><use transform="matrix(0.05,0,0,0.05,138.95,0)" xlink:href="#au"/><use transform="matrix(0.05,0,0,0.05,148.95,0)" xlink:href="#ar"/><use transform="matrix(0.05,0,0,0.05,157.95,0)" xlink:href="#as"/><use transform="matrix(0.05,0,0,0.05,167.95,0)" xlink:href="#an"/><use transform="matrix(0.05,0,0,0.05,176.95,0)" xlink:href="#ay"/><use transform="matrix(0.05,0,0,0.05,182.89999999999998,0)" xlink:href="#aA"/></g><path d="M33 0v-248h34V0H33" id="aI"/><g id="O"><use transform="matrix(0.05,0,0,0.05,0,0)" xlink:href="#aI"/><use transform="matrix(0.05,0,0,0.05,5,0)" xlink:href="#V"/></g><use transform="matrix(0.05,0,0,0.05,0,0)" xlink:href="#ac" id="P"/><path d="M197 0v-115H63V0H30v-248h33v105h134v-105h34V0h-34" id="aJ"/><g id="Q"><use transform="matrix(0.05,0,0,0.05,0,0)" xlink:href="#aJ"/><use transform="matrix(0.05,0,0,0.05,12.950000000000001,0)" xlink:href="#U"/><use transform="matrix(0.05,0,0,0.05,22.950000000000003,0)" xlink:href="#V"/></g><path d="M232-93c-1 65-40 97-104 97C67 4 28-28 28-90v-158h33c8 89-33 224 67 224 102 0 64-133 71-224h33v155" id="aK"/><g id="R"><use transform="matrix(0.05,0,0,0.05,0,0)" xlink:href="#aK"/><use transform="matrix(0.05,0,0,0.05,12.950000000000001,0)" xlink:href="#V"/><use transform="matrix(0.05,0,0,0.05,21.950000000000003,0)" xlink:href="#as"/><use transform="matrix(0.05,0,0,0.05,31.950000000000003,0)" xlink:href="#V"/></g></defs></g></svg>