<svg xmlns="http://www.w3.org/2000/svg" xmlns:xlink="http://www.w3.org/1999/xlink" xmlns:lucid="lucid" width="1440" height="1391.87"><g transform="translate(-176.66666666666663 360)" lucid:page-tab-id="0_0"><path d="M520-340h640v60H520z" fill="none"/><use xlink:href="#a" transform="matrix(1,0,0,1,520,-340) translate(108.57407407407408 36.22222222222222)"/><use xlink:href="#b" transform="matrix(1,0,0,1,520,-340) translate(265.5987654320988 36.22222222222222)"/><use xlink:href="#c" transform="matrix(1,0,0,1,520,-340) translate(414.24074074074076 36.22222222222222)"/><path d="M308.42-168.38c0 10.9-8.85 19.75-19.75 19.75s-19.75-8.85-19.75-19.75 8.84-19.75 19.75-19.75c10.9 0 19.75 8.84 19.75 19.75z" stroke="#000" stroke-width="2" fill="#fff"/><path d="M288.67-148.63v55.3l40 63.2m-40-63.2l-40 63.2m0-98.75h80" stroke="#000" stroke-width="2" fill="none"/><path d="M248.67-188.13h80v180h-80z" fill="none"/><use xlink:href="#d" transform="matrix(1,0,0,1,168.66666666666663,-30.13333333333327) translate(101.05 14.6)"/><path d="M596.67-188.13h160v142h-160z" stroke="#000" stroke-width="2" fill="#fff"/><use xlink:href="#e" transform="matrix(1,0,0,1,604.6666666666666,-180.13333333333327) translate(8.599999999999994 55.8)"/><use xlink:href="#f" transform="matrix(1,0,0,1,604.6666666666666,-180.13333333333327) translate(101.45 55.8)"/><use xlink:href="#g" transform="matrix(1,0,0,1,604.6666666666666,-180.13333333333327) translate(50.1 77.4)"/><path d="M916.67-188.13h160v142h-160z" stroke="#000" stroke-width="2" fill="#fff"/><use xlink:href="#h" transform="matrix(1,0,0,1,924.6666666666666,-180.13333333333327) translate(26.574999999999996 66.60000000000001)"/><path d="M1276.67-188.13h160v142h-160z" stroke="#000" stroke-width="2" fill="#fff"/><use xlink:href="#i" transform="matrix(1,0,0,1,1284.6666666666665,-180.13333333333327) translate(54 66.60000000000001)"/><path d="M656.67 11.87h40v1000h-40z" stroke="#000" stroke-width="2" fill="#fff"/><path d="M676.67-44.13v9m0 9v18m0 9v9" stroke="#000" stroke-width="2" fill="none"/><path d="M677.67-44.1h-2v-1.03h2z"/><path d="M676.67 9.84v1.03" stroke="#000" stroke-width="2" fill="none"/><path d="M976.67 11.87h40v1000h-40zM1336.67 11.87h40v1000h-40z" stroke="#000" stroke-width="2" fill="#fff"/><path d="M996.67-44.13v9m0 9v18m0 9v9" stroke="#000" stroke-width="2" fill="none"/><path d="M997.67-44.1h-2v-1.03h2z"/><path d="M996.67 9.84v1.03M1356.67 9.87v-9m0-9v-18m0-9v-9M1356.67 9.84v1.03" stroke="#000" stroke-width="2" fill="none"/><path d="M1357.67-44.1h-2v-1.03h2z"/><path d="M288.67-91.46" stroke="#000" stroke-width="2" fill="none"/><path d="M268.67 11.87h40v1000h-40z" stroke="#000" stroke-width="2" fill="#fff"/><path d="M288.67-90.46v11.14m0 11.15v22.3m0 11.14v22.3m0 11.15V9.87M288.67 9.84v1.03" stroke="#000" stroke-width="2" fill="none"/><path d="M196.67 231.87h100v20l-10 10h-90z" fill="#fff"/><path d="M296.67 231.87v20l-10 10h-90" stroke="#000" stroke-width="2" fill="none"/><path d="M196.67 231.87h1400v740h-1400zM196.67 606.87h20m15 0h20m15 0h20m15 0h20m15 0h20m15 0h20m15 0h20m15 0h20m15 0h20m15 0h20m15 0h20m15 0h20m15 0h20m15 0h20m15 0h20m15 0h20m15 0h20m15 0h20m15 0h20m15 0h20m15 0h20m15 0h20m15 0h20m15 0h20m15 0h20m15 0h20m15 0h20m15 0h20m15 0h20m15 0h20m15 0h20m15 0h20m15 0h20m15 0h20m15 0h20m15 0h20m15 0h20m15 0h20m15 0h20m15 0h20" stroke="#000" stroke-width="2" fill="none"/><use xlink:href="#j" transform="matrix(1,0,0,1,204.66666666666663,231.86666666666673) translate(0 18.6)"/><use xlink:href="#k" transform="matrix(1,0,0,1,208.66666666666663,269.86666666666673) translate(0 18.6)"/><use xlink:href="#l" transform="matrix(1,0,0,1,208.66666666666663,269.86666666666673) translate(116.85000000000001 18.6)"/><use xlink:href="#m" transform="matrix(1,0,0,1,208.66666666666663,269.86666666666673) translate(137.35000000000002 18.6)"/><use xlink:href="#n" transform="matrix(1,0,0,1,208.66666666666663,269.86666666666673) translate(173.20000000000002 18.6)"/><use xlink:href="#o" transform="matrix(1,0,0,1,208.66666666666663,269.86666666666673) translate(216.10000000000002 18.6)"/><use xlink:href="#l" transform="matrix(1,0,0,1,208.66666666666663,269.86666666666673) translate(326.95000000000005 18.6)"/><use xlink:href="#m" transform="matrix(1,0,0,1,208.66666666666663,269.86666666666673) translate(347.45000000000005 18.6)"/><use xlink:href="#n" transform="matrix(1,0,0,1,208.66666666666663,269.86666666666673) translate(383.30000000000007 18.6)"/><use xlink:href="#p" transform="matrix(1,0,0,1,208.66666666666663,269.86666666666673) translate(426.20000000000005 18.6)"/><use xlink:href="#l" transform="matrix(1,0,0,1,208.66666666666663,269.86666666666673) translate(536.95 18.6)"/><use xlink:href="#q" transform="matrix(1,0,0,1,208.66666666666663,269.86666666666673) translate(557.45 18.6)"/><use xlink:href="#r" transform="matrix(1,0,0,1,208.66666666666663,614.8666666666668) translate(0 18.6)"/><path d="M216.67 651.87h100v20l-10 10h-90z" fill="#fff"/><path d="M316.67 651.87v20l-10 10h-90" stroke="#000" stroke-width="2" fill="none"/><path d="M216.67 651.87h820v300h-820zM216.67 771.87h20m15 0h20m15 0h20m15 0h20m15 0h20m15 0h20m15 0h20m15 0h20m15 0h20m15 0h20m15 0h20m15 0h20m15 0h20m15 0h20m15 0h20m15 0h20m15 0h20m15 0h20m15 0h20m15 0h20m15 0h20m15 0h20m15 0h20m15 0h15" stroke="#000" stroke-width="2" fill="none"/><use xlink:href="#j" transform="matrix(1,0,0,1,224.66666666666663,651.8666666666668) translate(0 18.6)"/><use xlink:href="#k" transform="matrix(1,0,0,1,228.66666666666663,689.8666666666668) translate(0 18.6)"/><use xlink:href="#s" transform="matrix(1,0,0,1,228.66666666666663,689.8666666666668) translate(116.85000000000001 18.6)"/><use xlink:href="#q" transform="matrix(1,0,0,1,228.66666666666663,689.8666666666668) translate(132.35000000000002 18.6)"/><use xlink:href="#t" transform="matrix(1,0,0,1,228.66666666666663,779.8666666666668) translate(0 18.6)"/><use xlink:href="#s" transform="matrix(1,0,0,1,228.66666666666663,779.8666666666668) translate(115.85000000000001 18.6)"/><use xlink:href="#q" transform="matrix(1,0,0,1,228.66666666666663,779.8666666666668) translate(131.35000000000002 18.6)"/><path d="M654.67 734.93h-9.9m-9.9 0H615.1m-9.9 0h-19.8m-9.88 0h-19.8m-9.9 0h-19.77m-9.9 0h-19.8m-9.88 0h-19.8m-9.88 0H437m-9.9 0h-19.78m-9.9 0h-19.78m-9.9 0h-19.78m-9.9 0h-9.9" stroke="#000" stroke-width="2" fill="none"/><path d="M655.67 735.93h-1.03v-2h1.03z"/><path d="M312.9 734.93l14.27-4.63v9.27z" stroke="#000" stroke-width="2"/><use xlink:href="#u" transform="matrix(1,0,0,1,408.7416666666666,738.9333333333334) translate(0 14.4)"/><use xlink:href="#v" transform="matrix(1,0,0,1,408.7416666666666,738.9333333333334) translate(66.9 14.4)"/><use xlink:href="#w" transform="matrix(1,0,0,1,408.7416666666666,738.9333333333334) translate(96.9 14.4)"/><path d="M654.67 818.93h-9.9m-9.9 0H615.1m-9.9 0h-19.8m-9.88 0h-19.8m-9.9 0h-19.77m-9.9 0h-19.78m-9.9 0h-19.8m-9.88 0H437m-9.9 0h-19.78m-9.9 0h-19.78m-9.9 0h-19.78m-9.9 0h-9.9" stroke="#000" stroke-width="2" fill="none"/><path d="M655.67 819.93h-1.03v-2h1.03z"/><path d="M312.9 818.93l14.27-4.63v9.27z" stroke="#000" stroke-width="2"/><use xlink:href="#x" transform="matrix(1,0,0,1,409.2416666666666,822.9333333333333) translate(0 14.4)"/><use xlink:href="#v" transform="matrix(1,0,0,1,409.2416666666666,822.9333333333333) translate(65.9 14.4)"/><use xlink:href="#w" transform="matrix(1,0,0,1,409.2416666666666,822.9333333333333) translate(95.9 14.4)"/><path d="M1036.67 851.66h-10.1m-10.1 0H996.3m-10.1 0h-20.17m-10.1.02h-20.18m-10.1 0H905.5m-10.1 0l-20.18.02m-10.1 0h-20.17m-10.1 0h-20.17m-10.1.02H784.4m-10.1 0h-20.17m-10.08 0l-20.2.02m-10.08 0h-20.18m-10.1 0H663.3m-10.1 0l-20.2.02m-10.08 0h-20.18m-10.1 0l-20.18.02m-10.1 0H542.2m-10.1 0h-20.18m-10.1 0l-20.18.02m-10.1 0h-20.17m-10.1 0H421.1m-10.1.02h-20.18m-10.1 0h-20.17m-10.1 0l-20.18.02m-10.1 0H300m-10.1 0h-20.18m-10.1.02h-20.17m-10.1 0h-10.08" stroke="#000" stroke-width="2" fill="none"/><path d="M1037.67 852.66h-1.03v-2h1.03zM219.3 851.87h-2.63v1h-1.4v-2h4.02z"/><path d="M216.67 851.87h80v20h-80z" fill="#fff" fill-opacity="0"/><use xlink:href="#y" transform="matrix(1,0,0,1,221.66666666666663,856.8666666666668) translate(0 14.4)"/><use xlink:href="#z" transform="matrix(1,0,0,1,221.66666666666663,856.8666666666668) translate(5 14.4)"/><path d="M654.67 888.27h-9.9m-9.9 0H615.1m-9.9 0h-19.8m-9.88 0h-19.8m-9.9 0h-19.77m-9.9 0h-19.8m-9.88 0h-19.8m-9.88 0H437m-9.9 0h-19.78m-9.9 0h-19.78m-9.9 0h-19.78m-9.9 0h-9.9" stroke="#000" stroke-width="2" fill="none"/><path d="M655.67 889.27h-1.03v-2h1.03z"/><path d="M312.9 888.27l14.27-4.64v9.27z" stroke="#000" stroke-width="2"/><use xlink:href="#A" transform="matrix(1,0,0,1,392.3666666666666,892.2666666666667) translate(0 14.4)"/><use xlink:href="#B" transform="matrix(1,0,0,1,392.3666666666666,892.2666666666667) translate(110.75000000000001 14.4)"/><use xlink:href="#C" transform="matrix(1,0,0,1,392.3666666666666,892.2666666666667) translate(128.70000000000002 14.4)"/><path d="M310.67 43.2h326.5" stroke="#000" stroke-width="2" fill="none"/><path d="M310.7 44.2h-1.03v-2h1.02z"/><path d="M652.43 43.2l-14.27 4.64v-9.28z" stroke="#000" stroke-width="2"/><use xlink:href="#D" transform="matrix(1,0,0,1,417.26666666666665,17.599999999999927) translate(0 14.4)"/><use xlink:href="#E" transform="matrix(1,0,0,1,417.26666666666665,17.599999999999927) translate(47.95 14.4)"/><path d="M698.67 57.6h258.5" stroke="#000" stroke-width="2" fill="none"/><path d="M698.7 58.6h-1.03v-2h1.02z"/><path d="M972.43 57.6l-14.27 4.64v-9.28z" stroke="#000" stroke-width="2"/><use xlink:href="#F" transform="matrix(1,0,0,1,762.7666666666665,31.999999999999968) translate(0 14.4)"/><use xlink:href="#G" transform="matrix(1,0,0,1,762.7666666666665,31.999999999999968) translate(37.95 14.4)"/><path d="M1018.67 72.27h39v18.66h-21.5" stroke="#000" stroke-width="2" fill="none"/><path d="M1018.7 73.27h-1.03v-2h1.02z"/><path d="M1020.9 90.93l14.27-4.63v9.27z" stroke="#000" stroke-width="2"/><use xlink:href="#H" transform="matrix(1,0,0,1,1065.6666666666665,70.80000000000005) translate(0 14.4)"/><path d="M1018.67 109.6h39v21.33h-21.5" stroke="#000" stroke-width="2" fill="none"/><path d="M1018.7 110.6h-1.03v-2h1.02z"/><path d="M1020.9 130.93l14.27-4.63v9.27z" stroke="#000" stroke-width="2"/><use xlink:href="#I" transform="matrix(1,0,0,1,1065.6666666666665,109.46666666666668) translate(0 14.4)"/><use xlink:href="#J" transform="matrix(1,0,0,1,1065.6666666666665,109.46666666666668) translate(111.85000000000001 14.4)"/><path d="M1018.67 146.93h39v21.34h-21.5" stroke="#000" stroke-width="2" fill="none"/><path d="M1018.7 147.93h-1.03v-2h1.02z"/><path d="M1020.9 168.27l14.27-4.64v9.27z" stroke="#000" stroke-width="2"/><use xlink:href="#K" transform="matrix(1,0,0,1,1065.6666666666665,146.8) translate(0 14.4)"/><use xlink:href="#J" transform="matrix(1,0,0,1,1065.6666666666665,146.8) translate(110.85000000000001 14.4)"/><path d="M1018.67 184.27h39v21.33h-21.5" stroke="#000" stroke-width="2" fill="none"/><path d="M1018.7 185.27h-1.03v-2h1.02z"/><path d="M1020.9 205.6l14.27-4.64v9.28z" stroke="#000" stroke-width="2"/><use xlink:href="#A" transform="matrix(1,0,0,1,1065.6666666666665,184.13333333333347) translate(0 14.4)"/><use xlink:href="#J" transform="matrix(1,0,0,1,1065.6666666666665,184.13333333333347) translate(110.75000000000001 14.4)"/><path d="M1018.67 300.8h39v29.33h-21.5" stroke="#000" stroke-width="2" fill="none"/><path d="M1018.7 301.8h-1.03v-2h1.02z"/><path d="M1020.9 330.13l14.27-4.63v9.27z" stroke="#000" stroke-width="2"/><g><use xlink:href="#L" transform="matrix(1,0,0,1,1065.6666666666665,304.66666666666686) translate(0 14.4)"/></g><path d="M1018.67 370.67h298.5" stroke="#000" stroke-width="2" fill="none"/><path d="M1018.7 371.67h-1.03v-2h1.02z"/><path d="M1332.43 370.67l-14.27 4.63v-9.27z" stroke="#000" stroke-width="2"/><g><use xlink:href="#M" transform="matrix(1,0,0,1,1112.7416666666666,345.0666666666669) translate(0 14.4)"/></g><path d="M1378.67 384h39v37.33h-21.5" stroke="#000" stroke-width="2" fill="none"/><path d="M1378.7 385h-1.03v-2h1.02z"/><path d="M1380.9 421.33l14.27-4.63v9.27z" stroke="#000" stroke-width="2"/><g><use xlink:href="#N" transform="matrix(1,0,0,1,1425.6666666666665,391.8666666666667) translate(0 14.4)"/></g><path d="M1334.67 441.87h-9.95m-9.95 0h-19.9m-9.95 0h-19.9m-9.95 0h-19.9m-9.95 0h-19.9m-9.95 0h-19.9m-9.95 0h-19.9m-9.95 0h-19.9m-9.95 0h-19.9m-9.95 0h-19.9m-9.95 0h-9.95" stroke="#000" stroke-width="2" fill="none"/><path d="M1335.67 442.87h-1.03v-2h1.03z"/><path d="M1020.9 441.87l14.27-4.64v9.27z" stroke="#000" stroke-width="2"/><g><use xlink:href="#O" transform="matrix(1,0,0,1,1141.2416666666666,445.8666666666667) translate(0 14.4)"/></g><path d="M1018.67 483.47h39v42.66h-21.5" stroke="#000" stroke-width="2" fill="none"/><path d="M1018.7 484.47h-1.03v-2h1.02z"/><path d="M1020.9 526.13l14.27-4.63v9.27z" stroke="#000" stroke-width="2"/><g><use xlink:href="#P" transform="matrix(1,0,0,1,1065.6666666666665,494.0000000000001) translate(0 14.4)"/></g><path d="M974.67 555.47h-258.5" stroke="#000" stroke-width="2" fill="none"/><path d="M975.67 556.47h-1.03v-2h1.03z"/><path d="M700.9 555.47l14.27-4.64v9.27z" stroke="#000" stroke-width="2"/><g><use xlink:href="#Q" transform="matrix(1,0,0,1,751.7916666666666,559.4666666666668) translate(0 14.4)"/><use xlink:href="#R" transform="matrix(1,0,0,1,751.7916666666666,559.4666666666668) translate(87.9 14.4)"/></g><path d="M654.67 576.8h-326.5" stroke="#000" stroke-width="2" fill="none"/><path d="M655.67 577.8h-1.03v-2h1.03z"/><path d="M312.9 576.8l14.27-4.64v9.28z" stroke="#000" stroke-width="2"/><g><use xlink:href="#Q" transform="matrix(1,0,0,1,395.21666666666664,580.8000000000002) translate(0 14.4)"/><use xlink:href="#S" transform="matrix(1,0,0,1,395.21666666666664,580.8000000000002) translate(87.9 14.4)"/></g><defs><path d="M30-248c118-7 216 8 213 122C240-48 200 0 122 0H30v-248zM63-27c89 8 146-16 146-99s-60-101-146-95v194" id="T"/><path d="M100-194c63 0 86 42 84 106H49c0 40 14 67 53 68 26 1 43-12 49-29l28 8c-11 28-37 45-77 45C44 4 14-33 15-96c1-61 26-98 85-98zm52 81c6-60-76-77-97-28-3 7-6 17-6 28h103" id="U"/><path d="M96-169c-40 0-48 33-48 73s9 75 48 75c24 0 41-14 43-38l32 2c-6 37-31 61-74 61-59 0-76-41-82-99-10-93 101-131 147-64 4 7 5 14 7 22l-32 3c-4-21-16-35-41-35" id="V"/><path d="M114-163C36-179 61-72 57 0H25l-1-190h30c1 12-1 29 2 39 6-27 23-49 58-41v29" id="W"/><path d="M179-190L93 31C79 59 56 82 12 73V49c39 6 53-20 64-50L1-190h34L92-34l54-156h33" id="X"/><path d="M115-194c55 1 70 41 70 98S169 2 115 4C84 4 66-9 55-30l1 105H24l-1-265h31l2 30c10-21 28-34 59-34zm-8 174c40 0 45-34 45-75s-6-73-45-74c-42 0-51 32-51 76 0 43 10 73 51 73" id="Y"/><path d="M59-47c-2 24 18 29 38 22v24C64 9 27 4 27-40v-127H5v-23h24l9-43h21v43h35v23H59v120" id="Z"/><path d="M24-231v-30h32v30H24zM24 0v-190h32V0H24" id="aa"/><path d="M100-194c62-1 85 37 85 99 1 63-27 99-86 99S16-35 15-95c0-66 28-99 85-99zM99-20c44 1 53-31 53-75 0-43-8-75-51-75s-53 32-53 75 10 74 51 75" id="ab"/><path d="M117-194c89-4 53 116 60 194h-32v-121c0-31-8-49-39-48C34-167 62-67 57 0H25l-1-190h30c1 10-1 24 2 32 11-22 29-35 61-36" id="ac"/><g id="a"><use transform="matrix(0.08641975308641976,0,0,0.08641975308641976,0,0)" xlink:href="#T"/><use transform="matrix(0.08641975308641976,0,0,0.08641975308641976,22.38271604938272,0)" xlink:href="#U"/><use transform="matrix(0.08641975308641976,0,0,0.08641975308641976,39.66666666666667,0)" xlink:href="#V"/><use transform="matrix(0.08641975308641976,0,0,0.08641975308641976,55.22222222222223,0)" xlink:href="#W"/><use transform="matrix(0.08641975308641976,0,0,0.08641975308641976,65.50617283950618,0)" xlink:href="#X"/><use transform="matrix(0.08641975308641976,0,0,0.08641975308641976,81.06172839506173,0)" xlink:href="#Y"/><use transform="matrix(0.08641975308641976,0,0,0.08641975308641976,98.34567901234568,0)" xlink:href="#Z"/><use transform="matrix(0.08641975308641976,0,0,0.08641975308641976,106.98765432098766,0)" xlink:href="#aa"/><use transform="matrix(0.08641975308641976,0,0,0.08641975308641976,113.81481481481482,0)" xlink:href="#ab"/><use transform="matrix(0.08641975308641976,0,0,0.08641975308641976,131.0987654320988,0)" xlink:href="#ac"/><path d="M-1.56 2.16h160.14v2.28H-1.56z"/></g><path d="M185-189c-5-48-123-54-124 2 14 75 158 14 163 119 3 78-121 87-175 55-17-10-28-26-33-46l33-7c5 56 141 63 141-1 0-78-155-14-162-118-5-82 145-84 179-34 5 7 8 16 11 25" id="ad"/><path d="M145-31C134-9 116 4 85 4 32 4 16-35 15-94c0-59 17-99 70-100 32-1 48 14 60 33 0-11-1-24 2-32h30l-1 268h-32zM93-21c41 0 51-33 51-76s-8-73-50-73c-40 0-46 35-46 75s5 74 45 74" id="ae"/><path d="M84 4C-5 8 30-112 23-190h32v120c0 31 7 50 39 49 72-2 45-101 50-169h31l1 190h-30c-1-10 1-25-2-33-11 22-28 36-60 37" id="af"/><g id="b"><use transform="matrix(0.08641975308641976,0,0,0.08641975308641976,0,0)" xlink:href="#ad"/><use transform="matrix(0.08641975308641976,0,0,0.08641975308641976,20.740740740740744,0)" xlink:href="#U"/><use transform="matrix(0.08641975308641976,0,0,0.08641975308641976,38.0246913580247,0)" xlink:href="#ae"/><use transform="matrix(0.08641975308641976,0,0,0.08641975308641976,55.308641975308646,0)" xlink:href="#af"/><use transform="matrix(0.08641975308641976,0,0,0.08641975308641976,72.5925925925926,0)" xlink:href="#U"/><use transform="matrix(0.08641975308641976,0,0,0.08641975308641976,89.87654320987656,0)" xlink:href="#ac"/><use transform="matrix(0.08641975308641976,0,0,0.08641975308641976,107.16049382716048,0)" xlink:href="#V"/><use transform="matrix(0.08641975308641976,0,0,0.08641975308641976,122.71604938271604,0)" xlink:href="#U"/><path d="M-1.56 2.16H150.2v2.28H-1.57z"/></g><path d="M141-36C126-15 110 5 73 4 37 3 15-17 15-53c-1-64 63-63 125-63 3-35-9-54-41-54-24 1-41 7-42 31l-33-3c5-37 33-52 76-52 45 0 72 20 72 64v82c-1 20 7 32 28 27v20c-31 9-61-2-59-35zM48-53c0 20 12 33 32 33 41-3 63-29 60-74-43 2-92-5-92 41" id="ag"/><path d="M177-190C167-65 218 103 67 71c-23-6-38-20-44-43l32-5c15 47 100 32 89-28v-30C133-14 115 1 83 1 29 1 15-40 15-95c0-56 16-97 71-98 29-1 48 16 59 35 1-10 0-23 2-32h30zM94-22c36 0 50-32 50-73 0-42-14-75-50-75-39 0-46 34-46 75s6 73 46 73" id="ah"/><path d="M210-169c-67 3-38 105-44 169h-31v-121c0-29-5-50-35-48C34-165 62-65 56 0H25l-1-190h30c1 10-1 24 2 32 10-44 99-50 107 0 11-21 27-35 58-36 85-2 47 119 55 194h-31v-121c0-29-5-49-35-48" id="ai"/><g id="c"><use transform="matrix(0.08641975308641976,0,0,0.08641975308641976,0,0)" xlink:href="#T"/><use transform="matrix(0.08641975308641976,0,0,0.08641975308641976,22.38271604938272,0)" xlink:href="#aa"/><use transform="matrix(0.08641975308641976,0,0,0.08641975308641976,29.20987654320988,0)" xlink:href="#ag"/><use transform="matrix(0.08641975308641976,0,0,0.08641975308641976,46.49382716049383,0)" xlink:href="#ah"/><use transform="matrix(0.08641975308641976,0,0,0.08641975308641976,63.777777777777786,0)" xlink:href="#W"/><use transform="matrix(0.08641975308641976,0,0,0.08641975308641976,74.06172839506173,0)" xlink:href="#ag"/><use transform="matrix(0.08641975308641976,0,0,0.08641975308641976,91.34567901234568,0)" xlink:href="#ai"/><path d="M-1.56 2.16h120.3v2.28H-1.56z"/></g><path d="M232-93c-1 65-40 97-104 97C67 4 28-28 28-90v-158h33c8 89-33 224 67 224 102 0 64-133 71-224h33v155" id="aj"/><path d="M135-143c-3-34-86-38-87 0 15 53 115 12 119 90S17 21 10-45l28-5c4 36 97 45 98 0-10-56-113-15-118-90-4-57 82-63 122-42 12 7 21 19 24 35" id="ak"/><g id="d"><use transform="matrix(0.05,0,0,0.05,0,0)" xlink:href="#aj"/><use transform="matrix(0.05,0,0,0.05,12.950000000000001,0)" xlink:href="#ak"/><use transform="matrix(0.05,0,0,0.05,21.950000000000003,0)" xlink:href="#U"/><use transform="matrix(0.05,0,0,0.05,31.950000000000003,0)" xlink:href="#W"/></g><path d="M33-154v-36h34v36H33zM33 0v-36h34V0H33" id="al"/><path d="M212-179c-10-28-35-45-73-45-59 0-87 40-87 99 0 60 29 101 89 101 43 0 62-24 78-52l27 14C228-24 195 4 139 4 59 4 22-46 18-125c-6-104 99-153 187-111 19 9 31 26 39 46" id="am"/><path d="M85-194c31 0 48 13 60 33l-1-100h32l1 261h-30c-2-10 0-23-3-31C134-8 116 4 85 4 32 4 16-35 15-94c0-66 23-100 70-100zm9 24c-40 0-46 34-46 75 0 40 6 74 45 74 42 0 51-32 51-76 0-42-9-74-50-73" id="an"/><g id="e"><use transform="matrix(0.05,0,0,0.05,0,0)" xlink:href="#al"/><use transform="matrix(0.05,0,0,0.05,5,0)" xlink:href="#am"/><use transform="matrix(0.05,0,0,0.05,17.950000000000003,0)" xlink:href="#ab"/><use transform="matrix(0.05,0,0,0.05,27.950000000000003,0)" xlink:href="#ai"/><use transform="matrix(0.05,0,0,0.05,42.900000000000006,0)" xlink:href="#ai"/><use transform="matrix(0.05,0,0,0.05,57.85,0)" xlink:href="#ag"/><use transform="matrix(0.05,0,0,0.05,67.85000000000001,0)" xlink:href="#ac"/><use transform="matrix(0.05,0,0,0.05,77.85000000000001,0)" xlink:href="#an"/></g><path d="M30 0v-248h33v221h125V0H30" id="ao"/><g id="f"><use transform="matrix(0.05,0,0,0.05,0,0)" xlink:href="#ao"/><use transform="matrix(0.05,0,0,0.05,10,0)" xlink:href="#aa"/><use transform="matrix(0.05,0,0,0.05,13.949999999999998,0)" xlink:href="#ac"/><use transform="matrix(0.05,0,0,0.05,23.95,0)" xlink:href="#U"/></g><path d="M24 0v-261h32V0H24" id="ap"/><g id="g"><use transform="matrix(0.05,0,0,0.05,0,0)" xlink:href="#aj"/><use transform="matrix(0.05,0,0,0.05,12.950000000000001,0)" xlink:href="#Z"/><use transform="matrix(0.05,0,0,0.05,17.950000000000003,0)" xlink:href="#aa"/><use transform="matrix(0.05,0,0,0.05,21.900000000000002,0)" xlink:href="#ap"/><use transform="matrix(0.05,0,0,0.05,25.85,0)" xlink:href="#aa"/><use transform="matrix(0.05,0,0,0.05,29.8,0)" xlink:href="#Z"/><use transform="matrix(0.05,0,0,0.05,34.8,0)" xlink:href="#X"/></g><g id="h"><use transform="matrix(0.05,0,0,0.05,0,0)" xlink:href="#al"/><use transform="matrix(0.05,0,0,0.05,5,0)" xlink:href="#T"/><use transform="matrix(0.05,0,0,0.05,17.950000000000003,0)" xlink:href="#U"/><use transform="matrix(0.05,0,0,0.05,27.950000000000003,0)" xlink:href="#V"/><use transform="matrix(0.05,0,0,0.05,36.95,0)" xlink:href="#W"/><use transform="matrix(0.05,0,0,0.05,42.900000000000006,0)" xlink:href="#X"/><use transform="matrix(0.05,0,0,0.05,51.900000000000006,0)" xlink:href="#Y"/><use transform="matrix(0.05,0,0,0.05,61.900000000000006,0)" xlink:href="#Z"/><use transform="matrix(0.05,0,0,0.05,66.9,0)" xlink:href="#aa"/><use transform="matrix(0.05,0,0,0.05,70.85000000000001,0)" xlink:href="#ab"/><use transform="matrix(0.05,0,0,0.05,80.85000000000001,0)" xlink:href="#ac"/></g><path d="M194 0L95-120 63-95V0H30v-248h33v124l119-124h40L117-140 236 0h-42" id="aq"/><g id="i"><use transform="matrix(0.05,0,0,0.05,0,0)" xlink:href="#al"/><use transform="matrix(0.05,0,0,0.05,5,0)" xlink:href="#aq"/><use transform="matrix(0.05,0,0,0.05,17,0)" xlink:href="#U"/><use transform="matrix(0.05,0,0,0.05,27,0)" xlink:href="#X"/></g><path d="M205 0l-28-72H64L36 0H1l101-248h38L239 0h-34zm-38-99l-47-123c-12 45-31 82-46 123h93" id="ar"/><path d="M108 0H70L1-190h34L89-25l56-165h34" id="as"/><g id="j"><use transform="matrix(0.05,0,0,0.05,0,0)" xlink:href="#ar"/><use transform="matrix(0.05,0,0,0.05,12,0)" xlink:href="#ap"/><use transform="matrix(0.05,0,0,0.05,15.949999999999998,0)" xlink:href="#Z"/><use transform="matrix(0.05,0,0,0.05,20.95,0)" xlink:href="#U"/><use transform="matrix(0.05,0,0,0.05,30.950000000000003,0)" xlink:href="#W"/><use transform="matrix(0.05,0,0,0.05,36.9,0)" xlink:href="#ac"/><use transform="matrix(0.05,0,0,0.05,46.9,0)" xlink:href="#ag"/><use transform="matrix(0.05,0,0,0.05,56.900000000000006,0)" xlink:href="#Z"/><use transform="matrix(0.05,0,0,0.05,61.900000000000006,0)" xlink:href="#aa"/><use transform="matrix(0.05,0,0,0.05,65.85,0)" xlink:href="#as"/><use transform="matrix(0.05,0,0,0.05,74.85,0)" xlink:href="#U"/></g><path d="M26 75v-336h71v23H56V52h41v23H26" id="at"/><path d="M141 0L90-78 38 0H4l68-98-65-92h35l48 74 47-74h35l-64 92 68 98h-35" id="au"/><path d="M-5 72V49h209v23H-5" id="av"/><path d="M101-234c-31-9-42 10-38 44h38v23H63V0H32v-167H5v-23h27c-7-52 17-82 69-68v24" id="aw"/><g id="k"><use transform="matrix(0.05,0,0,0.05,0,0)" xlink:href="#at"/><use transform="matrix(0.05,0,0,0.05,5,0)" xlink:href="#Z"/><use transform="matrix(0.05,0,0,0.05,10,0)" xlink:href="#U"/><use transform="matrix(0.05,0,0,0.05,20,0)" xlink:href="#au"/><use transform="matrix(0.05,0,0,0.05,29,0)" xlink:href="#Z"/><use transform="matrix(0.05,0,0,0.05,34,0)" xlink:href="#av"/><use transform="matrix(0.05,0,0,0.05,44,0)" xlink:href="#aw"/><use transform="matrix(0.05,0,0,0.05,49,0)" xlink:href="#aa"/><use transform="matrix(0.05,0,0,0.05,52.95,0)" xlink:href="#ap"/><use transform="matrix(0.05,0,0,0.05,56.900000000000006,0)" xlink:href="#U"/><use transform="matrix(0.05,0,0,0.05,66.9,0)" xlink:href="#ac"/><use transform="matrix(0.05,0,0,0.05,76.9,0)" xlink:href="#ag"/><use transform="matrix(0.05,0,0,0.05,86.9,0)" xlink:href="#ai"/><use transform="matrix(0.05,0,0,0.05,101.85000000000001,0)" xlink:href="#U"/></g><path d="M63-70H37l-4-178h34zM33 0v-35h34V0H33" id="ax"/><path d="M18-150v-26h174v26H18zm0 90v-26h174v26H18" id="ay"/><g id="l"><use transform="matrix(0.05,0,0,0.05,0,0)" xlink:href="#ax"/><use transform="matrix(0.05,0,0,0.05,5,0)" xlink:href="#ay"/></g><path d="M190 0L58-211 59 0H30v-248h39L202-35l-2-213h31V0h-41" id="az"/><g id="m"><use transform="matrix(0.05,0,0,0.05,0,0)" xlink:href="#az"/><use transform="matrix(0.05,0,0,0.05,12.950000000000001,0)" xlink:href="#af"/><use transform="matrix(0.05,0,0,0.05,22.950000000000003,0)" xlink:href="#ap"/><use transform="matrix(0.05,0,0,0.05,26.900000000000002,0)" xlink:href="#ap"/></g><g id="n"><use transform="matrix(0.05,0,0,0.05,0,0)" xlink:href="#ar"/><use transform="matrix(0.05,0,0,0.05,12,0)" xlink:href="#az"/><use transform="matrix(0.05,0,0,0.05,24.950000000000003,0)" xlink:href="#T"/></g><path d="M143 0L79-87 56-68V0H24v-261h32v163l83-92h37l-77 82L181 0h-38" id="aA"/><g id="o"><use transform="matrix(0.05,0,0,0.05,0,0)" xlink:href="#aA"/><use transform="matrix(0.05,0,0,0.05,9,0)" xlink:href="#U"/><use transform="matrix(0.05,0,0,0.05,19,0)" xlink:href="#X"/><use transform="matrix(0.05,0,0,0.05,28,0)" xlink:href="#av"/><use transform="matrix(0.05,0,0,0.05,38,0)" xlink:href="#aw"/><use transform="matrix(0.05,0,0,0.05,43,0)" xlink:href="#aa"/><use transform="matrix(0.05,0,0,0.05,46.95,0)" xlink:href="#ap"/><use transform="matrix(0.05,0,0,0.05,50.900000000000006,0)" xlink:href="#U"/><use transform="matrix(0.05,0,0,0.05,60.900000000000006,0)" xlink:href="#ac"/><use transform="matrix(0.05,0,0,0.05,70.9,0)" xlink:href="#ag"/><use transform="matrix(0.05,0,0,0.05,80.9,0)" xlink:href="#ai"/><use transform="matrix(0.05,0,0,0.05,95.85000000000001,0)" xlink:href="#U"/></g><path d="M140-251c81 0 123 46 123 126C263-46 219 4 140 4 59 4 17-45 17-125s42-126 123-126zm0 227c63 0 89-41 89-101s-29-99-89-99c-61 0-89 39-89 99S79-25 140-24" id="aB"/><path d="M63-220v92h138v28H63V0H30v-248h175v28H63" id="aC"/><g id="p"><use transform="matrix(0.05,0,0,0.05,0,0)" xlink:href="#aB"/><use transform="matrix(0.05,0,0,0.05,14,0)" xlink:href="#af"/><use transform="matrix(0.05,0,0,0.05,24,0)" xlink:href="#Z"/><use transform="matrix(0.05,0,0,0.05,29,0)" xlink:href="#aC"/><use transform="matrix(0.05,0,0,0.05,39.95,0)" xlink:href="#aa"/><use transform="matrix(0.05,0,0,0.05,43.900000000000006,0)" xlink:href="#ap"/><use transform="matrix(0.05,0,0,0.05,47.85000000000001,0)" xlink:href="#U"/><use transform="matrix(0.05,0,0,0.05,57.85,0)" xlink:href="#az"/><use transform="matrix(0.05,0,0,0.05,70.80000000000001,0)" xlink:href="#ag"/><use transform="matrix(0.05,0,0,0.05,80.80000000000001,0)" xlink:href="#ai"/><use transform="matrix(0.05,0,0,0.05,95.75000000000001,0)" xlink:href="#U"/></g><path d="M3 75V52h41v-290H3v-23h71V75H3" id="aD"/><g id="q"><use transform="matrix(0.05,0,0,0.05,0,0)" xlink:href="#az"/><use transform="matrix(0.05,0,0,0.05,12.950000000000001,0)" xlink:href="#af"/><use transform="matrix(0.05,0,0,0.05,22.950000000000003,0)" xlink:href="#ap"/><use transform="matrix(0.05,0,0,0.05,26.900000000000002,0)" xlink:href="#ap"/><use transform="matrix(0.05,0,0,0.05,30.85,0)" xlink:href="#aD"/></g><path d="M30 0v-248h187v28H63v79h144v27H63v87h162V0H30" id="aE"/><g id="r"><use transform="matrix(0.05,0,0,0.05,0,0)" xlink:href="#at"/><use transform="matrix(0.05,0,0,0.05,5,0)" xlink:href="#aE"/><use transform="matrix(0.05,0,0,0.05,17,0)" xlink:href="#ap"/><use transform="matrix(0.05,0,0,0.05,20.95,0)" xlink:href="#ak"/><use transform="matrix(0.05,0,0,0.05,29.950000000000003,0)" xlink:href="#U"/><use transform="matrix(0.05,0,0,0.05,39.95,0)" xlink:href="#aD"/></g><use transform="matrix(0.05,0,0,0.05,0,0)" xlink:href="#ay" id="s"/><g id="t"><use transform="matrix(0.05,0,0,0.05,0,0)" xlink:href="#at"/><use transform="matrix(0.05,0,0,0.05,5,0)" xlink:href="#aA"/><use transform="matrix(0.05,0,0,0.05,14,0)" xlink:href="#U"/><use transform="matrix(0.05,0,0,0.05,24,0)" xlink:href="#X"/><use transform="matrix(0.05,0,0,0.05,33,0)" xlink:href="#av"/><use transform="matrix(0.05,0,0,0.05,43,0)" xlink:href="#aw"/><use transform="matrix(0.05,0,0,0.05,48,0)" xlink:href="#aa"/><use transform="matrix(0.05,0,0,0.05,51.95,0)" xlink:href="#ap"/><use transform="matrix(0.05,0,0,0.05,55.900000000000006,0)" xlink:href="#U"/><use transform="matrix(0.05,0,0,0.05,65.9,0)" xlink:href="#ac"/><use transform="matrix(0.05,0,0,0.05,75.9,0)" xlink:href="#ag"/><use transform="matrix(0.05,0,0,0.05,85.9,0)" xlink:href="#ai"/><use transform="matrix(0.05,0,0,0.05,100.85000000000001,0)" xlink:href="#U"/></g><g id="u"><use transform="matrix(0.05,0,0,0.05,0,0)" xlink:href="#Z"/><use transform="matrix(0.05,0,0,0.05,5,0)" xlink:href="#U"/><use transform="matrix(0.05,0,0,0.05,15,0)" xlink:href="#au"/><use transform="matrix(0.05,0,0,0.05,24,0)" xlink:href="#Z"/><use transform="matrix(0.05,0,0,0.05,29,0)" xlink:href="#av"/><use transform="matrix(0.05,0,0,0.05,39,0)" xlink:href="#aw"/><use transform="matrix(0.05,0,0,0.05,44,0)" xlink:href="#aa"/><use transform="matrix(0.05,0,0,0.05,47.95,0)" xlink:href="#ap"/><use transform="matrix(0.05,0,0,0.05,51.900000000000006,0)" xlink:href="#U"/></g><g id="v"><use transform="matrix(0.05,0,0,0.05,0,0)" xlink:href="#ac"/><use transform="matrix(0.05,0,0,0.05,10,0)" xlink:href="#ab"/><use transform="matrix(0.05,0,0,0.05,20,0)" xlink:href="#Z"/></g><g id="w"><use transform="matrix(0.05,0,0,0.05,0,0)" xlink:href="#aC"/><use transform="matrix(0.05,0,0,0.05,10.950000000000001,0)" xlink:href="#ab"/><use transform="matrix(0.05,0,0,0.05,20.950000000000003,0)" xlink:href="#af"/><use transform="matrix(0.05,0,0,0.05,30.950000000000003,0)" xlink:href="#ac"/><use transform="matrix(0.05,0,0,0.05,40.95,0)" xlink:href="#an"/></g><g id="x"><use transform="matrix(0.05,0,0,0.05,0,0)" xlink:href="#aA"/><use transform="matrix(0.05,0,0,0.05,9,0)" xlink:href="#U"/><use transform="matrix(0.05,0,0,0.05,19,0)" xlink:href="#X"/><use transform="matrix(0.05,0,0,0.05,28,0)" xlink:href="#av"/><use transform="matrix(0.05,0,0,0.05,38,0)" xlink:href="#aw"/><use transform="matrix(0.05,0,0,0.05,43,0)" xlink:href="#aa"/><use transform="matrix(0.05,0,0,0.05,46.95,0)" xlink:href="#ap"/><use transform="matrix(0.05,0,0,0.05,50.900000000000006,0)" xlink:href="#U"/></g><g id="z"><use transform="matrix(0.05,0,0,0.05,0,0)" xlink:href="#at"/><use transform="matrix(0.05,0,0,0.05,5,0)" xlink:href="#aE"/><use transform="matrix(0.05,0,0,0.05,17,0)" xlink:href="#ap"/><use transform="matrix(0.05,0,0,0.05,20.95,0)" xlink:href="#ak"/><use transform="matrix(0.05,0,0,0.05,29.950000000000003,0)" xlink:href="#U"/><use transform="matrix(0.05,0,0,0.05,39.95,0)" xlink:href="#aD"/></g><g id="A"><use transform="matrix(0.05,0,0,0.05,0,0)" xlink:href="#aB"/><use transform="matrix(0.05,0,0,0.05,14,0)" xlink:href="#af"/><use transform="matrix(0.05,0,0,0.05,24,0)" xlink:href="#Z"/><use transform="matrix(0.05,0,0,0.05,29,0)" xlink:href="#aC"/><use transform="matrix(0.05,0,0,0.05,39.95,0)" xlink:href="#aa"/><use transform="matrix(0.05,0,0,0.05,43.900000000000006,0)" xlink:href="#ap"/><use transform="matrix(0.05,0,0,0.05,47.85000000000001,0)" xlink:href="#U"/><use transform="matrix(0.05,0,0,0.05,57.85,0)" xlink:href="#az"/><use transform="matrix(0.05,0,0,0.05,70.80000000000001,0)" xlink:href="#ag"/><use transform="matrix(0.05,0,0,0.05,80.80000000000001,0)" xlink:href="#ai"/><use transform="matrix(0.05,0,0,0.05,95.75000000000001,0)" xlink:href="#U"/></g><g id="B"><use transform="matrix(0.05,0,0,0.05,0,0)" xlink:href="#aa"/><use transform="matrix(0.05,0,0,0.05,3.95,0)" xlink:href="#ak"/></g><path d="M33 0v-248h34V0H33" id="aF"/><g id="C"><use transform="matrix(0.05,0,0,0.05,0,0)" xlink:href="#aF"/><use transform="matrix(0.05,0,0,0.05,5,0)" xlink:href="#ac"/><use transform="matrix(0.05,0,0,0.05,15,0)" xlink:href="#as"/><use transform="matrix(0.05,0,0,0.05,24,0)" xlink:href="#ag"/><use transform="matrix(0.05,0,0,0.05,34,0)" xlink:href="#ap"/><use transform="matrix(0.05,0,0,0.05,37.95,0)" xlink:href="#aa"/><use transform="matrix(0.05,0,0,0.05,41.900000000000006,0)" xlink:href="#an"/></g><g id="D"><use transform="matrix(0.05,0,0,0.05,0,0)" xlink:href="#aE"/><use transform="matrix(0.05,0,0,0.05,12,0)" xlink:href="#ac"/><use transform="matrix(0.05,0,0,0.05,22,0)" xlink:href="#Z"/><use transform="matrix(0.05,0,0,0.05,27,0)" xlink:href="#U"/><use transform="matrix(0.05,0,0,0.05,37,0)" xlink:href="#W"/></g><g id="E"><use transform="matrix(0.05,0,0,0.05,0,0)" xlink:href="#am"/><use transform="matrix(0.05,0,0,0.05,12.950000000000001,0)" xlink:href="#ab"/><use transform="matrix(0.05,0,0,0.05,22.950000000000003,0)" xlink:href="#ai"/><use transform="matrix(0.05,0,0,0.05,37.900000000000006,0)" xlink:href="#ai"/><use transform="matrix(0.05,0,0,0.05,52.85,0)" xlink:href="#ag"/><use transform="matrix(0.05,0,0,0.05,62.85,0)" xlink:href="#ac"/><use transform="matrix(0.05,0,0,0.05,72.85000000000001,0)" xlink:href="#an"/></g><path d="M233-177c-1 41-23 64-60 70L243 0h-38l-65-103H63V0H30v-248c88 3 205-21 203 71zM63-129c60-2 137 13 137-47 0-61-80-42-137-45v92" id="aG"/><g id="F"><use transform="matrix(0.05,0,0,0.05,0,0)" xlink:href="#aG"/><use transform="matrix(0.05,0,0,0.05,12.950000000000001,0)" xlink:href="#af"/><use transform="matrix(0.05,0,0,0.05,22.950000000000003,0)" xlink:href="#ac"/></g><path d="M33 0v-38h34V0H33" id="aH"/><g id="G"><use transform="matrix(0.05,0,0,0.05,0,0)" xlink:href="#T"/><use transform="matrix(0.05,0,0,0.05,12.950000000000001,0)" xlink:href="#U"/><use transform="matrix(0.05,0,0,0.05,22.950000000000003,0)" xlink:href="#V"/><use transform="matrix(0.05,0,0,0.05,31.950000000000003,0)" xlink:href="#W"/><use transform="matrix(0.05,0,0,0.05,37.900000000000006,0)" xlink:href="#X"/><use transform="matrix(0.05,0,0,0.05,46.900000000000006,0)" xlink:href="#Y"/><use transform="matrix(0.05,0,0,0.05,56.900000000000006,0)" xlink:href="#Z"/><use transform="matrix(0.05,0,0,0.05,61.900000000000006,0)" xlink:href="#aa"/><use transform="matrix(0.05,0,0,0.05,65.85000000000001,0)" xlink:href="#ab"/><use transform="matrix(0.05,0,0,0.05,75.85000000000001,0)" xlink:href="#ac"/><use transform="matrix(0.05,0,0,0.05,85.85000000000001,0)" xlink:href="#aH"/><use transform="matrix(0.05,0,0,0.05,90.85000000000001,0)" xlink:href="#Y"/><use transform="matrix(0.05,0,0,0.05,100.85000000000001,0)" xlink:href="#X"/></g><path d="M106-169C34-169 62-67 57 0H25v-261h32l-1 103c12-21 28-36 61-36 89 0 53 116 60 194h-32v-121c2-32-8-49-39-48" id="aI"/><path d="M87 75C49 33 22-17 22-94c0-76 28-126 65-167h31c-38 41-64 92-64 168S80 34 118 75H87" id="aJ"/><path d="M33-261c38 41 65 92 65 168S71 34 33 75H2C39 34 66-17 66-93S39-220 2-261h31" id="aK"/><g id="H"><use transform="matrix(0.05,0,0,0.05,0,0)" xlink:href="#V"/><use transform="matrix(0.05,0,0,0.05,9,0)" xlink:href="#W"/><use transform="matrix(0.05,0,0,0.05,14.949999999999998,0)" xlink:href="#U"/><use transform="matrix(0.05,0,0,0.05,24.95,0)" xlink:href="#ag"/><use transform="matrix(0.05,0,0,0.05,34.95,0)" xlink:href="#Z"/><use transform="matrix(0.05,0,0,0.05,39.95,0)" xlink:href="#U"/><use transform="matrix(0.05,0,0,0.05,49.95,0)" xlink:href="#av"/><use transform="matrix(0.05,0,0,0.05,59.95,0)" xlink:href="#U"/><use transform="matrix(0.05,0,0,0.05,69.95,0)" xlink:href="#as"/><use transform="matrix(0.05,0,0,0.05,78.95,0)" xlink:href="#U"/><use transform="matrix(0.05,0,0,0.05,88.95,0)" xlink:href="#W"/><use transform="matrix(0.05,0,0,0.05,94.9,0)" xlink:href="#X"/><use transform="matrix(0.05,0,0,0.05,103.9,0)" xlink:href="#Z"/><use transform="matrix(0.05,0,0,0.05,108.9,0)" xlink:href="#aI"/><use transform="matrix(0.05,0,0,0.05,118.9,0)" xlink:href="#aa"/><use transform="matrix(0.05,0,0,0.05,122.85000000000001,0)" xlink:href="#ac"/><use transform="matrix(0.05,0,0,0.05,132.85000000000002,0)" xlink:href="#ah"/><use transform="matrix(0.05,0,0,0.05,142.85000000000002,0)" xlink:href="#aJ"/><use transform="matrix(0.05,0,0,0.05,148.8,0)" xlink:href="#aK"/></g><g id="I"><use transform="matrix(0.05,0,0,0.05,0,0)" xlink:href="#Z"/><use transform="matrix(0.05,0,0,0.05,5,0)" xlink:href="#U"/><use transform="matrix(0.05,0,0,0.05,15,0)" xlink:href="#au"/><use transform="matrix(0.05,0,0,0.05,24,0)" xlink:href="#Z"/><use transform="matrix(0.05,0,0,0.05,29,0)" xlink:href="#av"/><use transform="matrix(0.05,0,0,0.05,39,0)" xlink:href="#aw"/><use transform="matrix(0.05,0,0,0.05,44,0)" xlink:href="#aa"/><use transform="matrix(0.05,0,0,0.05,47.95,0)" xlink:href="#ap"/><use transform="matrix(0.05,0,0,0.05,51.900000000000006,0)" xlink:href="#U"/><use transform="matrix(0.05,0,0,0.05,61.900000000000006,0)" xlink:href="#ac"/><use transform="matrix(0.05,0,0,0.05,71.9,0)" xlink:href="#ag"/><use transform="matrix(0.05,0,0,0.05,81.9,0)" xlink:href="#ai"/><use transform="matrix(0.05,0,0,0.05,96.85000000000001,0)" xlink:href="#U"/></g><g id="J"><use transform="matrix(0.05,0,0,0.05,0,0)" xlink:href="#aF"/><use transform="matrix(0.05,0,0,0.05,5,0)" xlink:href="#ac"/><use transform="matrix(0.05,0,0,0.05,15,0)" xlink:href="#aa"/><use transform="matrix(0.05,0,0,0.05,18.95,0)" xlink:href="#Z"/><use transform="matrix(0.05,0,0,0.05,23.95,0)" xlink:href="#aa"/><use transform="matrix(0.05,0,0,0.05,27.899999999999995,0)" xlink:href="#ag"/><use transform="matrix(0.05,0,0,0.05,37.9,0)" xlink:href="#ap"/><use transform="matrix(0.05,0,0,0.05,41.85,0)" xlink:href="#aa"/><use transform="matrix(0.05,0,0,0.05,45.800000000000004,0)" xlink:href="#ak"/><use transform="matrix(0.05,0,0,0.05,54.800000000000004,0)" xlink:href="#U"/><use transform="matrix(0.05,0,0,0.05,64.80000000000001,0)" xlink:href="#an"/></g><g id="K"><use transform="matrix(0.05,0,0,0.05,0,0)" xlink:href="#aA"/><use transform="matrix(0.05,0,0,0.05,9,0)" xlink:href="#U"/><use transform="matrix(0.05,0,0,0.05,19,0)" xlink:href="#X"/><use transform="matrix(0.05,0,0,0.05,28,0)" xlink:href="#av"/><use transform="matrix(0.05,0,0,0.05,38,0)" xlink:href="#aw"/><use transform="matrix(0.05,0,0,0.05,43,0)" xlink:href="#aa"/><use transform="matrix(0.05,0,0,0.05,46.95,0)" xlink:href="#ap"/><use transform="matrix(0.05,0,0,0.05,50.900000000000006,0)" xlink:href="#U"/><use transform="matrix(0.05,0,0,0.05,60.900000000000006,0)" xlink:href="#ac"/><use transform="matrix(0.05,0,0,0.05,70.9,0)" xlink:href="#ag"/><use transform="matrix(0.05,0,0,0.05,80.9,0)" xlink:href="#ai"/><use transform="matrix(0.05,0,0,0.05,95.85000000000001,0)" xlink:href="#U"/></g><g id="L"><use transform="matrix(0.05,0,0,0.05,0,0)" xlink:href="#aa"/><use transform="matrix(0.05,0,0,0.05,3.95,0)" xlink:href="#ac"/><use transform="matrix(0.05,0,0,0.05,13.949999999999998,0)" xlink:href="#Y"/><use transform="matrix(0.05,0,0,0.05,23.95,0)" xlink:href="#af"/><use transform="matrix(0.05,0,0,0.05,33.95,0)" xlink:href="#Z"/><use transform="matrix(0.05,0,0,0.05,38.95,0)" xlink:href="#av"/><use transform="matrix(0.05,0,0,0.05,48.95,0)" xlink:href="#Z"/><use transform="matrix(0.05,0,0,0.05,53.95,0)" xlink:href="#U"/><use transform="matrix(0.05,0,0,0.05,63.95,0)" xlink:href="#au"/><use transform="matrix(0.05,0,0,0.05,72.95,0)" xlink:href="#Z"/><use transform="matrix(0.05,0,0,0.05,77.95,0)" xlink:href="#aJ"/><use transform="matrix(0.05,0,0,0.05,83.9,0)" xlink:href="#aK"/></g><g id="M"><use transform="matrix(0.05,0,0,0.05,0,0)" xlink:href="#aa"/><use transform="matrix(0.05,0,0,0.05,3.95,0)" xlink:href="#ac"/><use transform="matrix(0.05,0,0,0.05,13.949999999999998,0)" xlink:href="#Y"/><use transform="matrix(0.05,0,0,0.05,23.95,0)" xlink:href="#af"/><use transform="matrix(0.05,0,0,0.05,33.95,0)" xlink:href="#Z"/><use transform="matrix(0.05,0,0,0.05,38.95,0)" xlink:href="#av"/><use transform="matrix(0.05,0,0,0.05,48.95,0)" xlink:href="#Z"/><use transform="matrix(0.05,0,0,0.05,53.95,0)" xlink:href="#U"/><use transform="matrix(0.05,0,0,0.05,63.95,0)" xlink:href="#au"/><use transform="matrix(0.05,0,0,0.05,72.95,0)" xlink:href="#Z"/><use transform="matrix(0.05,0,0,0.05,77.95,0)" xlink:href="#av"/><use transform="matrix(0.05,0,0,0.05,87.95,0)" xlink:href="#aA"/><use transform="matrix(0.05,0,0,0.05,96.95,0)" xlink:href="#U"/><use transform="matrix(0.05,0,0,0.05,106.95,0)" xlink:href="#X"/><use transform="matrix(0.05,0,0,0.05,115.95,0)" xlink:href="#aJ"/><use transform="matrix(0.05,0,0,0.05,121.9,0)" xlink:href="#aK"/></g><g id="N"><use transform="matrix(0.05,0,0,0.05,0,0)" xlink:href="#aq"/><use transform="matrix(0.05,0,0,0.05,12,0)" xlink:href="#U"/><use transform="matrix(0.05,0,0,0.05,22,0)" xlink:href="#X"/><use transform="matrix(0.05,0,0,0.05,31,0)" xlink:href="#av"/><use transform="matrix(0.05,0,0,0.05,41,0)" xlink:href="#U"/><use transform="matrix(0.05,0,0,0.05,51,0)" xlink:href="#au"/><use transform="matrix(0.05,0,0,0.05,60,0)" xlink:href="#Y"/><use transform="matrix(0.05,0,0,0.05,70,0)" xlink:href="#ag"/><use transform="matrix(0.05,0,0,0.05,80,0)" xlink:href="#ac"/><use transform="matrix(0.05,0,0,0.05,90,0)" xlink:href="#ak"/><use transform="matrix(0.05,0,0,0.05,99,0)" xlink:href="#aa"/><use transform="matrix(0.05,0,0,0.05,102.95,0)" xlink:href="#ab"/><use transform="matrix(0.05,0,0,0.05,112.95,0)" xlink:href="#ac"/><use transform="matrix(0.05,0,0,0.05,122.95,0)" xlink:href="#aJ"/><use transform="matrix(0.05,0,0,0.05,128.9,0)" xlink:href="#aK"/></g><g id="O"><use transform="matrix(0.05,0,0,0.05,0,0)" xlink:href="#U"/><use transform="matrix(0.05,0,0,0.05,10,0)" xlink:href="#ac"/><use transform="matrix(0.05,0,0,0.05,20,0)" xlink:href="#V"/><use transform="matrix(0.05,0,0,0.05,29,0)" xlink:href="#W"/><use transform="matrix(0.05,0,0,0.05,34.95,0)" xlink:href="#X"/><use transform="matrix(0.05,0,0,0.05,43.95,0)" xlink:href="#Y"/><use transform="matrix(0.05,0,0,0.05,53.95,0)" xlink:href="#Z"/><use transform="matrix(0.05,0,0,0.05,58.95,0)" xlink:href="#aJ"/><use transform="matrix(0.05,0,0,0.05,64.9,0)" xlink:href="#aK"/></g><g id="P"><use transform="matrix(0.05,0,0,0.05,0,0)" xlink:href="#ak"/><use transform="matrix(0.05,0,0,0.05,9,0)" xlink:href="#Z"/><use transform="matrix(0.05,0,0,0.05,14,0)" xlink:href="#ab"/><use transform="matrix(0.05,0,0,0.05,24,0)" xlink:href="#W"/><use transform="matrix(0.05,0,0,0.05,29.950000000000003,0)" xlink:href="#U"/><use transform="matrix(0.05,0,0,0.05,39.95,0)" xlink:href="#av"/><use transform="matrix(0.05,0,0,0.05,49.95,0)" xlink:href="#aB"/><use transform="matrix(0.05,0,0,0.05,63.95,0)" xlink:href="#af"/><use transform="matrix(0.05,0,0,0.05,73.95,0)" xlink:href="#Z"/><use transform="matrix(0.05,0,0,0.05,78.95,0)" xlink:href="#Y"/><use transform="matrix(0.05,0,0,0.05,88.95,0)" xlink:href="#af"/><use transform="matrix(0.05,0,0,0.05,98.95,0)" xlink:href="#Z"/><use transform="matrix(0.05,0,0,0.05,103.95,0)" xlink:href="#aJ"/><use transform="matrix(0.05,0,0,0.05,109.9,0)" xlink:href="#aK"/></g><g id="Q"><use transform="matrix(0.05,0,0,0.05,0,0)" xlink:href="#an"/><use transform="matrix(0.05,0,0,0.05,10,0)" xlink:href="#U"/><use transform="matrix(0.05,0,0,0.05,20,0)" xlink:href="#V"/><use transform="matrix(0.05,0,0,0.05,29,0)" xlink:href="#W"/><use transform="matrix(0.05,0,0,0.05,34.95,0)" xlink:href="#X"/><use transform="matrix(0.05,0,0,0.05,43.95,0)" xlink:href="#Y"/><use transform="matrix(0.05,0,0,0.05,53.95,0)" xlink:href="#Z"/><use transform="matrix(0.05,0,0,0.05,58.95,0)" xlink:href="#aa"/><use transform="matrix(0.05,0,0,0.05,62.900000000000006,0)" xlink:href="#ab"/><use transform="matrix(0.05,0,0,0.05,72.9,0)" xlink:href="#ac"/></g><g id="R"><use transform="matrix(0.05,0,0,0.05,0,0)" xlink:href="#Y"/><use transform="matrix(0.05,0,0,0.05,10,0)" xlink:href="#U"/><use transform="matrix(0.05,0,0,0.05,20,0)" xlink:href="#W"/><use transform="matrix(0.05,0,0,0.05,25.950000000000003,0)" xlink:href="#aw"/><use transform="matrix(0.05,0,0,0.05,30.950000000000003,0)" xlink:href="#ab"/><use transform="matrix(0.05,0,0,0.05,40.95,0)" xlink:href="#W"/><use transform="matrix(0.05,0,0,0.05,46.900000000000006,0)" xlink:href="#ai"/><use transform="matrix(0.05,0,0,0.05,61.85,0)" xlink:href="#U"/><use transform="matrix(0.05,0,0,0.05,71.85000000000001,0)" xlink:href="#an"/></g><g id="S"><use transform="matrix(0.05,0,0,0.05,0,0)" xlink:href="#ak"/><use transform="matrix(0.05,0,0,0.05,9,0)" xlink:href="#af"/><use transform="matrix(0.05,0,0,0.05,19,0)" xlink:href="#V"/><use transform="matrix(0.05,0,0,0.05,28,0)" xlink:href="#V"/><use transform="matrix(0.05,0,0,0.05,37,0)" xlink:href="#U"/><use transform="matrix(0.05,0,0,0.05,47,0)" xlink:href="#U"/><use transform="matrix(0.05,0,0,0.05,57,0)" xlink:href="#an"/><use transform="matrix(0.05,0,0,0.05,67,0)" xlink:href="#U"/><use transform="matrix(0.05,0,0,0.05,77,0)" xlink:href="#an"/></g></defs></g></svg>