<svg xmlns="http://www.w3.org/2000/svg" xmlns:xlink="http://www.w3.org/1999/xlink" xmlns:lucid="lucid" width="1440" height="1323.33"><g transform="translate(-12 0)" lucid:page-tab-id="0_0"><path d="M440 20h461.87v60H440z" fill="none"/><use xlink:href="#a" transform="matrix(1,0,0,1,440,20) translate(20.395061728395035 36.22222222222222)"/><use xlink:href="#b" transform="matrix(1,0,0,1,440,20) translate(175.77777777777777 36.22222222222222)"/><use xlink:href="#c" transform="matrix(1,0,0,1,440,20) translate(324.41975308641975 36.22222222222222)"/><path d="M143.75 123.08c0 10.9-8.84 19.75-19.75 19.75-10.9 0-19.75-8.84-19.75-19.75 0-10.9 8.84-19.75 19.75-19.75 10.9 0 19.75 8.85 19.75 19.75z" stroke="#000" stroke-width="2" fill="#fff"/><path d="M124 142.83v55.3l40 63.2m-40-63.2l-40 63.2m0-98.75h80" stroke="#000" stroke-width="2" fill="none"/><path d="M84 103.33h80v180H84z" fill="none"/><use xlink:href="#d" transform="matrix(1,0,0,1,4,261.33333333333326) translate(101.05 14.6)"/><path d="M432 103.33h160v142H432z" stroke="#000" stroke-width="2" fill="#fff"/><use xlink:href="#e" transform="matrix(1,0,0,1,440,111.33333333333326) translate(8.599999999999994 55.8)"/><use xlink:href="#f" transform="matrix(1,0,0,1,440,111.33333333333326) translate(101.45 55.8)"/><use xlink:href="#g" transform="matrix(1,0,0,1,440,111.33333333333326) translate(50.1 77.4)"/><path d="M752 103.33h160v142H752z" stroke="#000" stroke-width="2" fill="#fff"/><use xlink:href="#h" transform="matrix(1,0,0,1,760,111.33333333333326) translate(27.049999999999997 66.60000000000001)"/><path d="M1112 103.33h160v142h-160z" stroke="#000" stroke-width="2" fill="#fff"/><use xlink:href="#i" transform="matrix(1,0,0,1,1120,111.33333333333326) translate(54 66.60000000000001)"/><path d="M492 303.33h40v1000h-40z" stroke="#000" stroke-width="2" fill="#fff"/><path d="M512 247.33v9m0 9v18m0 9v9" stroke="#000" stroke-width="2" fill="none"/><path d="M513 247.36h-2v-1.03h2z"/><path d="M512 301.3v1.03" stroke="#000" stroke-width="2" fill="none"/><path d="M812 303.33h40v1000h-40zM1172 303.33h40v1000h-40z" stroke="#000" stroke-width="2" fill="#fff"/><path d="M832 247.33v9m0 9v18m0 9v9" stroke="#000" stroke-width="2" fill="none"/><path d="M833 247.36h-2v-1.03h2z"/><path d="M832 301.3v1.03M1192 301.33v-9m0-9v-18m0-9v-9M1192 301.3v1.03" stroke="#000" stroke-width="2" fill="none"/><path d="M1193 247.36h-2v-1.03h2z"/><path d="M124 200" stroke="#000" stroke-width="2" fill="none"/><path d="M104 303.33h40v1000h-40z" stroke="#000" stroke-width="2" fill="#fff"/><path d="M124 201v11.15m0 11.15v22.3m0 11.14v22.3m0 11.14v11.15M124 301.3v1.03" stroke="#000" stroke-width="2" fill="none"/><path d="M32 523.33h100v20l-10 10H32z" fill="#fff"/><path d="M132 523.33v20l-10 10H32" stroke="#000" stroke-width="2" fill="none"/><path d="M32 523.33h1400v740H32zM32 898.33h20m15 0h20m15 0h20m15 0h20m15 0h20m15 0h20m15 0h20m15 0h20m15 0h20m15 0h20m15 0h20m15 0h20m15 0h20m15 0h20m15 0h20m15 0h20m15 0h20m15 0h20m15 0h20m15 0h20m15 0h20m15 0h20m15 0h20m15 0h20m15 0h20m15 0h20m15 0h20m15 0h20m15 0h20m15 0h20m15 0h20m15 0h20m15 0h20m15 0h20m15 0h20m15 0h20m15 0h20m15 0h20m15 0h20m15 0h20" stroke="#000" stroke-width="2" fill="none"/><use xlink:href="#j" transform="matrix(1,0,0,1,40,523.3333333333333) translate(0 18.6)"/><use xlink:href="#k" transform="matrix(1,0,0,1,44,561.3333333333333) translate(0 18.6)"/><use xlink:href="#l" transform="matrix(1,0,0,1,44,561.3333333333333) translate(116.85000000000001 18.6)"/><use xlink:href="#m" transform="matrix(1,0,0,1,44,561.3333333333333) translate(137.35000000000002 18.6)"/><use xlink:href="#n" transform="matrix(1,0,0,1,44,561.3333333333333) translate(173.20000000000002 18.6)"/><use xlink:href="#o" transform="matrix(1,0,0,1,44,561.3333333333333) translate(216.10000000000002 18.6)"/><use xlink:href="#l" transform="matrix(1,0,0,1,44,561.3333333333333) translate(326.95000000000005 18.6)"/><use xlink:href="#m" transform="matrix(1,0,0,1,44,561.3333333333333) translate(347.45000000000005 18.6)"/><use xlink:href="#n" transform="matrix(1,0,0,1,44,561.3333333333333) translate(383.30000000000007 18.6)"/><use xlink:href="#p" transform="matrix(1,0,0,1,44,561.3333333333333) translate(426.20000000000005 18.6)"/><use xlink:href="#l" transform="matrix(1,0,0,1,44,561.3333333333333) translate(536.95 18.6)"/><use xlink:href="#q" transform="matrix(1,0,0,1,44,561.3333333333333) translate(557.45 18.6)"/><use xlink:href="#r" transform="matrix(1,0,0,1,44,906.3333333333333) translate(0 18.6)"/><path d="M52 943.33h100v20l-10 10H52z" fill="#fff"/><path d="M152 943.33v20l-10 10H52" stroke="#000" stroke-width="2" fill="none"/><path d="M52 943.33h820v300H52zM52 1063.33h20m15 0h20m15 0h20m15 0h20m15 0h20m15 0h20m15 0h20m15 0h20m15 0h20m15 0h20m15 0h20m15 0h20m15 0h20m15 0h20m15 0h20m15 0h20m15 0h20m15 0h20m15 0h20m15 0h20m15 0h20m15 0h20m15 0h20m15 0h15" stroke="#000" stroke-width="2" fill="none"/><use xlink:href="#s" transform="matrix(1,0,0,1,60,943.3333333333333) translate(0 18.6)"/><use xlink:href="#t" transform="matrix(1,0,0,1,64,981.3333333333333) translate(0 18.6)"/><use xlink:href="#u" transform="matrix(1,0,0,1,64,981.3333333333333) translate(116.85000000000001 18.6)"/><use xlink:href="#v" transform="matrix(1,0,0,1,64,981.3333333333333) translate(132.35000000000002 18.6)"/><use xlink:href="#w" transform="matrix(1,0,0,1,64,1071.3333333333333) translate(0 18.6)"/><use xlink:href="#u" transform="matrix(1,0,0,1,64,1071.3333333333333) translate(115.85000000000001 18.6)"/><use xlink:href="#v" transform="matrix(1,0,0,1,64,1071.3333333333333) translate(131.35000000000002 18.6)"/><path d="M490 1026.4h-9.9m-9.9 0h-19.78m-9.9 0h-19.78m-9.9 0h-19.78m-9.9 0H361.4m-9.9 0H331.7m-9.9 0h-19.78m-9.9 0h-19.8m-9.88 0h-19.8m-9.88 0h-19.8m-9.88 0h-19.8m-9.88 0h-9.9" stroke="#000" stroke-width="2" fill="none"/><path d="M491 1027.4h-1.03v-2H491z"/><path d="M148.24 1026.4l14.26-4.64v9.28z" stroke="#000" stroke-width="2"/><use xlink:href="#x" transform="matrix(1,0,0,1,244.075,1030.4) translate(0 14.4)"/><use xlink:href="#y" transform="matrix(1,0,0,1,244.075,1030.4) translate(66.9 14.4)"/><use xlink:href="#z" transform="matrix(1,0,0,1,244.075,1030.4) translate(96.9 14.4)"/><path d="M490 1110.4h-9.9m-9.9 0h-19.78m-9.9 0h-19.78m-9.9 0h-19.78m-9.9 0H361.4m-9.9 0H331.7m-9.9 0h-19.78m-9.9 0h-19.8m-9.88 0h-19.8m-9.88 0h-19.8m-9.88 0h-19.8m-9.88 0h-9.9" stroke="#000" stroke-width="2" fill="none"/><path d="M491 1111.4h-1.03v-2H491z"/><path d="M148.24 1110.4l14.26-4.64v9.28z" stroke="#000" stroke-width="2"/><use xlink:href="#A" transform="matrix(1,0,0,1,244.575,1114.4) translate(0 14.4)"/><use xlink:href="#y" transform="matrix(1,0,0,1,244.575,1114.4) translate(65.9 14.4)"/><use xlink:href="#z" transform="matrix(1,0,0,1,244.575,1114.4) translate(95.9 14.4)"/><path d="M872 1143.12h-10.1m-10.08 0h-20.2m-10.08.02h-20.18m-10.1 0H771.1m-10.1 0l-20.2.02m-10.08 0h-20.18m-10.1 0h-20.18m-10.1 0l-20.17.02m-10.1 0h-20.18m-10.1 0l-20.18.02m-10.1 0h-20.17m-10.1 0H528.9m-10.1 0l-20.18.02m-10.1 0h-20.17m-10.1 0h-20.18m-10.1.02H407.8m-10.1 0h-20.18m-10.1 0l-20.17.02m-10.1 0H317m-10.1 0H286.7m-10.1.02h-20.17m-10.1 0h-20.18m-10.1 0l-20.17.02m-10.1 0H165.6m-10.1 0h-20.17m-10.1 0l-20.17.02m-10.1 0H74.8m-10.1 0H54.6" stroke="#000" stroke-width="2" fill="none"/><path d="M873 1144.12h-1.03v-2H873zM54.63 1143.33H52v1h-1.4v-2h4.03z"/><path d="M52 1143.33h80v20H52z" fill="#fff" fill-opacity="0"/><use xlink:href="#B" transform="matrix(1,0,0,1,57,1148.3333333333333) translate(0 14.4)"/><use xlink:href="#C" transform="matrix(1,0,0,1,57,1148.3333333333333) translate(5 14.4)"/><path d="M490 1179.73h-9.9m-9.9 0h-19.78m-9.9 0h-19.78m-9.9 0h-19.78m-9.9 0H361.4m-9.9 0H331.7m-9.9 0h-19.78m-9.9 0h-19.8m-9.88 0h-19.8m-9.88 0h-19.8m-9.88 0h-19.8m-9.88 0h-9.9" stroke="#000" stroke-width="2" fill="none"/><path d="M491 1180.73h-1.03v-2H491z"/><path d="M148.24 1179.73l14.26-4.63v9.27z" stroke="#000" stroke-width="2"/><use xlink:href="#D" transform="matrix(1,0,0,1,227.7,1183.7333333333333) translate(0 14.4)"/><use xlink:href="#E" transform="matrix(1,0,0,1,227.7,1183.7333333333333) translate(110.75000000000001 14.4)"/><use xlink:href="#F" transform="matrix(1,0,0,1,227.7,1183.7333333333333) translate(128.70000000000002 14.4)"/><path d="M146 334.67h326.5" stroke="#000" stroke-width="2" fill="none"/><path d="M146.03 335.67H145v-2h1.03z"/><path d="M487.76 334.67l-14.26 4.63v-9.27z" stroke="#000" stroke-width="2"/><use xlink:href="#G" transform="matrix(1,0,0,1,252.6,309.0666666666666) translate(0 14.4)"/><use xlink:href="#H" transform="matrix(1,0,0,1,252.6,309.0666666666666) translate(47.95 14.4)"/><path d="M534 349.07h258.5" stroke="#000" stroke-width="2" fill="none"/><path d="M534.03 350.07H533v-2h1.03z"/><path d="M807.76 349.07l-14.26 4.63v-9.27z" stroke="#000" stroke-width="2"/><use xlink:href="#I" transform="matrix(1,0,0,1,598.575,323.4666666666666) translate(0 14.4)"/><use xlink:href="#J" transform="matrix(1,0,0,1,598.575,323.4666666666666) translate(37.95 14.4)"/><path d="M854 363.73h39v18.67h-21.5" stroke="#000" stroke-width="2" fill="none"/><path d="M854.03 364.73H853v-2h1.03z"/><path d="M856.24 382.4l14.26-4.64v9.28z" stroke="#000" stroke-width="2"/><use xlink:href="#K" transform="matrix(1,0,0,1,901,362.26666666666665) translate(0 14.4)"/><path d="M854 401.07h39v21.33h-21.5" stroke="#000" stroke-width="2" fill="none"/><path d="M854.03 402.07H853v-2h1.03z"/><path d="M856.24 422.4l14.26-4.64v9.28z" stroke="#000" stroke-width="2"/><use xlink:href="#L" transform="matrix(1,0,0,1,900.9999999999999,400.9333333333333) translate(0 14.4)"/><use xlink:href="#M" transform="matrix(1,0,0,1,900.9999999999999,400.9333333333333) translate(111.85000000000001 14.4)"/><path d="M854 438.4h39v21.33h-21.5" stroke="#000" stroke-width="2" fill="none"/><path d="M854.03 439.4H853v-2h1.03z"/><path d="M856.24 459.73l14.26-4.63v9.27z" stroke="#000" stroke-width="2"/><use xlink:href="#N" transform="matrix(1,0,0,1,901,438.26666666666665) translate(0 14.4)"/><use xlink:href="#M" transform="matrix(1,0,0,1,901,438.26666666666665) translate(110.85000000000001 14.4)"/><path d="M854 475.73h39v21.34h-21.5" stroke="#000" stroke-width="2" fill="none"/><path d="M854.03 476.73H853v-2h1.03z"/><path d="M856.24 497.07l14.26-4.64v9.27z" stroke="#000" stroke-width="2"/><use xlink:href="#O" transform="matrix(1,0,0,1,901,475.6000000000001) translate(0 14.4)"/><use xlink:href="#M" transform="matrix(1,0,0,1,901,475.6000000000001) translate(110.75000000000001 14.4)"/><path d="M854 592.27h39v29.33h-21.5" stroke="#000" stroke-width="2" fill="none"/><path d="M854.03 593.27H853v-2h1.03z"/><path d="M856.24 621.6l14.26-4.64v9.28z" stroke="#000" stroke-width="2"/><g><use xlink:href="#P" transform="matrix(1,0,0,1,901,596.1333333333336) translate(0 14.4)"/></g><path d="M854 662.13h298.5" stroke="#000" stroke-width="2" fill="none"/><path d="M854.03 663.13H853v-2h1.03z"/><path d="M1167.76 662.13l-14.26 4.64v-9.27z" stroke="#000" stroke-width="2"/><g><use xlink:href="#Q" transform="matrix(1,0,0,1,948.075,636.5333333333336) translate(0 14.4)"/></g><path d="M1214 675.47h39v37.33h-21.5" stroke="#000" stroke-width="2" fill="none"/><path d="M1214.03 676.47H1213v-2h1.03z"/><path d="M1216.24 712.8l14.26-4.64v9.28z" stroke="#000" stroke-width="2"/><g><use xlink:href="#R" transform="matrix(1,0,0,1,1261,683.3333333333334) translate(0 14.4)"/></g><path d="M1170 733.33h-9.95m-9.95 0h-19.9m-9.95 0h-19.9m-9.95 0h-19.9m-9.95 0h-19.9m-9.95 0h-19.9m-9.95 0h-19.9m-9.95 0h-19.9m-9.95 0h-19.9m-9.95 0h-19.9m-9.95 0h-9.95" stroke="#000" stroke-width="2" fill="none"/><path d="M1171 734.33h-1.03v-2h1.03z"/><path d="M856.24 733.33l14.26-4.63v9.27z" stroke="#000" stroke-width="2"/><g><use xlink:href="#S" transform="matrix(1,0,0,1,976.575,737.3333333333335) translate(0 14.4)"/></g><path d="M854 774.93h39v42.67h-21.5" stroke="#000" stroke-width="2" fill="none"/><path d="M854.03 775.93H853v-2h1.03z"/><path d="M856.24 817.6l14.26-4.64v9.28z" stroke="#000" stroke-width="2"/><g><use xlink:href="#T" transform="matrix(1,0,0,1,901.0000000000001,785.4666666666668) translate(0 14.4)"/></g><path d="M810 846.93H551.5" stroke="#000" stroke-width="2" fill="none"/><path d="M811 847.93h-1.03v-2H811z"/><path d="M536.24 846.93l14.26-4.63v9.27z" stroke="#000" stroke-width="2"/><g><use xlink:href="#U" transform="matrix(1,0,0,1,587.125,850.9333333333333) translate(0 14.4)"/><use xlink:href="#V" transform="matrix(1,0,0,1,587.125,850.9333333333333) translate(87.9 14.4)"/></g><path d="M490 868.27H163.5" stroke="#000" stroke-width="2" fill="none"/><path d="M491 869.27h-1.03v-2H491z"/><path d="M148.24 868.27l14.26-4.64v9.27z" stroke="#000" stroke-width="2"/><g><use xlink:href="#U" transform="matrix(1,0,0,1,230.55,872.2666666666669) translate(0 14.4)"/><use xlink:href="#W" transform="matrix(1,0,0,1,230.55,872.2666666666669) translate(87.9 14.4)"/></g><defs><path d="M30 0v-248h187v28H63v79h144v27H63v87h162V0H30" id="X"/><path d="M117-194c89-4 53 116 60 194h-32v-121c0-31-8-49-39-48C34-167 62-67 57 0H25l-1-190h30c1 10-1 24 2 32 11-22 29-35 61-36" id="Y"/><path d="M96-169c-40 0-48 33-48 73s9 75 48 75c24 0 41-14 43-38l32 2c-6 37-31 61-74 61-59 0-76-41-82-99-10-93 101-131 147-64 4 7 5 14 7 22l-32 3c-4-21-16-35-41-35" id="Z"/><path d="M114-163C36-179 61-72 57 0H25l-1-190h30c1 12-1 29 2 39 6-27 23-49 58-41v29" id="aa"/><path d="M179-190L93 31C79 59 56 82 12 73V49c39 6 53-20 64-50L1-190h34L92-34l54-156h33" id="ab"/><path d="M115-194c55 1 70 41 70 98S169 2 115 4C84 4 66-9 55-30l1 105H24l-1-265h31l2 30c10-21 28-34 59-34zm-8 174c40 0 45-34 45-75s-6-73-45-74c-42 0-51 32-51 76 0 43 10 73 51 73" id="ac"/><path d="M59-47c-2 24 18 29 38 22v24C64 9 27 4 27-40v-127H5v-23h24l9-43h21v43h35v23H59v120" id="ad"/><path d="M24-231v-30h32v30H24zM24 0v-190h32V0H24" id="ae"/><path d="M100-194c62-1 85 37 85 99 1 63-27 99-86 99S16-35 15-95c0-66 28-99 85-99zM99-20c44 1 53-31 53-75 0-43-8-75-51-75s-53 32-53 75 10 74 51 75" id="af"/><g id="a"><use transform="matrix(0.08641975308641976,0,0,0.08641975308641976,0,0)" xlink:href="#X"/><use transform="matrix(0.08641975308641976,0,0,0.08641975308641976,20.740740740740744,0)" xlink:href="#Y"/><use transform="matrix(0.08641975308641976,0,0,0.08641975308641976,38.0246913580247,0)" xlink:href="#Z"/><use transform="matrix(0.08641975308641976,0,0,0.08641975308641976,53.580246913580254,0)" xlink:href="#aa"/><use transform="matrix(0.08641975308641976,0,0,0.08641975308641976,63.8641975308642,0)" xlink:href="#ab"/><use transform="matrix(0.08641975308641976,0,0,0.08641975308641976,79.41975308641976,0)" xlink:href="#ac"/><use transform="matrix(0.08641975308641976,0,0,0.08641975308641976,96.70370370370371,0)" xlink:href="#ad"/><use transform="matrix(0.08641975308641976,0,0,0.08641975308641976,105.34567901234568,0)" xlink:href="#ae"/><use transform="matrix(0.08641975308641976,0,0,0.08641975308641976,112.17283950617285,0)" xlink:href="#af"/><use transform="matrix(0.08641975308641976,0,0,0.08641975308641976,129.4567901234568,0)" xlink:href="#Y"/><path d="M-1.56 2.16h158.5v2.28H-1.57z"/></g><path d="M185-189c-5-48-123-54-124 2 14 75 158 14 163 119 3 78-121 87-175 55-17-10-28-26-33-46l33-7c5 56 141 63 141-1 0-78-155-14-162-118-5-82 145-84 179-34 5 7 8 16 11 25" id="ag"/><path d="M100-194c63 0 86 42 84 106H49c0 40 14 67 53 68 26 1 43-12 49-29l28 8c-11 28-37 45-77 45C44 4 14-33 15-96c1-61 26-98 85-98zm52 81c6-60-76-77-97-28-3 7-6 17-6 28h103" id="ah"/><path d="M145-31C134-9 116 4 85 4 32 4 16-35 15-94c0-59 17-99 70-100 32-1 48 14 60 33 0-11-1-24 2-32h30l-1 268h-32zM93-21c41 0 51-33 51-76s-8-73-50-73c-40 0-46 35-46 75s5 74 45 74" id="ai"/><path d="M84 4C-5 8 30-112 23-190h32v120c0 31 7 50 39 49 72-2 45-101 50-169h31l1 190h-30c-1-10 1-25-2-33-11 22-28 36-60 37" id="aj"/><g id="b"><use transform="matrix(0.08641975308641976,0,0,0.08641975308641976,0,0)" xlink:href="#ag"/><use transform="matrix(0.08641975308641976,0,0,0.08641975308641976,20.740740740740744,0)" xlink:href="#ah"/><use transform="matrix(0.08641975308641976,0,0,0.08641975308641976,38.0246913580247,0)" xlink:href="#ai"/><use transform="matrix(0.08641975308641976,0,0,0.08641975308641976,55.308641975308646,0)" xlink:href="#aj"/><use transform="matrix(0.08641975308641976,0,0,0.08641975308641976,72.5925925925926,0)" xlink:href="#ah"/><use transform="matrix(0.08641975308641976,0,0,0.08641975308641976,89.87654320987656,0)" xlink:href="#Y"/><use transform="matrix(0.08641975308641976,0,0,0.08641975308641976,107.16049382716048,0)" xlink:href="#Z"/><use transform="matrix(0.08641975308641976,0,0,0.08641975308641976,122.71604938271604,0)" xlink:href="#ah"/><path d="M-1.56 2.16H150.2v2.28H-1.57z"/></g><path d="M30-248c118-7 216 8 213 122C240-48 200 0 122 0H30v-248zM63-27c89 8 146-16 146-99s-60-101-146-95v194" id="ak"/><path d="M141-36C126-15 110 5 73 4 37 3 15-17 15-53c-1-64 63-63 125-63 3-35-9-54-41-54-24 1-41 7-42 31l-33-3c5-37 33-52 76-52 45 0 72 20 72 64v82c-1 20 7 32 28 27v20c-31 9-61-2-59-35zM48-53c0 20 12 33 32 33 41-3 63-29 60-74-43 2-92-5-92 41" id="al"/><path d="M177-190C167-65 218 103 67 71c-23-6-38-20-44-43l32-5c15 47 100 32 89-28v-30C133-14 115 1 83 1 29 1 15-40 15-95c0-56 16-97 71-98 29-1 48 16 59 35 1-10 0-23 2-32h30zM94-22c36 0 50-32 50-73 0-42-14-75-50-75-39 0-46 34-46 75s6 73 46 73" id="am"/><path d="M210-169c-67 3-38 105-44 169h-31v-121c0-29-5-50-35-48C34-165 62-65 56 0H25l-1-190h30c1 10-1 24 2 32 10-44 99-50 107 0 11-21 27-35 58-36 85-2 47 119 55 194h-31v-121c0-29-5-49-35-48" id="an"/><g id="c"><use transform="matrix(0.08641975308641976,0,0,0.08641975308641976,0,0)" xlink:href="#ak"/><use transform="matrix(0.08641975308641976,0,0,0.08641975308641976,22.38271604938272,0)" xlink:href="#ae"/><use transform="matrix(0.08641975308641976,0,0,0.08641975308641976,29.20987654320988,0)" xlink:href="#al"/><use transform="matrix(0.08641975308641976,0,0,0.08641975308641976,46.49382716049383,0)" xlink:href="#am"/><use transform="matrix(0.08641975308641976,0,0,0.08641975308641976,63.777777777777786,0)" xlink:href="#aa"/><use transform="matrix(0.08641975308641976,0,0,0.08641975308641976,74.06172839506173,0)" xlink:href="#al"/><use transform="matrix(0.08641975308641976,0,0,0.08641975308641976,91.34567901234568,0)" xlink:href="#an"/><path d="M-1.56 2.16h120.3v2.28H-1.56z"/></g><path d="M232-93c-1 65-40 97-104 97C67 4 28-28 28-90v-158h33c8 89-33 224 67 224 102 0 64-133 71-224h33v155" id="ao"/><path d="M135-143c-3-34-86-38-87 0 15 53 115 12 119 90S17 21 10-45l28-5c4 36 97 45 98 0-10-56-113-15-118-90-4-57 82-63 122-42 12 7 21 19 24 35" id="ap"/><g id="d"><use transform="matrix(0.05,0,0,0.05,0,0)" xlink:href="#ao"/><use transform="matrix(0.05,0,0,0.05,12.950000000000001,0)" xlink:href="#ap"/><use transform="matrix(0.05,0,0,0.05,21.950000000000003,0)" xlink:href="#ah"/><use transform="matrix(0.05,0,0,0.05,31.950000000000003,0)" xlink:href="#aa"/></g><path d="M33-154v-36h34v36H33zM33 0v-36h34V0H33" id="aq"/><path d="M212-179c-10-28-35-45-73-45-59 0-87 40-87 99 0 60 29 101 89 101 43 0 62-24 78-52l27 14C228-24 195 4 139 4 59 4 22-46 18-125c-6-104 99-153 187-111 19 9 31 26 39 46" id="ar"/><path d="M85-194c31 0 48 13 60 33l-1-100h32l1 261h-30c-2-10 0-23-3-31C134-8 116 4 85 4 32 4 16-35 15-94c0-66 23-100 70-100zm9 24c-40 0-46 34-46 75 0 40 6 74 45 74 42 0 51-32 51-76 0-42-9-74-50-73" id="as"/><g id="e"><use transform="matrix(0.05,0,0,0.05,0,0)" xlink:href="#aq"/><use transform="matrix(0.05,0,0,0.05,5,0)" xlink:href="#ar"/><use transform="matrix(0.05,0,0,0.05,17.950000000000003,0)" xlink:href="#af"/><use transform="matrix(0.05,0,0,0.05,27.950000000000003,0)" xlink:href="#an"/><use transform="matrix(0.05,0,0,0.05,42.900000000000006,0)" xlink:href="#an"/><use transform="matrix(0.05,0,0,0.05,57.85,0)" xlink:href="#al"/><use transform="matrix(0.05,0,0,0.05,67.85000000000001,0)" xlink:href="#Y"/><use transform="matrix(0.05,0,0,0.05,77.85000000000001,0)" xlink:href="#as"/></g><path d="M30 0v-248h33v221h125V0H30" id="at"/><g id="f"><use transform="matrix(0.05,0,0,0.05,0,0)" xlink:href="#at"/><use transform="matrix(0.05,0,0,0.05,10,0)" xlink:href="#ae"/><use transform="matrix(0.05,0,0,0.05,13.949999999999998,0)" xlink:href="#Y"/><use transform="matrix(0.05,0,0,0.05,23.95,0)" xlink:href="#ah"/></g><path d="M24 0v-261h32V0H24" id="au"/><g id="g"><use transform="matrix(0.05,0,0,0.05,0,0)" xlink:href="#ao"/><use transform="matrix(0.05,0,0,0.05,12.950000000000001,0)" xlink:href="#ad"/><use transform="matrix(0.05,0,0,0.05,17.950000000000003,0)" xlink:href="#ae"/><use transform="matrix(0.05,0,0,0.05,21.900000000000002,0)" xlink:href="#au"/><use transform="matrix(0.05,0,0,0.05,25.85,0)" xlink:href="#ae"/><use transform="matrix(0.05,0,0,0.05,29.8,0)" xlink:href="#ad"/><use transform="matrix(0.05,0,0,0.05,34.8,0)" xlink:href="#ab"/></g><g id="h"><use transform="matrix(0.05,0,0,0.05,0,0)" xlink:href="#aq"/><use transform="matrix(0.05,0,0,0.05,5,0)" xlink:href="#X"/><use transform="matrix(0.05,0,0,0.05,17,0)" xlink:href="#Y"/><use transform="matrix(0.05,0,0,0.05,27,0)" xlink:href="#Z"/><use transform="matrix(0.05,0,0,0.05,36,0)" xlink:href="#aa"/><use transform="matrix(0.05,0,0,0.05,41.95,0)" xlink:href="#ab"/><use transform="matrix(0.05,0,0,0.05,50.95,0)" xlink:href="#ac"/><use transform="matrix(0.05,0,0,0.05,60.95,0)" xlink:href="#ad"/><use transform="matrix(0.05,0,0,0.05,65.95,0)" xlink:href="#ae"/><use transform="matrix(0.05,0,0,0.05,69.9,0)" xlink:href="#af"/><use transform="matrix(0.05,0,0,0.05,79.9,0)" xlink:href="#Y"/></g><path d="M194 0L95-120 63-95V0H30v-248h33v124l119-124h40L117-140 236 0h-42" id="av"/><g id="i"><use transform="matrix(0.05,0,0,0.05,0,0)" xlink:href="#aq"/><use transform="matrix(0.05,0,0,0.05,5,0)" xlink:href="#av"/><use transform="matrix(0.05,0,0,0.05,17,0)" xlink:href="#ah"/><use transform="matrix(0.05,0,0,0.05,27,0)" xlink:href="#ab"/></g><path d="M205 0l-28-72H64L36 0H1l101-248h38L239 0h-34zm-38-99l-47-123c-12 45-31 82-46 123h93" id="aw"/><path d="M108 0H70L1-190h34L89-25l56-165h34" id="ax"/><g id="j"><use transform="matrix(0.05,0,0,0.05,0,0)" xlink:href="#aw"/><use transform="matrix(0.05,0,0,0.05,12,0)" xlink:href="#au"/><use transform="matrix(0.05,0,0,0.05,15.949999999999998,0)" xlink:href="#ad"/><use transform="matrix(0.05,0,0,0.05,20.95,0)" xlink:href="#ah"/><use transform="matrix(0.05,0,0,0.05,30.950000000000003,0)" xlink:href="#aa"/><use transform="matrix(0.05,0,0,0.05,36.9,0)" xlink:href="#Y"/><use transform="matrix(0.05,0,0,0.05,46.9,0)" xlink:href="#al"/><use transform="matrix(0.05,0,0,0.05,56.900000000000006,0)" xlink:href="#ad"/><use transform="matrix(0.05,0,0,0.05,61.900000000000006,0)" xlink:href="#ae"/><use transform="matrix(0.05,0,0,0.05,65.85,0)" xlink:href="#ax"/><use transform="matrix(0.05,0,0,0.05,74.85,0)" xlink:href="#ah"/></g><path d="M26 75v-336h71v23H56V52h41v23H26" id="ay"/><path d="M141 0L90-78 38 0H4l68-98-65-92h35l48 74 47-74h35l-64 92 68 98h-35" id="az"/><path d="M-5 72V49h209v23H-5" id="aA"/><path d="M101-234c-31-9-42 10-38 44h38v23H63V0H32v-167H5v-23h27c-7-52 17-82 69-68v24" id="aB"/><g id="k"><use transform="matrix(0.05,0,0,0.05,0,0)" xlink:href="#ay"/><use transform="matrix(0.05,0,0,0.05,5,0)" xlink:href="#ad"/><use transform="matrix(0.05,0,0,0.05,10,0)" xlink:href="#ah"/><use transform="matrix(0.05,0,0,0.05,20,0)" xlink:href="#az"/><use transform="matrix(0.05,0,0,0.05,29,0)" xlink:href="#ad"/><use transform="matrix(0.05,0,0,0.05,34,0)" xlink:href="#aA"/><use transform="matrix(0.05,0,0,0.05,44,0)" xlink:href="#aB"/><use transform="matrix(0.05,0,0,0.05,49,0)" xlink:href="#ae"/><use transform="matrix(0.05,0,0,0.05,52.95,0)" xlink:href="#au"/><use transform="matrix(0.05,0,0,0.05,56.900000000000006,0)" xlink:href="#ah"/><use transform="matrix(0.05,0,0,0.05,66.9,0)" xlink:href="#Y"/><use transform="matrix(0.05,0,0,0.05,76.9,0)" xlink:href="#al"/><use transform="matrix(0.05,0,0,0.05,86.9,0)" xlink:href="#an"/><use transform="matrix(0.05,0,0,0.05,101.85000000000001,0)" xlink:href="#ah"/></g><path d="M63-70H37l-4-178h34zM33 0v-35h34V0H33" id="aC"/><path d="M18-150v-26h174v26H18zm0 90v-26h174v26H18" id="aD"/><g id="l"><use transform="matrix(0.05,0,0,0.05,0,0)" xlink:href="#aC"/><use transform="matrix(0.05,0,0,0.05,5,0)" xlink:href="#aD"/></g><path d="M190 0L58-211 59 0H30v-248h39L202-35l-2-213h31V0h-41" id="aE"/><g id="m"><use transform="matrix(0.05,0,0,0.05,0,0)" xlink:href="#aE"/><use transform="matrix(0.05,0,0,0.05,12.950000000000001,0)" xlink:href="#aj"/><use transform="matrix(0.05,0,0,0.05,22.950000000000003,0)" xlink:href="#au"/><use transform="matrix(0.05,0,0,0.05,26.900000000000002,0)" xlink:href="#au"/></g><g id="n"><use transform="matrix(0.05,0,0,0.05,0,0)" xlink:href="#aw"/><use transform="matrix(0.05,0,0,0.05,12,0)" xlink:href="#aE"/><use transform="matrix(0.05,0,0,0.05,24.950000000000003,0)" xlink:href="#ak"/></g><path d="M143 0L79-87 56-68V0H24v-261h32v163l83-92h37l-77 82L181 0h-38" id="aF"/><g id="o"><use transform="matrix(0.05,0,0,0.05,0,0)" xlink:href="#aF"/><use transform="matrix(0.05,0,0,0.05,9,0)" xlink:href="#ah"/><use transform="matrix(0.05,0,0,0.05,19,0)" xlink:href="#ab"/><use transform="matrix(0.05,0,0,0.05,28,0)" xlink:href="#aA"/><use transform="matrix(0.05,0,0,0.05,38,0)" xlink:href="#aB"/><use transform="matrix(0.05,0,0,0.05,43,0)" xlink:href="#ae"/><use transform="matrix(0.05,0,0,0.05,46.95,0)" xlink:href="#au"/><use transform="matrix(0.05,0,0,0.05,50.900000000000006,0)" xlink:href="#ah"/><use transform="matrix(0.05,0,0,0.05,60.900000000000006,0)" xlink:href="#Y"/><use transform="matrix(0.05,0,0,0.05,70.9,0)" xlink:href="#al"/><use transform="matrix(0.05,0,0,0.05,80.9,0)" xlink:href="#an"/><use transform="matrix(0.05,0,0,0.05,95.85000000000001,0)" xlink:href="#ah"/></g><path d="M140-251c81 0 123 46 123 126C263-46 219 4 140 4 59 4 17-45 17-125s42-126 123-126zm0 227c63 0 89-41 89-101s-29-99-89-99c-61 0-89 39-89 99S79-25 140-24" id="aG"/><path d="M63-220v92h138v28H63V0H30v-248h175v28H63" id="aH"/><g id="p"><use transform="matrix(0.05,0,0,0.05,0,0)" xlink:href="#aG"/><use transform="matrix(0.05,0,0,0.05,14,0)" xlink:href="#aj"/><use transform="matrix(0.05,0,0,0.05,24,0)" xlink:href="#ad"/><use transform="matrix(0.05,0,0,0.05,29,0)" xlink:href="#aH"/><use transform="matrix(0.05,0,0,0.05,39.95,0)" xlink:href="#ae"/><use transform="matrix(0.05,0,0,0.05,43.900000000000006,0)" xlink:href="#au"/><use transform="matrix(0.05,0,0,0.05,47.85000000000001,0)" xlink:href="#ah"/><use transform="matrix(0.05,0,0,0.05,57.85,0)" xlink:href="#aE"/><use transform="matrix(0.05,0,0,0.05,70.80000000000001,0)" xlink:href="#al"/><use transform="matrix(0.05,0,0,0.05,80.80000000000001,0)" xlink:href="#an"/><use transform="matrix(0.05,0,0,0.05,95.75000000000001,0)" xlink:href="#ah"/></g><path d="M3 75V52h41v-290H3v-23h71V75H3" id="aI"/><g id="q"><use transform="matrix(0.05,0,0,0.05,0,0)" xlink:href="#aE"/><use transform="matrix(0.05,0,0,0.05,12.950000000000001,0)" xlink:href="#aj"/><use transform="matrix(0.05,0,0,0.05,22.950000000000003,0)" xlink:href="#au"/><use transform="matrix(0.05,0,0,0.05,26.900000000000002,0)" xlink:href="#au"/><use transform="matrix(0.05,0,0,0.05,30.85,0)" xlink:href="#aI"/></g><g id="r"><use transform="matrix(0.05,0,0,0.05,0,0)" xlink:href="#ay"/><use transform="matrix(0.05,0,0,0.05,5,0)" xlink:href="#X"/><use transform="matrix(0.05,0,0,0.05,17,0)" xlink:href="#au"/><use transform="matrix(0.05,0,0,0.05,20.95,0)" xlink:href="#ap"/><use transform="matrix(0.05,0,0,0.05,29.950000000000003,0)" xlink:href="#ah"/><use transform="matrix(0.05,0,0,0.05,39.95,0)" xlink:href="#aI"/></g><g id="s"><use transform="matrix(0.05,0,0,0.05,0,0)" xlink:href="#aw"/><use transform="matrix(0.05,0,0,0.05,12,0)" xlink:href="#au"/><use transform="matrix(0.05,0,0,0.05,15.949999999999998,0)" xlink:href="#ad"/><use transform="matrix(0.05,0,0,0.05,20.95,0)" xlink:href="#ah"/><use transform="matrix(0.05,0,0,0.05,30.950000000000003,0)" xlink:href="#aa"/><use transform="matrix(0.05,0,0,0.05,36.9,0)" xlink:href="#Y"/><use transform="matrix(0.05,0,0,0.05,46.9,0)" xlink:href="#al"/><use transform="matrix(0.05,0,0,0.05,56.900000000000006,0)" xlink:href="#ad"/><use transform="matrix(0.05,0,0,0.05,61.900000000000006,0)" xlink:href="#ae"/><use transform="matrix(0.05,0,0,0.05,65.85,0)" xlink:href="#ax"/><use transform="matrix(0.05,0,0,0.05,74.85,0)" xlink:href="#ah"/></g><g id="t"><use transform="matrix(0.05,0,0,0.05,0,0)" xlink:href="#ay"/><use transform="matrix(0.05,0,0,0.05,5,0)" xlink:href="#ad"/><use transform="matrix(0.05,0,0,0.05,10,0)" xlink:href="#ah"/><use transform="matrix(0.05,0,0,0.05,20,0)" xlink:href="#az"/><use transform="matrix(0.05,0,0,0.05,29,0)" xlink:href="#ad"/><use transform="matrix(0.05,0,0,0.05,34,0)" xlink:href="#aA"/><use transform="matrix(0.05,0,0,0.05,44,0)" xlink:href="#aB"/><use transform="matrix(0.05,0,0,0.05,49,0)" xlink:href="#ae"/><use transform="matrix(0.05,0,0,0.05,52.95,0)" xlink:href="#au"/><use transform="matrix(0.05,0,0,0.05,56.900000000000006,0)" xlink:href="#ah"/><use transform="matrix(0.05,0,0,0.05,66.9,0)" xlink:href="#Y"/><use transform="matrix(0.05,0,0,0.05,76.9,0)" xlink:href="#al"/><use transform="matrix(0.05,0,0,0.05,86.9,0)" xlink:href="#an"/><use transform="matrix(0.05,0,0,0.05,101.85000000000001,0)" xlink:href="#ah"/></g><use transform="matrix(0.05,0,0,0.05,0,0)" xlink:href="#aD" id="u"/><g id="v"><use transform="matrix(0.05,0,0,0.05,0,0)" xlink:href="#aE"/><use transform="matrix(0.05,0,0,0.05,12.950000000000001,0)" xlink:href="#aj"/><use transform="matrix(0.05,0,0,0.05,22.950000000000003,0)" xlink:href="#au"/><use transform="matrix(0.05,0,0,0.05,26.900000000000002,0)" xlink:href="#au"/><use transform="matrix(0.05,0,0,0.05,30.85,0)" xlink:href="#aI"/></g><g id="w"><use transform="matrix(0.05,0,0,0.05,0,0)" xlink:href="#ay"/><use transform="matrix(0.05,0,0,0.05,5,0)" xlink:href="#aF"/><use transform="matrix(0.05,0,0,0.05,14,0)" xlink:href="#ah"/><use transform="matrix(0.05,0,0,0.05,24,0)" xlink:href="#ab"/><use transform="matrix(0.05,0,0,0.05,33,0)" xlink:href="#aA"/><use transform="matrix(0.05,0,0,0.05,43,0)" xlink:href="#aB"/><use transform="matrix(0.05,0,0,0.05,48,0)" xlink:href="#ae"/><use transform="matrix(0.05,0,0,0.05,51.95,0)" xlink:href="#au"/><use transform="matrix(0.05,0,0,0.05,55.900000000000006,0)" xlink:href="#ah"/><use transform="matrix(0.05,0,0,0.05,65.9,0)" xlink:href="#Y"/><use transform="matrix(0.05,0,0,0.05,75.9,0)" xlink:href="#al"/><use transform="matrix(0.05,0,0,0.05,85.9,0)" xlink:href="#an"/><use transform="matrix(0.05,0,0,0.05,100.85000000000001,0)" xlink:href="#ah"/></g><g id="x"><use transform="matrix(0.05,0,0,0.05,0,0)" xlink:href="#ad"/><use transform="matrix(0.05,0,0,0.05,5,0)" xlink:href="#ah"/><use transform="matrix(0.05,0,0,0.05,15,0)" xlink:href="#az"/><use transform="matrix(0.05,0,0,0.05,24,0)" xlink:href="#ad"/><use transform="matrix(0.05,0,0,0.05,29,0)" xlink:href="#aA"/><use transform="matrix(0.05,0,0,0.05,39,0)" xlink:href="#aB"/><use transform="matrix(0.05,0,0,0.05,44,0)" xlink:href="#ae"/><use transform="matrix(0.05,0,0,0.05,47.95,0)" xlink:href="#au"/><use transform="matrix(0.05,0,0,0.05,51.900000000000006,0)" xlink:href="#ah"/></g><g id="y"><use transform="matrix(0.05,0,0,0.05,0,0)" xlink:href="#Y"/><use transform="matrix(0.05,0,0,0.05,10,0)" xlink:href="#af"/><use transform="matrix(0.05,0,0,0.05,20,0)" xlink:href="#ad"/></g><g id="z"><use transform="matrix(0.05,0,0,0.05,0,0)" xlink:href="#aH"/><use transform="matrix(0.05,0,0,0.05,10.950000000000001,0)" xlink:href="#af"/><use transform="matrix(0.05,0,0,0.05,20.950000000000003,0)" xlink:href="#aj"/><use transform="matrix(0.05,0,0,0.05,30.950000000000003,0)" xlink:href="#Y"/><use transform="matrix(0.05,0,0,0.05,40.95,0)" xlink:href="#as"/></g><g id="A"><use transform="matrix(0.05,0,0,0.05,0,0)" xlink:href="#aF"/><use transform="matrix(0.05,0,0,0.05,9,0)" xlink:href="#ah"/><use transform="matrix(0.05,0,0,0.05,19,0)" xlink:href="#ab"/><use transform="matrix(0.05,0,0,0.05,28,0)" xlink:href="#aA"/><use transform="matrix(0.05,0,0,0.05,38,0)" xlink:href="#aB"/><use transform="matrix(0.05,0,0,0.05,43,0)" xlink:href="#ae"/><use transform="matrix(0.05,0,0,0.05,46.95,0)" xlink:href="#au"/><use transform="matrix(0.05,0,0,0.05,50.900000000000006,0)" xlink:href="#ah"/></g><g id="C"><use transform="matrix(0.05,0,0,0.05,0,0)" xlink:href="#ay"/><use transform="matrix(0.05,0,0,0.05,5,0)" xlink:href="#X"/><use transform="matrix(0.05,0,0,0.05,17,0)" xlink:href="#au"/><use transform="matrix(0.05,0,0,0.05,20.95,0)" xlink:href="#ap"/><use transform="matrix(0.05,0,0,0.05,29.950000000000003,0)" xlink:href="#ah"/><use transform="matrix(0.05,0,0,0.05,39.95,0)" xlink:href="#aI"/></g><g id="D"><use transform="matrix(0.05,0,0,0.05,0,0)" xlink:href="#aG"/><use transform="matrix(0.05,0,0,0.05,14,0)" xlink:href="#aj"/><use transform="matrix(0.05,0,0,0.05,24,0)" xlink:href="#ad"/><use transform="matrix(0.05,0,0,0.05,29,0)" xlink:href="#aH"/><use transform="matrix(0.05,0,0,0.05,39.95,0)" xlink:href="#ae"/><use transform="matrix(0.05,0,0,0.05,43.900000000000006,0)" xlink:href="#au"/><use transform="matrix(0.05,0,0,0.05,47.85000000000001,0)" xlink:href="#ah"/><use transform="matrix(0.05,0,0,0.05,57.85,0)" xlink:href="#aE"/><use transform="matrix(0.05,0,0,0.05,70.80000000000001,0)" xlink:href="#al"/><use transform="matrix(0.05,0,0,0.05,80.80000000000001,0)" xlink:href="#an"/><use transform="matrix(0.05,0,0,0.05,95.75000000000001,0)" xlink:href="#ah"/></g><g id="E"><use transform="matrix(0.05,0,0,0.05,0,0)" xlink:href="#ae"/><use transform="matrix(0.05,0,0,0.05,3.95,0)" xlink:href="#ap"/></g><path d="M33 0v-248h34V0H33" id="aJ"/><g id="F"><use transform="matrix(0.05,0,0,0.05,0,0)" xlink:href="#aJ"/><use transform="matrix(0.05,0,0,0.05,5,0)" xlink:href="#Y"/><use transform="matrix(0.05,0,0,0.05,15,0)" xlink:href="#ax"/><use transform="matrix(0.05,0,0,0.05,24,0)" xlink:href="#al"/><use transform="matrix(0.05,0,0,0.05,34,0)" xlink:href="#au"/><use transform="matrix(0.05,0,0,0.05,37.95,0)" xlink:href="#ae"/><use transform="matrix(0.05,0,0,0.05,41.900000000000006,0)" xlink:href="#as"/></g><g id="G"><use transform="matrix(0.05,0,0,0.05,0,0)" xlink:href="#X"/><use transform="matrix(0.05,0,0,0.05,12,0)" xlink:href="#Y"/><use transform="matrix(0.05,0,0,0.05,22,0)" xlink:href="#ad"/><use transform="matrix(0.05,0,0,0.05,27,0)" xlink:href="#ah"/><use transform="matrix(0.05,0,0,0.05,37,0)" xlink:href="#aa"/></g><g id="H"><use transform="matrix(0.05,0,0,0.05,0,0)" xlink:href="#ar"/><use transform="matrix(0.05,0,0,0.05,12.950000000000001,0)" xlink:href="#af"/><use transform="matrix(0.05,0,0,0.05,22.950000000000003,0)" xlink:href="#an"/><use transform="matrix(0.05,0,0,0.05,37.900000000000006,0)" xlink:href="#an"/><use transform="matrix(0.05,0,0,0.05,52.85,0)" xlink:href="#al"/><use transform="matrix(0.05,0,0,0.05,62.85,0)" xlink:href="#Y"/><use transform="matrix(0.05,0,0,0.05,72.85000000000001,0)" xlink:href="#as"/></g><path d="M233-177c-1 41-23 64-60 70L243 0h-38l-65-103H63V0H30v-248c88 3 205-21 203 71zM63-129c60-2 137 13 137-47 0-61-80-42-137-45v92" id="aK"/><g id="I"><use transform="matrix(0.05,0,0,0.05,0,0)" xlink:href="#aK"/><use transform="matrix(0.05,0,0,0.05,12.950000000000001,0)" xlink:href="#aj"/><use transform="matrix(0.05,0,0,0.05,22.950000000000003,0)" xlink:href="#Y"/></g><path d="M33 0v-38h34V0H33" id="aL"/><g id="J"><use transform="matrix(0.05,0,0,0.05,0,0)" xlink:href="#X"/><use transform="matrix(0.05,0,0,0.05,12,0)" xlink:href="#Y"/><use transform="matrix(0.05,0,0,0.05,22,0)" xlink:href="#Z"/><use transform="matrix(0.05,0,0,0.05,31,0)" xlink:href="#aa"/><use transform="matrix(0.05,0,0,0.05,36.95,0)" xlink:href="#ab"/><use transform="matrix(0.05,0,0,0.05,45.95,0)" xlink:href="#ac"/><use transform="matrix(0.05,0,0,0.05,55.95,0)" xlink:href="#ad"/><use transform="matrix(0.05,0,0,0.05,60.95,0)" xlink:href="#ae"/><use transform="matrix(0.05,0,0,0.05,64.9,0)" xlink:href="#af"/><use transform="matrix(0.05,0,0,0.05,74.9,0)" xlink:href="#Y"/><use transform="matrix(0.05,0,0,0.05,84.9,0)" xlink:href="#aL"/><use transform="matrix(0.05,0,0,0.05,89.9,0)" xlink:href="#ac"/><use transform="matrix(0.05,0,0,0.05,99.9,0)" xlink:href="#ab"/></g><path d="M106-169C34-169 62-67 57 0H25v-261h32l-1 103c12-21 28-36 61-36 89 0 53 116 60 194h-32v-121c2-32-8-49-39-48" id="aM"/><path d="M87 75C49 33 22-17 22-94c0-76 28-126 65-167h31c-38 41-64 92-64 168S80 34 118 75H87" id="aN"/><path d="M33-261c38 41 65 92 65 168S71 34 33 75H2C39 34 66-17 66-93S39-220 2-261h31" id="aO"/><g id="K"><use transform="matrix(0.05,0,0,0.05,0,0)" xlink:href="#Z"/><use transform="matrix(0.05,0,0,0.05,9,0)" xlink:href="#aa"/><use transform="matrix(0.05,0,0,0.05,14.949999999999998,0)" xlink:href="#ah"/><use transform="matrix(0.05,0,0,0.05,24.95,0)" xlink:href="#al"/><use transform="matrix(0.05,0,0,0.05,34.95,0)" xlink:href="#ad"/><use transform="matrix(0.05,0,0,0.05,39.95,0)" xlink:href="#ah"/><use transform="matrix(0.05,0,0,0.05,49.95,0)" xlink:href="#aA"/><use transform="matrix(0.05,0,0,0.05,59.95,0)" xlink:href="#ah"/><use transform="matrix(0.05,0,0,0.05,69.95,0)" xlink:href="#ax"/><use transform="matrix(0.05,0,0,0.05,78.95,0)" xlink:href="#ah"/><use transform="matrix(0.05,0,0,0.05,88.95,0)" xlink:href="#aa"/><use transform="matrix(0.05,0,0,0.05,94.9,0)" xlink:href="#ab"/><use transform="matrix(0.05,0,0,0.05,103.9,0)" xlink:href="#ad"/><use transform="matrix(0.05,0,0,0.05,108.9,0)" xlink:href="#aM"/><use transform="matrix(0.05,0,0,0.05,118.9,0)" xlink:href="#ae"/><use transform="matrix(0.05,0,0,0.05,122.85000000000001,0)" xlink:href="#Y"/><use transform="matrix(0.05,0,0,0.05,132.85000000000002,0)" xlink:href="#am"/><use transform="matrix(0.05,0,0,0.05,142.85000000000002,0)" xlink:href="#aN"/><use transform="matrix(0.05,0,0,0.05,148.8,0)" xlink:href="#aO"/></g><g id="L"><use transform="matrix(0.05,0,0,0.05,0,0)" xlink:href="#ad"/><use transform="matrix(0.05,0,0,0.05,5,0)" xlink:href="#ah"/><use transform="matrix(0.05,0,0,0.05,15,0)" xlink:href="#az"/><use transform="matrix(0.05,0,0,0.05,24,0)" xlink:href="#ad"/><use transform="matrix(0.05,0,0,0.05,29,0)" xlink:href="#aA"/><use transform="matrix(0.05,0,0,0.05,39,0)" xlink:href="#aB"/><use transform="matrix(0.05,0,0,0.05,44,0)" xlink:href="#ae"/><use transform="matrix(0.05,0,0,0.05,47.95,0)" xlink:href="#au"/><use transform="matrix(0.05,0,0,0.05,51.900000000000006,0)" xlink:href="#ah"/><use transform="matrix(0.05,0,0,0.05,61.900000000000006,0)" xlink:href="#Y"/><use transform="matrix(0.05,0,0,0.05,71.9,0)" xlink:href="#al"/><use transform="matrix(0.05,0,0,0.05,81.9,0)" xlink:href="#an"/><use transform="matrix(0.05,0,0,0.05,96.85000000000001,0)" xlink:href="#ah"/></g><g id="M"><use transform="matrix(0.05,0,0,0.05,0,0)" xlink:href="#aJ"/><use transform="matrix(0.05,0,0,0.05,5,0)" xlink:href="#Y"/><use transform="matrix(0.05,0,0,0.05,15,0)" xlink:href="#ae"/><use transform="matrix(0.05,0,0,0.05,18.95,0)" xlink:href="#ad"/><use transform="matrix(0.05,0,0,0.05,23.95,0)" xlink:href="#ae"/><use transform="matrix(0.05,0,0,0.05,27.899999999999995,0)" xlink:href="#al"/><use transform="matrix(0.05,0,0,0.05,37.9,0)" xlink:href="#au"/><use transform="matrix(0.05,0,0,0.05,41.85,0)" xlink:href="#ae"/><use transform="matrix(0.05,0,0,0.05,45.800000000000004,0)" xlink:href="#ap"/><use transform="matrix(0.05,0,0,0.05,54.800000000000004,0)" xlink:href="#ah"/><use transform="matrix(0.05,0,0,0.05,64.80000000000001,0)" xlink:href="#as"/></g><g id="N"><use transform="matrix(0.05,0,0,0.05,0,0)" xlink:href="#aF"/><use transform="matrix(0.05,0,0,0.05,9,0)" xlink:href="#ah"/><use transform="matrix(0.05,0,0,0.05,19,0)" xlink:href="#ab"/><use transform="matrix(0.05,0,0,0.05,28,0)" xlink:href="#aA"/><use transform="matrix(0.05,0,0,0.05,38,0)" xlink:href="#aB"/><use transform="matrix(0.05,0,0,0.05,43,0)" xlink:href="#ae"/><use transform="matrix(0.05,0,0,0.05,46.95,0)" xlink:href="#au"/><use transform="matrix(0.05,0,0,0.05,50.900000000000006,0)" xlink:href="#ah"/><use transform="matrix(0.05,0,0,0.05,60.900000000000006,0)" xlink:href="#Y"/><use transform="matrix(0.05,0,0,0.05,70.9,0)" xlink:href="#al"/><use transform="matrix(0.05,0,0,0.05,80.9,0)" xlink:href="#an"/><use transform="matrix(0.05,0,0,0.05,95.85000000000001,0)" xlink:href="#ah"/></g><g id="O"><use transform="matrix(0.05,0,0,0.05,0,0)" xlink:href="#aG"/><use transform="matrix(0.05,0,0,0.05,14,0)" xlink:href="#aj"/><use transform="matrix(0.05,0,0,0.05,24,0)" xlink:href="#ad"/><use transform="matrix(0.05,0,0,0.05,29,0)" xlink:href="#aH"/><use transform="matrix(0.05,0,0,0.05,39.95,0)" xlink:href="#ae"/><use transform="matrix(0.05,0,0,0.05,43.900000000000006,0)" xlink:href="#au"/><use transform="matrix(0.05,0,0,0.05,47.85000000000001,0)" xlink:href="#ah"/><use transform="matrix(0.05,0,0,0.05,57.85,0)" xlink:href="#aE"/><use transform="matrix(0.05,0,0,0.05,70.80000000000001,0)" xlink:href="#al"/><use transform="matrix(0.05,0,0,0.05,80.80000000000001,0)" xlink:href="#an"/><use transform="matrix(0.05,0,0,0.05,95.75000000000001,0)" xlink:href="#ah"/></g><g id="P"><use transform="matrix(0.05,0,0,0.05,0,0)" xlink:href="#ae"/><use transform="matrix(0.05,0,0,0.05,3.95,0)" xlink:href="#Y"/><use transform="matrix(0.05,0,0,0.05,13.949999999999998,0)" xlink:href="#ac"/><use transform="matrix(0.05,0,0,0.05,23.95,0)" xlink:href="#aj"/><use transform="matrix(0.05,0,0,0.05,33.95,0)" xlink:href="#ad"/><use transform="matrix(0.05,0,0,0.05,38.95,0)" xlink:href="#aA"/><use transform="matrix(0.05,0,0,0.05,48.95,0)" xlink:href="#ad"/><use transform="matrix(0.05,0,0,0.05,53.95,0)" xlink:href="#ah"/><use transform="matrix(0.05,0,0,0.05,63.95,0)" xlink:href="#az"/><use transform="matrix(0.05,0,0,0.05,72.95,0)" xlink:href="#ad"/><use transform="matrix(0.05,0,0,0.05,77.95,0)" xlink:href="#aN"/><use transform="matrix(0.05,0,0,0.05,83.9,0)" xlink:href="#aO"/></g><g id="Q"><use transform="matrix(0.05,0,0,0.05,0,0)" xlink:href="#ae"/><use transform="matrix(0.05,0,0,0.05,3.95,0)" xlink:href="#Y"/><use transform="matrix(0.05,0,0,0.05,13.949999999999998,0)" xlink:href="#ac"/><use transform="matrix(0.05,0,0,0.05,23.95,0)" xlink:href="#aj"/><use transform="matrix(0.05,0,0,0.05,33.95,0)" xlink:href="#ad"/><use transform="matrix(0.05,0,0,0.05,38.95,0)" xlink:href="#aA"/><use transform="matrix(0.05,0,0,0.05,48.95,0)" xlink:href="#ad"/><use transform="matrix(0.05,0,0,0.05,53.95,0)" xlink:href="#ah"/><use transform="matrix(0.05,0,0,0.05,63.95,0)" xlink:href="#az"/><use transform="matrix(0.05,0,0,0.05,72.95,0)" xlink:href="#ad"/><use transform="matrix(0.05,0,0,0.05,77.95,0)" xlink:href="#aA"/><use transform="matrix(0.05,0,0,0.05,87.95,0)" xlink:href="#aF"/><use transform="matrix(0.05,0,0,0.05,96.95,0)" xlink:href="#ah"/><use transform="matrix(0.05,0,0,0.05,106.95,0)" xlink:href="#ab"/><use transform="matrix(0.05,0,0,0.05,115.95,0)" xlink:href="#aN"/><use transform="matrix(0.05,0,0,0.05,121.9,0)" xlink:href="#aO"/></g><g id="R"><use transform="matrix(0.05,0,0,0.05,0,0)" xlink:href="#av"/><use transform="matrix(0.05,0,0,0.05,12,0)" xlink:href="#ah"/><use transform="matrix(0.05,0,0,0.05,22,0)" xlink:href="#ab"/><use transform="matrix(0.05,0,0,0.05,31,0)" xlink:href="#aA"/><use transform="matrix(0.05,0,0,0.05,41,0)" xlink:href="#ah"/><use transform="matrix(0.05,0,0,0.05,51,0)" xlink:href="#az"/><use transform="matrix(0.05,0,0,0.05,60,0)" xlink:href="#ac"/><use transform="matrix(0.05,0,0,0.05,70,0)" xlink:href="#al"/><use transform="matrix(0.05,0,0,0.05,80,0)" xlink:href="#Y"/><use transform="matrix(0.05,0,0,0.05,90,0)" xlink:href="#ap"/><use transform="matrix(0.05,0,0,0.05,99,0)" xlink:href="#ae"/><use transform="matrix(0.05,0,0,0.05,102.95,0)" xlink:href="#af"/><use transform="matrix(0.05,0,0,0.05,112.95,0)" xlink:href="#Y"/><use transform="matrix(0.05,0,0,0.05,122.95,0)" xlink:href="#aN"/><use transform="matrix(0.05,0,0,0.05,128.9,0)" xlink:href="#aO"/></g><g id="S"><use transform="matrix(0.05,0,0,0.05,0,0)" xlink:href="#ah"/><use transform="matrix(0.05,0,0,0.05,10,0)" xlink:href="#Y"/><use transform="matrix(0.05,0,0,0.05,20,0)" xlink:href="#Z"/><use transform="matrix(0.05,0,0,0.05,29,0)" xlink:href="#aa"/><use transform="matrix(0.05,0,0,0.05,34.95,0)" xlink:href="#ab"/><use transform="matrix(0.05,0,0,0.05,43.95,0)" xlink:href="#ac"/><use transform="matrix(0.05,0,0,0.05,53.95,0)" xlink:href="#ad"/><use transform="matrix(0.05,0,0,0.05,58.95,0)" xlink:href="#aN"/><use transform="matrix(0.05,0,0,0.05,64.9,0)" xlink:href="#aO"/></g><g id="T"><use transform="matrix(0.05,0,0,0.05,0,0)" xlink:href="#ap"/><use transform="matrix(0.05,0,0,0.05,9,0)" xlink:href="#ad"/><use transform="matrix(0.05,0,0,0.05,14,0)" xlink:href="#af"/><use transform="matrix(0.05,0,0,0.05,24,0)" xlink:href="#aa"/><use transform="matrix(0.05,0,0,0.05,29.950000000000003,0)" xlink:href="#ah"/><use transform="matrix(0.05,0,0,0.05,39.95,0)" xlink:href="#aA"/><use transform="matrix(0.05,0,0,0.05,49.95,0)" xlink:href="#aG"/><use transform="matrix(0.05,0,0,0.05,63.95,0)" xlink:href="#aj"/><use transform="matrix(0.05,0,0,0.05,73.95,0)" xlink:href="#ad"/><use transform="matrix(0.05,0,0,0.05,78.95,0)" xlink:href="#ac"/><use transform="matrix(0.05,0,0,0.05,88.95,0)" xlink:href="#aj"/><use transform="matrix(0.05,0,0,0.05,98.95,0)" xlink:href="#ad"/><use transform="matrix(0.05,0,0,0.05,103.95,0)" xlink:href="#aN"/><use transform="matrix(0.05,0,0,0.05,109.9,0)" xlink:href="#aO"/></g><g id="U"><use transform="matrix(0.05,0,0,0.05,0,0)" xlink:href="#ah"/><use transform="matrix(0.05,0,0,0.05,10,0)" xlink:href="#Y"/><use transform="matrix(0.05,0,0,0.05,20,0)" xlink:href="#Z"/><use transform="matrix(0.05,0,0,0.05,29,0)" xlink:href="#aa"/><use transform="matrix(0.05,0,0,0.05,34.95,0)" xlink:href="#ab"/><use transform="matrix(0.05,0,0,0.05,43.95,0)" xlink:href="#ac"/><use transform="matrix(0.05,0,0,0.05,53.95,0)" xlink:href="#ad"/><use transform="matrix(0.05,0,0,0.05,58.95,0)" xlink:href="#ae"/><use transform="matrix(0.05,0,0,0.05,62.900000000000006,0)" xlink:href="#af"/><use transform="matrix(0.05,0,0,0.05,72.9,0)" xlink:href="#Y"/></g><g id="V"><use transform="matrix(0.05,0,0,0.05,0,0)" xlink:href="#ac"/><use transform="matrix(0.05,0,0,0.05,10,0)" xlink:href="#ah"/><use transform="matrix(0.05,0,0,0.05,20,0)" xlink:href="#aa"/><use transform="matrix(0.05,0,0,0.05,25.950000000000003,0)" xlink:href="#aB"/><use transform="matrix(0.05,0,0,0.05,30.950000000000003,0)" xlink:href="#af"/><use transform="matrix(0.05,0,0,0.05,40.95,0)" xlink:href="#aa"/><use transform="matrix(0.05,0,0,0.05,46.900000000000006,0)" xlink:href="#an"/><use transform="matrix(0.05,0,0,0.05,61.85,0)" xlink:href="#ah"/><use transform="matrix(0.05,0,0,0.05,71.85000000000001,0)" xlink:href="#as"/></g><g id="W"><use transform="matrix(0.05,0,0,0.05,0,0)" xlink:href="#ap"/><use transform="matrix(0.05,0,0,0.05,9,0)" xlink:href="#aj"/><use transform="matrix(0.05,0,0,0.05,19,0)" xlink:href="#Z"/><use transform="matrix(0.05,0,0,0.05,28,0)" xlink:href="#Z"/><use transform="matrix(0.05,0,0,0.05,37,0)" xlink:href="#ah"/><use transform="matrix(0.05,0,0,0.05,47,0)" xlink:href="#ah"/><use transform="matrix(0.05,0,0,0.05,57,0)" xlink:href="#as"/><use transform="matrix(0.05,0,0,0.05,67,0)" xlink:href="#ah"/><use transform="matrix(0.05,0,0,0.05,77,0)" xlink:href="#as"/></g></defs></g></svg>