<svg xmlns="http://www.w3.org/2000/svg" xmlns:xlink="http://www.w3.org/1999/xlink" xmlns:lucid="lucid" width="1320" height="900"><g transform="translate(-360 -20)" lucid:page-tab-id="0_0"><path d="M439.75 459.75c0 10.9-8.84 19.75-19.75 19.75-10.9 0-19.75-8.84-19.75-19.75 0-10.9 8.84-19.75 19.75-19.75 10.9 0 19.75 8.84 19.75 19.75z" stroke="#000" stroke-width="2" fill="#fff"/><path d="M420 479.5v55.3l40 63.2m-40-63.2L380 598m0-98.75h80" stroke="#000" stroke-width="2" fill="none"/><path d="M380 440h80v180h-80z" fill="none"/><use xlink:href="#a" transform="matrix(1,0,0,1,300,598) translate(101.05 14.6)"/><path d="M620 40h800v860H620z" stroke="#000" stroke-width="2" fill-opacity="0"/><use xlink:href="#b" transform="matrix(1,0,0,1,628,48) translate(187.9228395061728 19.555555555555557)"/><use xlink:href="#c" transform="matrix(1,0,0,1,628,48) translate(243.60185185185182 19.555555555555557)"/><use xlink:href="#d" transform="matrix(1,0,0,1,628,48) translate(365.6882716049383 19.555555555555557)"/><use xlink:href="#e" transform="matrix(1,0,0,1,628,48) translate(413.21913580246917 19.555555555555557)"/><use xlink:href="#f" transform="matrix(1,0,0,1,628,48) translate(536.5956790123457 19.555555555555557)"/><path d="M980 160c0 33.14-35.82 60-80 60s-80-26.86-80-60 35.82-60 80-60 80 26.86 80 60z" stroke="#000" stroke-width="2" fill="#fff"/><use xlink:href="#g" transform="matrix(1,0,0,1,820,100) translate(13.654999999999982 63.15)"/><use xlink:href="#h" transform="matrix(1,0,0,1,820,100) translate(74.55499999999999 63.15)"/><path d="M980 560c0 33.14-35.82 60-80 60s-80-26.86-80-60 35.82-60 80-60 80 26.86 80 60z" stroke="#000" stroke-width="2" fill="#fff"/><use xlink:href="#g" transform="matrix(1,0,0,1,820,500) translate(14.62999999999999 63.15)"/><use xlink:href="#i" transform="matrix(1,0,0,1,820,500) translate(75.53 63.15)"/><path d="M980 760c0 33.14-35.82 60-80 60s-80-26.86-80-60 35.82-60 80-60 80 26.86 80 60z" stroke="#000" stroke-width="2" fill="#fff"/><use xlink:href="#j" transform="matrix(1,0,0,1,820,700) translate(17.07999999999999 63.15)"/><use xlink:href="#k" transform="matrix(1,0,0,1,820,700) translate(60.029999999999994 63.15)"/><path d="M980 360c0 33.14-35.82 60-80 60s-80-26.86-80-60 35.82-60 80-60 80 26.86 80 60z" stroke="#000" stroke-width="2" fill="#fff"/><use xlink:href="#l" transform="matrix(1,0,0,1,820,300) translate(49.03 40.65)"/><use xlink:href="#m" transform="matrix(1,0,0,1,820,300) translate(27.07999999999999 62.25)"/><use xlink:href="#n" transform="matrix(1,0,0,1,820,300) translate(116.98 62.25)"/><use xlink:href="#o" transform="matrix(1,0,0,1,820,300) translate(37.08 83.85000000000001)"/><path d="M460.73 497.56l344.8-324.87" stroke="#000" stroke-width="2" fill="none"/><path d="M458.5 501.04l-.74-.8h1.58zm2.93-2.77l-1.43 1.35v-1.37h-1.46l1.52-1.43z"/><path d="M816.64 162.22l-7.2 13.16-6.36-6.75z" stroke="#000" stroke-width="2"/><path d="M460.93 497.9l340.8-131.25" stroke="#000" stroke-width="2" fill="none"/><path d="M457.56 500.26h.03zm3.76-1.45l-1.32.52v-1.07h-2.78l3.38-1.3z"/><path d="M815.98 361.16l-11.65 9.46-3.33-8.66z" stroke="#000" stroke-width="2"/><path d="M800.75 556.96L461 500.4" stroke="#000" stroke-width="2" fill="none"/><path d="M815.8 559.47l-14.83 2.23 1.53-9.15z" stroke="#000" stroke-width="2"/><path d="M461.18 499.43l-.33 1.97-3.97-.66.08-.5H460v-1z"/><path d="M804 749.15l-343.2-248.3" stroke="#000" stroke-width="2" fill="none"/><path d="M816.38 758.1l-14.28-4.6 5.44-7.5z" stroke="#000" stroke-width="2"/><path d="M461.42 500.04l-1.18 1.62-1.95-1.4h1.7V499zm-3.68-1.8l.42-.56.78.57z"/><path d="M1260 360c0 33.14-35.82 60-80 60s-80-26.86-80-60 35.82-60 80-60 80 26.86 80 60z" stroke="#000" stroke-width="2" fill="#fff"/><use xlink:href="#p" transform="matrix(1,0,0,1,1100,300) translate(48.08 40.65)"/><use xlink:href="#q" transform="matrix(1,0,0,1,1100,300) translate(20.054999999999993 62.25)"/><use xlink:href="#r" transform="matrix(1,0,0,1,1100,300) translate(109.95500000000001 62.25)"/><use xlink:href="#s" transform="matrix(1,0,0,1,1100,300) translate(37.08 83.85000000000001)"/><path d="M991.6 361H982v-2h9.6zm12.76 0h-3.16v-2h3.16zm92.82 0h-9.6v-2h9.6zm-19.2 0h-15.67v-2H1078z"/><path d="M982.03 361h-1.06l.03-1v-.4l-.03-.6h1.06zM1099 360l-18.67 11.04-1.02-1.72 15.77-9.32-15.76-9.32 1.03-1.72z"/><use xlink:href="#t" transform="matrix(1,0,0,1,1004.3583333333332,349.2) translate(0 14.4)"/><path d="M1639.75 459.75c0 10.9-8.84 19.75-19.75 19.75-10.9 0-19.75-8.84-19.75-19.75 0-10.9 8.84-19.75 19.75-19.75 10.9 0 19.75 8.84 19.75 19.75z" stroke="#000" stroke-width="2" fill="#fff"/><path d="M1620 479.5v55.3l40 63.2m-40-63.2l-40 63.2m0-98.75h80" stroke="#000" stroke-width="2" fill="none"/><path d="M1580 440h80v180h-80z" fill="none"/><use xlink:href="#u" transform="matrix(1,0,0,1,1500,598) translate(90.025 14.6)"/><path d="M1277.98 367.36l301.1 130.5" stroke="#000" stroke-width="2" fill="none"/><path d="M1263.97 361.3l14.93 1.4-3.68 8.5z" stroke="#000" stroke-width="2"/><path d="M1582.4 500.25l-.05.1-.25-.1zm.1-2h-2.5v1.1l-1.34-.6.8-1.83z"/><path d="M1280 760c0 33.14-35.82 60-80 60s-80-26.86-80-60 35.82-60 80-60 80 26.86 80 60z" stroke="#000" stroke-width="2" fill="#fff"/><use xlink:href="#v" transform="matrix(1,0,0,1,1120,700) translate(42.529999999999994 31.410000000000004)"/><use xlink:href="#w" transform="matrix(1,0,0,1,1120,700) translate(29.054999999999993 53.01)"/><use xlink:href="#x" transform="matrix(1,0,0,1,1120,700) translate(115.005 53.01)"/><use xlink:href="#y" transform="matrix(1,0,0,1,1120,700) translate(39.05499999999999 74.61)"/><use xlink:href="#z" transform="matrix(1,0,0,1,1120,700) translate(41.055 96.21000000000001)"/><use xlink:href="#A" transform="matrix(1,0,0,1,1120,700) translate(96.05499999999999 96.21000000000001)"/><path d="M1295 747.9l285.43-247" stroke="#000" stroke-width="2" fill="none"/><path d="M1283.45 757.88l7.75-12.84 6.07 7z" stroke="#000" stroke-width="2"/><path d="M1580.4 500.92l3.05-2.63" stroke="#000" stroke-width="2" fill="none"/><path d="M1240 160c0 33.14-35.82 60-80 60s-80-26.86-80-60 35.82-60 80-60 80 26.86 80 60z" stroke="#000" stroke-width="2" fill="#fff"/><g><use xlink:href="#B" transform="matrix(1,0,0,1,1080,100) translate(14.104999999999999 63.15)"/><use xlink:href="#C" transform="matrix(1,0,0,1,1080,100) translate(74.105 63.15)"/></g><path d="M1254.1 173.07l325.2 324.47" stroke="#000" stroke-width="2" fill="none"/><path d="M1243.3 162.3l13.36 6.78-6.54 6.56z" stroke="#000" stroke-width="2"/><path d="M1582.24 500.25l-.82.83-.83-.83zm-.82-2H1580v1.4l-1.43-1.42 1.4-1.4z"/><path d="M1260 560c0 33.14-35.82 60-80 60s-80-26.86-80-60 35.82-60 80-60 80 26.86 80 60z" stroke="#000" stroke-width="2" fill="#fff"/><g><use xlink:href="#B" transform="matrix(1,0,0,1,1100,500) translate(17.57999999999999 63.15)"/><use xlink:href="#D" transform="matrix(1,0,0,1,1100,500) translate(77.58 63.15)"/><use xlink:href="#E" transform="matrix(1,0,0,1,1100,500) translate(113.58 63.15)"/></g><path d="M1279.2 556.6l301-56.17" stroke="#000" stroke-width="2" fill="none"/><path d="M1264.18 559.4l13.17-7.17 1.7 9.12z" stroke="#000" stroke-width="2"/><path d="M1580.18 500.44l3.95-.74" stroke="#000" stroke-width="2" fill="none"/><defs><path d="M232-93c-1 65-40 97-104 97C67 4 28-28 28-90v-158h33c8 89-33 224 67 224 102 0 64-133 71-224h33v155" id="F"/><path d="M135-143c-3-34-86-38-87 0 15 53 115 12 119 90S17 21 10-45l28-5c4 36 97 45 98 0-10-56-113-15-118-90-4-57 82-63 122-42 12 7 21 19 24 35" id="G"/><path d="M100-194c63 0 86 42 84 106H49c0 40 14 67 53 68 26 1 43-12 49-29l28 8c-11 28-37 45-77 45C44 4 14-33 15-96c1-61 26-98 85-98zm52 81c6-60-76-77-97-28-3 7-6 17-6 28h103" id="H"/><path d="M114-163C36-179 61-72 57 0H25l-1-190h30c1 12-1 29 2 39 6-27 23-49 58-41v29" id="I"/><g id="a"><use transform="matrix(0.05,0,0,0.05,0,0)" xlink:href="#F"/><use transform="matrix(0.05,0,0,0.05,12.950000000000001,0)" xlink:href="#G"/><use transform="matrix(0.05,0,0,0.05,21.950000000000003,0)" xlink:href="#H"/><use transform="matrix(0.05,0,0,0.05,31.950000000000003,0)" xlink:href="#I"/></g><path d="M205 0l-28-72H64L36 0H1l101-248h38L239 0h-34zm-38-99l-47-123c-12 45-31 82-46 123h93" id="J"/><path d="M30 0v-248h187v28H63v79h144v27H63v87h162V0H30" id="K"/><path d="M185-189c-5-48-123-54-124 2 14 75 158 14 163 119 3 78-121 87-175 55-17-10-28-26-33-46l33-7c5 56 141 63 141-1 0-78-155-14-162-118-5-82 145-84 179-34 5 7 8 16 11 25" id="L"/><g id="b"><use transform="matrix(0.06790123456790124,0,0,0.06790123456790124,0,0)" xlink:href="#J"/><use transform="matrix(0.06790123456790124,0,0,0.06790123456790124,16.296296296296298,0)" xlink:href="#K"/><use transform="matrix(0.06790123456790124,0,0,0.06790123456790124,32.592592592592595,0)" xlink:href="#L"/><path d="M-1.22 1.7H56.9v1.78H-1.22z"/></g><path d="M117-194c89-4 53 116 60 194h-32v-121c0-31-8-49-39-48C34-167 62-67 57 0H25l-1-190h30c1 10-1 24 2 32 11-22 29-35 61-36" id="M"/><path d="M96-169c-40 0-48 33-48 73s9 75 48 75c24 0 41-14 43-38l32 2c-6 37-31 61-74 61-59 0-76-41-82-99-10-93 101-131 147-64 4 7 5 14 7 22l-32 3c-4-21-16-35-41-35" id="N"/><path d="M179-190L93 31C79 59 56 82 12 73V49c39 6 53-20 64-50L1-190h34L92-34l54-156h33" id="O"/><path d="M115-194c55 1 70 41 70 98S169 2 115 4C84 4 66-9 55-30l1 105H24l-1-265h31l2 30c10-21 28-34 59-34zm-8 174c40 0 45-34 45-75s-6-73-45-74c-42 0-51 32-51 76 0 43 10 73 51 73" id="P"/><path d="M59-47c-2 24 18 29 38 22v24C64 9 27 4 27-40v-127H5v-23h24l9-43h21v43h35v23H59v120" id="Q"/><path d="M24-231v-30h32v30H24zM24 0v-190h32V0H24" id="R"/><path d="M100-194c62-1 85 37 85 99 1 63-27 99-86 99S16-35 15-95c0-66 28-99 85-99zM99-20c44 1 53-31 53-75 0-43-8-75-51-75s-53 32-53 75 10 74 51 75" id="S"/><g id="c"><use transform="matrix(0.06790123456790124,0,0,0.06790123456790124,0,0)" xlink:href="#K"/><use transform="matrix(0.06790123456790124,0,0,0.06790123456790124,16.296296296296298,0)" xlink:href="#M"/><use transform="matrix(0.06790123456790124,0,0,0.06790123456790124,29.876543209876544,0)" xlink:href="#N"/><use transform="matrix(0.06790123456790124,0,0,0.06790123456790124,42.098765432098766,0)" xlink:href="#I"/><use transform="matrix(0.06790123456790124,0,0,0.06790123456790124,50.17901234567901,0)" xlink:href="#O"/><use transform="matrix(0.06790123456790124,0,0,0.06790123456790124,62.401234567901234,0)" xlink:href="#P"/><use transform="matrix(0.06790123456790124,0,0,0.06790123456790124,75.98148148148148,0)" xlink:href="#Q"/><use transform="matrix(0.06790123456790124,0,0,0.06790123456790124,82.77160493827161,0)" xlink:href="#R"/><use transform="matrix(0.06790123456790124,0,0,0.06790123456790124,88.13580246913581,0)" xlink:href="#S"/><use transform="matrix(0.06790123456790124,0,0,0.06790123456790124,101.71604938271606,0)" xlink:href="#M"/><path d="M-1.22 1.7H123.3v1.78H-1.2z"/></g><path d="M141-36C126-15 110 5 73 4 37 3 15-17 15-53c-1-64 63-63 125-63 3-35-9-54-41-54-24 1-41 7-42 31l-33-3c5-37 33-52 76-52 45 0 72 20 72 64v82c-1 20 7 32 28 27v20c-31 9-61-2-59-35zM48-53c0 20 12 33 32 33 41-3 63-29 60-74-43 2-92-5-92 41" id="T"/><path d="M85-194c31 0 48 13 60 33l-1-100h32l1 261h-30c-2-10 0-23-3-31C134-8 116 4 85 4 32 4 16-35 15-94c0-66 23-100 70-100zm9 24c-40 0-46 34-46 75 0 40 6 74 45 74 42 0 51-32 51-76 0-42-9-74-50-73" id="U"/><g id="d"><use transform="matrix(0.06790123456790124,0,0,0.06790123456790124,0,0)" xlink:href="#T"/><use transform="matrix(0.06790123456790124,0,0,0.06790123456790124,13.580246913580249,0)" xlink:href="#M"/><use transform="matrix(0.06790123456790124,0,0,0.06790123456790124,27.160493827160497,0)" xlink:href="#U"/><path d="M-1.22 1.7h49.98v1.78H-1.22z"/></g><path d="M30-248c118-7 216 8 213 122C240-48 200 0 122 0H30v-248zM63-27c89 8 146-16 146-99s-60-101-146-95v194" id="V"/><g id="e"><use transform="matrix(0.06790123456790124,0,0,0.06790123456790124,0,0)" xlink:href="#V"/><use transform="matrix(0.06790123456790124,0,0,0.06790123456790124,17.58641975308642,0)" xlink:href="#H"/><use transform="matrix(0.06790123456790124,0,0,0.06790123456790124,31.16666666666667,0)" xlink:href="#N"/><use transform="matrix(0.06790123456790124,0,0,0.06790123456790124,43.38888888888889,0)" xlink:href="#I"/><use transform="matrix(0.06790123456790124,0,0,0.06790123456790124,51.46913580246915,0)" xlink:href="#O"/><use transform="matrix(0.06790123456790124,0,0,0.06790123456790124,63.69135802469136,0)" xlink:href="#P"/><use transform="matrix(0.06790123456790124,0,0,0.06790123456790124,77.27160493827161,0)" xlink:href="#Q"/><use transform="matrix(0.06790123456790124,0,0,0.06790123456790124,84.06172839506173,0)" xlink:href="#R"/><use transform="matrix(0.06790123456790124,0,0,0.06790123456790124,89.42592592592594,0)" xlink:href="#S"/><use transform="matrix(0.06790123456790124,0,0,0.06790123456790124,103.00617283950619,0)" xlink:href="#M"/><path d="M-1.22 1.7H124.6v1.78H-1.22z"/></g><path d="M24 0v-261h32V0H24" id="W"/><g id="f"><use transform="matrix(0.06790123456790124,0,0,0.06790123456790124,0,0)" xlink:href="#F"/><use transform="matrix(0.06790123456790124,0,0,0.06790123456790124,17.58641975308642,0)" xlink:href="#Q"/><use transform="matrix(0.06790123456790124,0,0,0.06790123456790124,24.376543209876544,0)" xlink:href="#R"/><use transform="matrix(0.06790123456790124,0,0,0.06790123456790124,29.740740740740744,0)" xlink:href="#W"/><use transform="matrix(0.06790123456790124,0,0,0.06790123456790124,35.104938271604944,0)" xlink:href="#R"/><use transform="matrix(0.06790123456790124,0,0,0.06790123456790124,40.46913580246914,0)" xlink:href="#Q"/><use transform="matrix(0.06790123456790124,0,0,0.06790123456790124,47.25925925925927,0)" xlink:href="#O"/><path d="M-1.22 1.7H60.7v1.78H-1.2z"/></g><path d="M84 4C-5 8 30-112 23-190h32v120c0 31 7 50 39 49 72-2 45-101 50-169h31l1 190h-30c-1-10 1-25-2-33-11 22-28 36-60 37" id="X"/><path d="M115-194c53 0 69 39 70 98 0 66-23 100-70 100C84 3 66-7 56-30L54 0H23l1-261h32v101c10-23 28-34 59-34zm-8 174c40 0 45-34 45-75 0-40-5-75-45-74-42 0-51 32-51 76 0 43 10 73 51 73" id="Y"/><path d="M210-169c-67 3-38 105-44 169h-31v-121c0-29-5-50-35-48C34-165 62-65 56 0H25l-1-190h30c1 10-1 24 2 32 10-44 99-50 107 0 11-21 27-35 58-36 85-2 47 119 55 194h-31v-121c0-29-5-49-35-48" id="Z"/><g id="g"><use transform="matrix(0.05,0,0,0.05,0,0)" xlink:href="#L"/><use transform="matrix(0.05,0,0,0.05,12,0)" xlink:href="#X"/><use transform="matrix(0.05,0,0,0.05,22,0)" xlink:href="#Y"/><use transform="matrix(0.05,0,0,0.05,32,0)" xlink:href="#Z"/><use transform="matrix(0.05,0,0,0.05,46.95,0)" xlink:href="#R"/><use transform="matrix(0.05,0,0,0.05,50.900000000000006,0)" xlink:href="#Q"/></g><path d="M127-220V0H93v-220H8v-28h204v28h-85" id="aa"/><path d="M141 0L90-78 38 0H4l68-98-65-92h35l48 74 47-74h35l-64 92 68 98h-35" id="ab"/><path d="M-5 72V49h209v23H-5" id="ac"/><path d="M63-220v92h138v28H63V0H30v-248h175v28H63" id="ad"/><g id="h"><use transform="matrix(0.05,0,0,0.05,0,0)" xlink:href="#aa"/><use transform="matrix(0.05,0,0,0.05,8.950000000000001,0)" xlink:href="#H"/><use transform="matrix(0.05,0,0,0.05,18.950000000000003,0)" xlink:href="#ab"/><use transform="matrix(0.05,0,0,0.05,27.950000000000003,0)" xlink:href="#Q"/><use transform="matrix(0.05,0,0,0.05,32.95,0)" xlink:href="#ac"/><use transform="matrix(0.05,0,0,0.05,42.95,0)" xlink:href="#ad"/><use transform="matrix(0.05,0,0,0.05,53.900000000000006,0)" xlink:href="#R"/><use transform="matrix(0.05,0,0,0.05,57.85,0)" xlink:href="#W"/><use transform="matrix(0.05,0,0,0.05,61.80000000000001,0)" xlink:href="#H"/></g><path d="M194 0L95-120 63-95V0H30v-248h33v124l119-124h40L117-140 236 0h-42" id="ae"/><g id="i"><use transform="matrix(0.05,0,0,0.05,0,0)" xlink:href="#ae"/><use transform="matrix(0.05,0,0,0.05,12,0)" xlink:href="#H"/><use transform="matrix(0.05,0,0,0.05,22,0)" xlink:href="#O"/><use transform="matrix(0.05,0,0,0.05,31,0)" xlink:href="#ac"/><use transform="matrix(0.05,0,0,0.05,41,0)" xlink:href="#ad"/><use transform="matrix(0.05,0,0,0.05,51.95,0)" xlink:href="#R"/><use transform="matrix(0.05,0,0,0.05,55.900000000000006,0)" xlink:href="#W"/><use transform="matrix(0.05,0,0,0.05,59.85,0)" xlink:href="#H"/></g><path d="M143 0L79-87 56-68V0H24v-261h32v163l83-92h37l-77 82L181 0h-38" id="af"/><g id="j"><use transform="matrix(0.05,0,0,0.05,0,0)" xlink:href="#aa"/><use transform="matrix(0.05,0,0,0.05,8.950000000000001,0)" xlink:href="#T"/><use transform="matrix(0.05,0,0,0.05,18.950000000000003,0)" xlink:href="#af"/><use transform="matrix(0.05,0,0,0.05,27.950000000000003,0)" xlink:href="#H"/></g><path d="M101-234c-31-9-42 10-38 44h38v23H63V0H32v-167H5v-23h27c-7-52 17-82 69-68v24" id="ag"/><g id="k"><use transform="matrix(0.05,0,0,0.05,0,0)" xlink:href="#S"/><use transform="matrix(0.05,0,0,0.05,10,0)" xlink:href="#X"/><use transform="matrix(0.05,0,0,0.05,20,0)" xlink:href="#Q"/><use transform="matrix(0.05,0,0,0.05,25,0)" xlink:href="#P"/><use transform="matrix(0.05,0,0,0.05,35,0)" xlink:href="#X"/><use transform="matrix(0.05,0,0,0.05,45,0)" xlink:href="#Q"/><use transform="matrix(0.05,0,0,0.05,50,0)" xlink:href="#ac"/><use transform="matrix(0.05,0,0,0.05,60,0)" xlink:href="#ag"/><use transform="matrix(0.05,0,0,0.05,65,0)" xlink:href="#R"/><use transform="matrix(0.05,0,0,0.05,68.95,0)" xlink:href="#W"/><use transform="matrix(0.05,0,0,0.05,72.9,0)" xlink:href="#H"/></g><path d="M212-179c-10-28-35-45-73-45-59 0-87 40-87 99 0 60 29 101 89 101 43 0 62-24 78-52l27 14C228-24 195 4 139 4 59 4 22-46 18-125c-6-104 99-153 187-111 19 9 31 26 39 46" id="ah"/><path d="M106-169C34-169 62-67 57 0H25v-261h32l-1 103c12-21 28-36 61-36 89 0 53 116 60 194h-32v-121c2-32-8-49-39-48" id="ai"/><g id="l"><use transform="matrix(0.05,0,0,0.05,0,0)" xlink:href="#ah"/><use transform="matrix(0.05,0,0,0.05,12.950000000000001,0)" xlink:href="#ai"/><use transform="matrix(0.05,0,0,0.05,22.950000000000003,0)" xlink:href="#S"/><use transform="matrix(0.05,0,0,0.05,32.95,0)" xlink:href="#S"/><use transform="matrix(0.05,0,0,0.05,42.95,0)" xlink:href="#G"/><use transform="matrix(0.05,0,0,0.05,51.95,0)" xlink:href="#H"/></g><g id="m"><use transform="matrix(0.05,0,0,0.05,0,0)" xlink:href="#K"/><use transform="matrix(0.05,0,0,0.05,12,0)" xlink:href="#M"/><use transform="matrix(0.05,0,0,0.05,22,0)" xlink:href="#N"/><use transform="matrix(0.05,0,0,0.05,31,0)" xlink:href="#I"/><use transform="matrix(0.05,0,0,0.05,36.95,0)" xlink:href="#O"/><use transform="matrix(0.05,0,0,0.05,45.95,0)" xlink:href="#P"/><use transform="matrix(0.05,0,0,0.05,55.95,0)" xlink:href="#Q"/><use transform="matrix(0.05,0,0,0.05,60.95,0)" xlink:href="#R"/><use transform="matrix(0.05,0,0,0.05,64.9,0)" xlink:href="#S"/><use transform="matrix(0.05,0,0,0.05,74.9,0)" xlink:href="#M"/></g><g id="n"><use transform="matrix(0.05,0,0,0.05,0,0)" xlink:href="#S"/><use transform="matrix(0.05,0,0,0.05,10,0)" xlink:href="#I"/></g><g id="o"><use transform="matrix(0.05,0,0,0.05,0,0)" xlink:href="#V"/><use transform="matrix(0.05,0,0,0.05,12.950000000000001,0)" xlink:href="#H"/><use transform="matrix(0.05,0,0,0.05,22.950000000000003,0)" xlink:href="#N"/><use transform="matrix(0.05,0,0,0.05,31.950000000000003,0)" xlink:href="#I"/><use transform="matrix(0.05,0,0,0.05,37.900000000000006,0)" xlink:href="#O"/><use transform="matrix(0.05,0,0,0.05,46.900000000000006,0)" xlink:href="#P"/><use transform="matrix(0.05,0,0,0.05,56.900000000000006,0)" xlink:href="#Q"/><use transform="matrix(0.05,0,0,0.05,61.900000000000006,0)" xlink:href="#R"/><use transform="matrix(0.05,0,0,0.05,65.85000000000001,0)" xlink:href="#S"/><use transform="matrix(0.05,0,0,0.05,75.85000000000001,0)" xlink:href="#M"/></g><path d="M30-248c87 1 191-15 191 75 0 78-77 80-158 76V0H30v-248zm33 125c57 0 124 11 124-50 0-59-68-47-124-48v98" id="aj"/><g id="p"><use transform="matrix(0.05,0,0,0.05,0,0)" xlink:href="#aj"/><use transform="matrix(0.05,0,0,0.05,12,0)" xlink:href="#H"/><use transform="matrix(0.05,0,0,0.05,22,0)" xlink:href="#I"/><use transform="matrix(0.05,0,0,0.05,27.950000000000003,0)" xlink:href="#ag"/><use transform="matrix(0.05,0,0,0.05,32.95,0)" xlink:href="#S"/><use transform="matrix(0.05,0,0,0.05,42.95,0)" xlink:href="#I"/><use transform="matrix(0.05,0,0,0.05,48.900000000000006,0)" xlink:href="#Z"/></g><g id="q"><use transform="matrix(0.05,0,0,0.05,0,0)" xlink:href="#K"/><use transform="matrix(0.05,0,0,0.05,12,0)" xlink:href="#M"/><use transform="matrix(0.05,0,0,0.05,22,0)" xlink:href="#N"/><use transform="matrix(0.05,0,0,0.05,31,0)" xlink:href="#I"/><use transform="matrix(0.05,0,0,0.05,36.95,0)" xlink:href="#O"/><use transform="matrix(0.05,0,0,0.05,45.95,0)" xlink:href="#P"/><use transform="matrix(0.05,0,0,0.05,55.95,0)" xlink:href="#Q"/><use transform="matrix(0.05,0,0,0.05,60.95,0)" xlink:href="#R"/><use transform="matrix(0.05,0,0,0.05,64.9,0)" xlink:href="#S"/><use transform="matrix(0.05,0,0,0.05,74.9,0)" xlink:href="#M"/></g><g id="r"><use transform="matrix(0.05,0,0,0.05,0,0)" xlink:href="#T"/><use transform="matrix(0.05,0,0,0.05,10,0)" xlink:href="#M"/><use transform="matrix(0.05,0,0,0.05,20,0)" xlink:href="#U"/></g><g id="s"><use transform="matrix(0.05,0,0,0.05,0,0)" xlink:href="#V"/><use transform="matrix(0.05,0,0,0.05,12.950000000000001,0)" xlink:href="#H"/><use transform="matrix(0.05,0,0,0.05,22.950000000000003,0)" xlink:href="#N"/><use transform="matrix(0.05,0,0,0.05,31.950000000000003,0)" xlink:href="#I"/><use transform="matrix(0.05,0,0,0.05,37.900000000000006,0)" xlink:href="#O"/><use transform="matrix(0.05,0,0,0.05,46.900000000000006,0)" xlink:href="#P"/><use transform="matrix(0.05,0,0,0.05,56.900000000000006,0)" xlink:href="#Q"/><use transform="matrix(0.05,0,0,0.05,61.900000000000006,0)" xlink:href="#R"/><use transform="matrix(0.05,0,0,0.05,65.85000000000001,0)" xlink:href="#S"/><use transform="matrix(0.05,0,0,0.05,75.85000000000001,0)" xlink:href="#M"/></g><path d="M33 0v-248h34V0H33" id="ak"/><g id="t"><use transform="matrix(0.05,0,0,0.05,0,0)" xlink:href="#ak"/><use transform="matrix(0.05,0,0,0.05,5,0)" xlink:href="#M"/><use transform="matrix(0.05,0,0,0.05,15,0)" xlink:href="#N"/><use transform="matrix(0.05,0,0,0.05,24,0)" xlink:href="#W"/><use transform="matrix(0.05,0,0,0.05,27.950000000000003,0)" xlink:href="#X"/><use transform="matrix(0.05,0,0,0.05,37.95,0)" xlink:href="#U"/><use transform="matrix(0.05,0,0,0.05,47.95,0)" xlink:href="#H"/></g><g id="u"><use transform="matrix(0.05,0,0,0.05,0,0)" xlink:href="#L"/><use transform="matrix(0.05,0,0,0.05,12,0)" xlink:href="#O"/><use transform="matrix(0.05,0,0,0.05,21,0)" xlink:href="#G"/><use transform="matrix(0.05,0,0,0.05,30,0)" xlink:href="#Q"/><use transform="matrix(0.05,0,0,0.05,35,0)" xlink:href="#H"/><use transform="matrix(0.05,0,0,0.05,45,0)" xlink:href="#Z"/></g><path d="M143 4C61 4 22-44 18-125c-5-107 100-154 193-111 17 8 29 25 37 43l-32 9c-13-25-37-40-76-40-61 0-88 39-88 99 0 61 29 100 91 101 35 0 62-11 79-27v-45h-74v-28h105v86C228-13 192 4 143 4" id="al"/><g id="v"><use transform="matrix(0.05,0,0,0.05,0,0)" xlink:href="#al"/><use transform="matrix(0.05,0,0,0.05,14,0)" xlink:href="#H"/><use transform="matrix(0.05,0,0,0.05,24,0)" xlink:href="#M"/><use transform="matrix(0.05,0,0,0.05,34,0)" xlink:href="#H"/><use transform="matrix(0.05,0,0,0.05,44,0)" xlink:href="#I"/><use transform="matrix(0.05,0,0,0.05,49.95,0)" xlink:href="#T"/><use transform="matrix(0.05,0,0,0.05,59.95,0)" xlink:href="#Q"/><use transform="matrix(0.05,0,0,0.05,64.95,0)" xlink:href="#H"/></g><g id="w"><use transform="matrix(0.05,0,0,0.05,0,0)" xlink:href="#K"/><use transform="matrix(0.05,0,0,0.05,12,0)" xlink:href="#M"/><use transform="matrix(0.05,0,0,0.05,22,0)" xlink:href="#N"/><use transform="matrix(0.05,0,0,0.05,31,0)" xlink:href="#I"/><use transform="matrix(0.05,0,0,0.05,36.95,0)" xlink:href="#O"/><use transform="matrix(0.05,0,0,0.05,45.95,0)" xlink:href="#P"/><use transform="matrix(0.05,0,0,0.05,55.95,0)" xlink:href="#Q"/><use transform="matrix(0.05,0,0,0.05,60.95,0)" xlink:href="#H"/><use transform="matrix(0.05,0,0,0.05,70.95,0)" xlink:href="#U"/></g><g id="x"><use transform="matrix(0.05,0,0,0.05,0,0)" xlink:href="#S"/><use transform="matrix(0.05,0,0,0.05,10,0)" xlink:href="#I"/></g><g id="y"><use transform="matrix(0.05,0,0,0.05,0,0)" xlink:href="#V"/><use transform="matrix(0.05,0,0,0.05,12.950000000000001,0)" xlink:href="#H"/><use transform="matrix(0.05,0,0,0.05,22.950000000000003,0)" xlink:href="#N"/><use transform="matrix(0.05,0,0,0.05,31.950000000000003,0)" xlink:href="#I"/><use transform="matrix(0.05,0,0,0.05,37.900000000000006,0)" xlink:href="#O"/><use transform="matrix(0.05,0,0,0.05,46.900000000000006,0)" xlink:href="#P"/><use transform="matrix(0.05,0,0,0.05,56.900000000000006,0)" xlink:href="#Q"/><use transform="matrix(0.05,0,0,0.05,61.900000000000006,0)" xlink:href="#H"/><use transform="matrix(0.05,0,0,0.05,71.9,0)" xlink:href="#U"/></g><g id="z"><use transform="matrix(0.05,0,0,0.05,0,0)" xlink:href="#S"/><use transform="matrix(0.05,0,0,0.05,10,0)" xlink:href="#X"/><use transform="matrix(0.05,0,0,0.05,20,0)" xlink:href="#Q"/><use transform="matrix(0.05,0,0,0.05,25,0)" xlink:href="#P"/><use transform="matrix(0.05,0,0,0.05,35,0)" xlink:href="#X"/><use transform="matrix(0.05,0,0,0.05,45,0)" xlink:href="#Q"/></g><g id="A"><use transform="matrix(0.05,0,0,0.05,0,0)" xlink:href="#ag"/><use transform="matrix(0.05,0,0,0.05,5,0)" xlink:href="#R"/><use transform="matrix(0.05,0,0,0.05,8.95,0)" xlink:href="#W"/><use transform="matrix(0.05,0,0,0.05,12.899999999999999,0)" xlink:href="#H"/></g><g id="B"><use transform="matrix(0.05,0,0,0.05,0,0)" xlink:href="#J"/><use transform="matrix(0.05,0,0,0.05,12,0)" xlink:href="#N"/><use transform="matrix(0.05,0,0,0.05,21,0)" xlink:href="#N"/><use transform="matrix(0.05,0,0,0.05,30,0)" xlink:href="#H"/><use transform="matrix(0.05,0,0,0.05,40,0)" xlink:href="#P"/><use transform="matrix(0.05,0,0,0.05,50,0)" xlink:href="#Q"/></g><g id="C"><use transform="matrix(0.05,0,0,0.05,0,0)" xlink:href="#aa"/><use transform="matrix(0.05,0,0,0.05,8.950000000000001,0)" xlink:href="#H"/><use transform="matrix(0.05,0,0,0.05,18.950000000000003,0)" xlink:href="#ab"/><use transform="matrix(0.05,0,0,0.05,27.950000000000003,0)" xlink:href="#Q"/><use transform="matrix(0.05,0,0,0.05,32.95,0)" xlink:href="#ac"/><use transform="matrix(0.05,0,0,0.05,42.95,0)" xlink:href="#ad"/><use transform="matrix(0.05,0,0,0.05,53.900000000000006,0)" xlink:href="#R"/><use transform="matrix(0.05,0,0,0.05,57.85,0)" xlink:href="#W"/><use transform="matrix(0.05,0,0,0.05,61.80000000000001,0)" xlink:href="#H"/></g><g id="D"><use transform="matrix(0.05,0,0,0.05,0,0)" xlink:href="#ae"/><use transform="matrix(0.05,0,0,0.05,12,0)" xlink:href="#H"/><use transform="matrix(0.05,0,0,0.05,22,0)" xlink:href="#O"/></g><g id="E"><use transform="matrix(0.05,0,0,0.05,0,0)" xlink:href="#ad"/><use transform="matrix(0.05,0,0,0.05,10.950000000000001,0)" xlink:href="#R"/><use transform="matrix(0.05,0,0,0.05,14.9,0)" xlink:href="#W"/><use transform="matrix(0.05,0,0,0.05,18.85,0)" xlink:href="#H"/></g></defs></g></svg>